G04 (created by PCBNEW (2013-mar-13)-testing) date Sun 23 Feb 2014 05:57:38 AM GET*
%MOIN*%
G04 Gerber Fmt 3.4, Leading zero omitted, Abs format*
%FSLAX34Y34*%
G01*
G70*
G90*
G04 APERTURE LIST*
%ADD10C,0.005906*%
%ADD11C,0.012000*%
%ADD12C,0.005000*%
%ADD13C,0.015000*%
%ADD14C,0.008000*%
%ADD15C,0.007500*%
%ADD16C,0.011250*%
%ADD17C,0.010600*%
%ADD18C,0.010700*%
%ADD19C,0.010000*%
%ADD20C,0.006000*%
G04 APERTURE END LIST*
G54D10*
G54D11*
X54980Y-41500D02*
X53000Y-41500D01*
X53000Y-41500D02*
X53000Y-40500D01*
X53000Y-40500D02*
X55000Y-40500D01*
X55000Y-40500D02*
X55000Y-41500D01*
X55000Y-41250D02*
X54750Y-41500D01*
G54D12*
X55501Y-39000D02*
G75*
G03X55501Y-39000I-1001J0D01*
G74*
G01*
G54D11*
X49020Y-44000D02*
X51000Y-44000D01*
X51000Y-44000D02*
X51000Y-45000D01*
X51000Y-45000D02*
X49000Y-45000D01*
X49000Y-45000D02*
X49000Y-44000D01*
X49000Y-44250D02*
X49250Y-44000D01*
X44480Y-38000D02*
X42500Y-38000D01*
X42500Y-38000D02*
X42500Y-37000D01*
X42500Y-37000D02*
X44500Y-37000D01*
X44500Y-37000D02*
X44500Y-38000D01*
X44500Y-37750D02*
X44250Y-38000D01*
X46000Y-46520D02*
X46000Y-48500D01*
X46000Y-48500D02*
X45000Y-48500D01*
X45000Y-48500D02*
X45000Y-46500D01*
X45000Y-46500D02*
X46000Y-46500D01*
X45750Y-46500D02*
X46000Y-46750D01*
X45000Y-46520D02*
X45000Y-48500D01*
X45000Y-48500D02*
X44000Y-48500D01*
X44000Y-48500D02*
X44000Y-46500D01*
X44000Y-46500D02*
X45000Y-46500D01*
X44750Y-46500D02*
X45000Y-46750D01*
G54D13*
X35500Y-41000D02*
X50500Y-41000D01*
X50500Y-41000D02*
X50500Y-43000D01*
X50500Y-43000D02*
X35500Y-43000D01*
X35500Y-43000D02*
X35500Y-41000D01*
X35500Y-41500D02*
X36000Y-41500D01*
X36000Y-41500D02*
X36000Y-42500D01*
X36000Y-42500D02*
X35500Y-42500D01*
G54D11*
X37000Y-47000D02*
X37000Y-46000D01*
X37000Y-46000D02*
X40000Y-46000D01*
X40000Y-46000D02*
X40000Y-47000D01*
X40000Y-47000D02*
X37000Y-47000D01*
X38000Y-46000D02*
X38000Y-47000D01*
X48000Y-50000D02*
X48000Y-49000D01*
X48000Y-49000D02*
X51000Y-49000D01*
X51000Y-49000D02*
X51000Y-50000D01*
X51000Y-50000D02*
X48000Y-50000D01*
X49000Y-49000D02*
X49000Y-50000D01*
X48000Y-48500D02*
X48000Y-47500D01*
X48000Y-47500D02*
X51000Y-47500D01*
X51000Y-47500D02*
X51000Y-48500D01*
X51000Y-48500D02*
X48000Y-48500D01*
X49000Y-47500D02*
X49000Y-48500D01*
X48000Y-47000D02*
X48000Y-46000D01*
X48000Y-46000D02*
X51000Y-46000D01*
X51000Y-46000D02*
X51000Y-47000D01*
X51000Y-47000D02*
X48000Y-47000D01*
X49000Y-46000D02*
X49000Y-47000D01*
G54D14*
X35500Y-31500D02*
X48500Y-31500D01*
X48500Y-29500D02*
X35500Y-29500D01*
X35500Y-29500D02*
X35500Y-31500D01*
X48500Y-31500D02*
X48500Y-29500D01*
G54D11*
X57000Y-49000D02*
X57000Y-50000D01*
X57000Y-50000D02*
X55000Y-50000D01*
X55000Y-50000D02*
X55000Y-49000D01*
X55000Y-49000D02*
X57000Y-49000D01*
X55000Y-49000D02*
X55000Y-50000D01*
X55000Y-50000D02*
X53000Y-50000D01*
X53000Y-50000D02*
X53000Y-49000D01*
X53000Y-49000D02*
X55000Y-49000D01*
X52500Y-50000D02*
X51500Y-50000D01*
X51500Y-50000D02*
X51500Y-45000D01*
X51500Y-45000D02*
X52500Y-45000D01*
X52500Y-45000D02*
X52500Y-50000D01*
X52500Y-49000D02*
X51500Y-49000D01*
X51500Y-44000D02*
X51500Y-36000D01*
X51500Y-36000D02*
X52500Y-36000D01*
X52500Y-36000D02*
X52500Y-44000D01*
X52500Y-44000D02*
X51500Y-44000D01*
X52500Y-43000D02*
X51500Y-43000D01*
X51000Y-38500D02*
X51000Y-39500D01*
X51000Y-39500D02*
X41000Y-39500D01*
X41000Y-39500D02*
X41000Y-38500D01*
X41000Y-38500D02*
X51000Y-38500D01*
X50000Y-38500D02*
X50000Y-39500D01*
X42000Y-37000D02*
X42000Y-38000D01*
X42000Y-38000D02*
X36000Y-38000D01*
X36000Y-38000D02*
X36000Y-37000D01*
X36000Y-37000D02*
X42000Y-37000D01*
X41000Y-37000D02*
X41000Y-38000D01*
X37000Y-44500D02*
X45000Y-44500D01*
X45000Y-44500D02*
X45000Y-45500D01*
X45000Y-45500D02*
X37000Y-45500D01*
X37000Y-45500D02*
X37000Y-44500D01*
X38000Y-45500D02*
X38000Y-44500D01*
G54D14*
X51000Y-38000D02*
X48000Y-38000D01*
X48000Y-36000D02*
X51000Y-36000D01*
X51000Y-36000D02*
X51000Y-38000D01*
X48000Y-38000D02*
X48000Y-36000D01*
G54D11*
X46500Y-51000D02*
X46500Y-52000D01*
X46500Y-52000D02*
X41500Y-52000D01*
X41500Y-52000D02*
X41500Y-51000D01*
X41500Y-51000D02*
X46500Y-51000D01*
X45500Y-51000D02*
X45500Y-52000D01*
X63000Y-37000D02*
X63000Y-36000D01*
X63000Y-36000D02*
X65000Y-36000D01*
X65000Y-36000D02*
X65000Y-37000D01*
X65000Y-37000D02*
X63000Y-37000D01*
X66500Y-31000D02*
X66500Y-32000D01*
X66500Y-32000D02*
X64500Y-32000D01*
X64500Y-32000D02*
X64500Y-31000D01*
X64500Y-31000D02*
X66500Y-31000D01*
X68500Y-30500D02*
X68500Y-29500D01*
X68500Y-29500D02*
X70500Y-29500D01*
X70500Y-29500D02*
X70500Y-30500D01*
X70500Y-30500D02*
X68500Y-30500D01*
X56000Y-40000D02*
X56000Y-40000D01*
X56000Y-40000D02*
X56000Y-33000D01*
X56000Y-33000D02*
X57000Y-33000D01*
X57000Y-33000D02*
X57000Y-40000D01*
X57000Y-40000D02*
X56000Y-40000D01*
X57000Y-39000D02*
X57000Y-39000D01*
X57000Y-39000D02*
X56000Y-39000D01*
X40500Y-51000D02*
X40500Y-52000D01*
X40500Y-52000D02*
X35500Y-52000D01*
X35500Y-52000D02*
X35500Y-51000D01*
X35500Y-51000D02*
X40500Y-51000D01*
X39500Y-51000D02*
X39500Y-52000D01*
X52500Y-51000D02*
X52500Y-52000D01*
X52500Y-52000D02*
X47500Y-52000D01*
X47500Y-52000D02*
X47500Y-51000D01*
X47500Y-51000D02*
X52500Y-51000D01*
X51500Y-51000D02*
X51500Y-52000D01*
X40000Y-49000D02*
X38500Y-47500D01*
X38500Y-47500D02*
X38000Y-47500D01*
X38000Y-47500D02*
X37500Y-48000D01*
X37500Y-48000D02*
X37500Y-49000D01*
X37500Y-49000D02*
X38500Y-50000D01*
X38500Y-50000D02*
X39500Y-50000D01*
X39500Y-50000D02*
X40000Y-49500D01*
X40000Y-49500D02*
X40000Y-49000D01*
X42500Y-46000D02*
X41000Y-47500D01*
X41000Y-47500D02*
X41000Y-48000D01*
X41000Y-48000D02*
X41500Y-48500D01*
X41500Y-48500D02*
X42500Y-48500D01*
X42500Y-48500D02*
X43500Y-47500D01*
X43500Y-47500D02*
X43500Y-46500D01*
X43500Y-46500D02*
X43000Y-46000D01*
X43000Y-46000D02*
X42500Y-46000D01*
X63000Y-37500D02*
X61500Y-36000D01*
X61500Y-36000D02*
X61000Y-36000D01*
X61000Y-36000D02*
X60500Y-36500D01*
X60500Y-36500D02*
X60500Y-37500D01*
X60500Y-37500D02*
X61500Y-38500D01*
X61500Y-38500D02*
X62500Y-38500D01*
X62500Y-38500D02*
X63000Y-38000D01*
X63000Y-38000D02*
X63000Y-37500D01*
X62500Y-29000D02*
X61000Y-30500D01*
X61000Y-30500D02*
X61000Y-31000D01*
X61000Y-31000D02*
X61500Y-31500D01*
X61500Y-31500D02*
X62500Y-31500D01*
X62500Y-31500D02*
X63500Y-30500D01*
X63500Y-30500D02*
X63500Y-29500D01*
X63500Y-29500D02*
X63000Y-29000D01*
X63000Y-29000D02*
X62500Y-29000D01*
G54D12*
X35750Y-36000D02*
X36500Y-36000D01*
X36500Y-36000D02*
X36500Y-33000D01*
X36500Y-33000D02*
X35500Y-33000D01*
X35500Y-33000D02*
X35500Y-36000D01*
X35500Y-36000D02*
X35750Y-36000D01*
X36000Y-36250D02*
X36000Y-36000D01*
X36000Y-33000D02*
X36000Y-32750D01*
X35750Y-36000D02*
X35500Y-35750D01*
X56750Y-44000D02*
X56000Y-44000D01*
X56000Y-44000D02*
X56000Y-47000D01*
X56000Y-47000D02*
X57000Y-47000D01*
X57000Y-47000D02*
X57000Y-44000D01*
X57000Y-44000D02*
X56750Y-44000D01*
X56500Y-43750D02*
X56500Y-44000D01*
X56500Y-47000D02*
X56500Y-47250D01*
X56750Y-44000D02*
X57000Y-44250D01*
X55750Y-44000D02*
X55000Y-44000D01*
X55000Y-44000D02*
X55000Y-47000D01*
X55000Y-47000D02*
X56000Y-47000D01*
X56000Y-47000D02*
X56000Y-44000D01*
X56000Y-44000D02*
X55750Y-44000D01*
X55500Y-43750D02*
X55500Y-44000D01*
X55500Y-47000D02*
X55500Y-47250D01*
X55750Y-44000D02*
X56000Y-44250D01*
X54750Y-44000D02*
X54000Y-44000D01*
X54000Y-44000D02*
X54000Y-47000D01*
X54000Y-47000D02*
X55000Y-47000D01*
X55000Y-47000D02*
X55000Y-44000D01*
X55000Y-44000D02*
X54750Y-44000D01*
X54500Y-43750D02*
X54500Y-44000D01*
X54500Y-47000D02*
X54500Y-47250D01*
X54750Y-44000D02*
X55000Y-44250D01*
X53750Y-44000D02*
X53000Y-44000D01*
X53000Y-44000D02*
X53000Y-47000D01*
X53000Y-47000D02*
X54000Y-47000D01*
X54000Y-47000D02*
X54000Y-44000D01*
X54000Y-44000D02*
X53750Y-44000D01*
X53500Y-43750D02*
X53500Y-44000D01*
X53500Y-47000D02*
X53500Y-47250D01*
X53750Y-44000D02*
X54000Y-44250D01*
X35750Y-47500D02*
X36500Y-47500D01*
X36500Y-47500D02*
X36500Y-44500D01*
X36500Y-44500D02*
X35500Y-44500D01*
X35500Y-44500D02*
X35500Y-47500D01*
X35500Y-47500D02*
X35750Y-47500D01*
X36000Y-47750D02*
X36000Y-47500D01*
X36000Y-44500D02*
X36000Y-44250D01*
X35750Y-47500D02*
X35500Y-47250D01*
X40000Y-39250D02*
X40000Y-38500D01*
X40000Y-38500D02*
X37000Y-38500D01*
X37000Y-38500D02*
X37000Y-39500D01*
X37000Y-39500D02*
X40000Y-39500D01*
X40000Y-39500D02*
X40000Y-39250D01*
X40250Y-39000D02*
X40000Y-39000D01*
X37000Y-39000D02*
X36750Y-39000D01*
X40000Y-39250D02*
X39750Y-39500D01*
X43500Y-32750D02*
X43500Y-32000D01*
X43500Y-32000D02*
X40500Y-32000D01*
X40500Y-32000D02*
X40500Y-33000D01*
X40500Y-33000D02*
X43500Y-33000D01*
X43500Y-33000D02*
X43500Y-32750D01*
X43750Y-32500D02*
X43500Y-32500D01*
X40500Y-32500D02*
X40250Y-32500D01*
X43500Y-32750D02*
X43250Y-33000D01*
X66000Y-39250D02*
X66000Y-38500D01*
X66000Y-38500D02*
X63000Y-38500D01*
X63000Y-38500D02*
X63000Y-39500D01*
X63000Y-39500D02*
X66000Y-39500D01*
X66000Y-39500D02*
X66000Y-39250D01*
X66250Y-39000D02*
X66000Y-39000D01*
X63000Y-39000D02*
X62750Y-39000D01*
X66000Y-39250D02*
X65750Y-39500D01*
X58250Y-33500D02*
X57500Y-33500D01*
X57500Y-33500D02*
X57500Y-36500D01*
X57500Y-36500D02*
X58500Y-36500D01*
X58500Y-36500D02*
X58500Y-33500D01*
X58500Y-33500D02*
X58250Y-33500D01*
X58000Y-33250D02*
X58000Y-33500D01*
X58000Y-36500D02*
X58000Y-36750D01*
X58250Y-33500D02*
X58500Y-33750D01*
X59750Y-34500D02*
X59000Y-34500D01*
X59000Y-34500D02*
X59000Y-37500D01*
X59000Y-37500D02*
X60000Y-37500D01*
X60000Y-37500D02*
X60000Y-34500D01*
X60000Y-34500D02*
X59750Y-34500D01*
X59500Y-34250D02*
X59500Y-34500D01*
X59500Y-37500D02*
X59500Y-37750D01*
X59750Y-34500D02*
X60000Y-34750D01*
X70750Y-32500D02*
X70000Y-32500D01*
X70000Y-32500D02*
X70000Y-35500D01*
X70000Y-35500D02*
X71000Y-35500D01*
X71000Y-35500D02*
X71000Y-32500D01*
X71000Y-32500D02*
X70750Y-32500D01*
X70500Y-32250D02*
X70500Y-32500D01*
X70500Y-35500D02*
X70500Y-35750D01*
X70750Y-32500D02*
X71000Y-32750D01*
X59250Y-33000D02*
X60000Y-33000D01*
X60000Y-33000D02*
X60000Y-30000D01*
X60000Y-30000D02*
X59000Y-30000D01*
X59000Y-30000D02*
X59000Y-33000D01*
X59000Y-33000D02*
X59250Y-33000D01*
X59500Y-33250D02*
X59500Y-33000D01*
X59500Y-30000D02*
X59500Y-29750D01*
X59250Y-33000D02*
X59000Y-32750D01*
X64500Y-29750D02*
X64500Y-30500D01*
X64500Y-30500D02*
X67500Y-30500D01*
X67500Y-30500D02*
X67500Y-29500D01*
X67500Y-29500D02*
X64500Y-29500D01*
X64500Y-29500D02*
X64500Y-29750D01*
X64250Y-30000D02*
X64500Y-30000D01*
X67500Y-30000D02*
X67750Y-30000D01*
X64500Y-29750D02*
X64750Y-29500D01*
G54D13*
X37000Y-34500D02*
X37500Y-34500D01*
X37500Y-34500D02*
X37500Y-35500D01*
X37500Y-35500D02*
X37000Y-35500D01*
X37000Y-34000D02*
X48000Y-34000D01*
X48000Y-34000D02*
X48000Y-36000D01*
X48000Y-36000D02*
X37000Y-36000D01*
X37000Y-36000D02*
X37000Y-34000D01*
X60500Y-33500D02*
X60500Y-33500D01*
X60500Y-33500D02*
X61000Y-33500D01*
X61000Y-33500D02*
X61000Y-34500D01*
X61000Y-34500D02*
X60500Y-34500D01*
X60500Y-33000D02*
X69500Y-33000D01*
X69500Y-33000D02*
X69500Y-35000D01*
X69500Y-35000D02*
X60500Y-35000D01*
X60500Y-35000D02*
X60500Y-33000D01*
G54D11*
X44000Y-46500D02*
X44000Y-45500D01*
X44000Y-45500D02*
X46000Y-45500D01*
X46000Y-45500D02*
X46000Y-46500D01*
X46000Y-46500D02*
X44000Y-46500D01*
G54D14*
X53833Y-42042D02*
X53814Y-42061D01*
X53757Y-42080D01*
X53719Y-42080D01*
X53661Y-42061D01*
X53623Y-42023D01*
X53604Y-41985D01*
X53585Y-41909D01*
X53585Y-41852D01*
X53604Y-41776D01*
X53623Y-41738D01*
X53661Y-41700D01*
X53719Y-41680D01*
X53757Y-41680D01*
X53814Y-41700D01*
X53833Y-41719D01*
X54214Y-42080D02*
X53985Y-42080D01*
X54100Y-42080D02*
X54100Y-41680D01*
X54061Y-41738D01*
X54023Y-41776D01*
X53985Y-41795D01*
G54D12*
X54108Y-39050D02*
X54122Y-39064D01*
X54136Y-39107D01*
X54136Y-39135D01*
X54122Y-39178D01*
X54093Y-39207D01*
X54065Y-39221D01*
X54008Y-39235D01*
X53965Y-39235D01*
X53908Y-39221D01*
X53879Y-39207D01*
X53851Y-39178D01*
X53836Y-39135D01*
X53836Y-39107D01*
X53851Y-39064D01*
X53865Y-39050D01*
X53865Y-38935D02*
X53851Y-38921D01*
X53836Y-38892D01*
X53836Y-38821D01*
X53851Y-38792D01*
X53865Y-38778D01*
X53893Y-38764D01*
X53922Y-38764D01*
X53965Y-38778D01*
X54136Y-38950D01*
X54136Y-38764D01*
X54935Y-39291D02*
X55135Y-39291D01*
X54821Y-39351D02*
X55035Y-39410D01*
X55035Y-39255D01*
X54835Y-39184D02*
X54835Y-39017D01*
X55135Y-39125D01*
X54935Y-38815D02*
X55135Y-38815D01*
X54935Y-38922D02*
X55092Y-38922D01*
X55121Y-38910D01*
X55135Y-38886D01*
X55135Y-38851D01*
X55121Y-38827D01*
X55107Y-38815D01*
X54978Y-38613D02*
X54978Y-38696D01*
X55135Y-38696D02*
X54835Y-38696D01*
X54835Y-38577D01*
G54D15*
X54521Y-40014D02*
X54521Y-39785D01*
X54635Y-39900D02*
X54407Y-39900D01*
G54D14*
X50033Y-43742D02*
X50014Y-43761D01*
X49957Y-43780D01*
X49919Y-43780D01*
X49861Y-43761D01*
X49823Y-43723D01*
X49804Y-43685D01*
X49785Y-43609D01*
X49785Y-43552D01*
X49804Y-43476D01*
X49823Y-43438D01*
X49861Y-43400D01*
X49919Y-43380D01*
X49957Y-43380D01*
X50014Y-43400D01*
X50033Y-43419D01*
X50166Y-43380D02*
X50414Y-43380D01*
X50280Y-43533D01*
X50338Y-43533D01*
X50376Y-43552D01*
X50395Y-43571D01*
X50414Y-43609D01*
X50414Y-43704D01*
X50395Y-43742D01*
X50376Y-43761D01*
X50338Y-43780D01*
X50223Y-43780D01*
X50185Y-43761D01*
X50166Y-43742D01*
X43333Y-38542D02*
X43314Y-38561D01*
X43257Y-38580D01*
X43219Y-38580D01*
X43161Y-38561D01*
X43123Y-38523D01*
X43104Y-38485D01*
X43085Y-38409D01*
X43085Y-38352D01*
X43104Y-38276D01*
X43123Y-38238D01*
X43161Y-38200D01*
X43219Y-38180D01*
X43257Y-38180D01*
X43314Y-38200D01*
X43333Y-38219D01*
X43676Y-38314D02*
X43676Y-38580D01*
X43580Y-38161D02*
X43485Y-38447D01*
X43733Y-38447D01*
X46542Y-47666D02*
X46561Y-47685D01*
X46580Y-47742D01*
X46580Y-47780D01*
X46561Y-47838D01*
X46523Y-47876D01*
X46485Y-47895D01*
X46409Y-47914D01*
X46352Y-47914D01*
X46276Y-47895D01*
X46238Y-47876D01*
X46200Y-47838D01*
X46180Y-47780D01*
X46180Y-47742D01*
X46200Y-47685D01*
X46219Y-47666D01*
X46180Y-47304D02*
X46180Y-47495D01*
X46371Y-47514D01*
X46352Y-47495D01*
X46333Y-47457D01*
X46333Y-47361D01*
X46352Y-47323D01*
X46371Y-47304D01*
X46409Y-47285D01*
X46504Y-47285D01*
X46542Y-47304D01*
X46561Y-47323D01*
X46580Y-47361D01*
X46580Y-47457D01*
X46561Y-47495D01*
X46542Y-47514D01*
X45542Y-47666D02*
X45561Y-47685D01*
X45580Y-47742D01*
X45580Y-47780D01*
X45561Y-47838D01*
X45523Y-47876D01*
X45485Y-47895D01*
X45409Y-47914D01*
X45352Y-47914D01*
X45276Y-47895D01*
X45238Y-47876D01*
X45200Y-47838D01*
X45180Y-47780D01*
X45180Y-47742D01*
X45200Y-47685D01*
X45219Y-47666D01*
X45180Y-47323D02*
X45180Y-47399D01*
X45200Y-47438D01*
X45219Y-47457D01*
X45276Y-47495D01*
X45352Y-47514D01*
X45504Y-47514D01*
X45542Y-47495D01*
X45561Y-47476D01*
X45580Y-47438D01*
X45580Y-47361D01*
X45561Y-47323D01*
X45542Y-47304D01*
X45504Y-47285D01*
X45409Y-47285D01*
X45371Y-47304D01*
X45352Y-47323D01*
X45333Y-47361D01*
X45333Y-47438D01*
X45352Y-47476D01*
X45371Y-47495D01*
X45409Y-47514D01*
G54D16*
X38060Y-42271D02*
X38060Y-41671D01*
X38532Y-42214D02*
X38510Y-42242D01*
X38446Y-42271D01*
X38403Y-42271D01*
X38339Y-42242D01*
X38296Y-42185D01*
X38275Y-42128D01*
X38253Y-42014D01*
X38253Y-41928D01*
X38275Y-41814D01*
X38296Y-41757D01*
X38339Y-41700D01*
X38403Y-41671D01*
X38446Y-41671D01*
X38510Y-41700D01*
X38532Y-41728D01*
X38960Y-42271D02*
X38703Y-42271D01*
X38832Y-42271D02*
X38832Y-41671D01*
X38789Y-41757D01*
X38746Y-41814D01*
X38703Y-41842D01*
G54D11*
G54D16*
X44696Y-42100D02*
X44910Y-42100D01*
X44653Y-42271D02*
X44803Y-41671D01*
X44953Y-42271D01*
X45039Y-41671D02*
X45296Y-41671D01*
X45167Y-42271D02*
X45167Y-41671D01*
X45446Y-42271D02*
X45446Y-41671D01*
X45596Y-42100D01*
X45746Y-41671D01*
X45746Y-42271D01*
X45960Y-41957D02*
X46110Y-41957D01*
X46175Y-42271D02*
X45960Y-42271D01*
X45960Y-41671D01*
X46175Y-41671D01*
X46603Y-41700D02*
X46560Y-41671D01*
X46496Y-41671D01*
X46432Y-41700D01*
X46389Y-41757D01*
X46367Y-41814D01*
X46346Y-41928D01*
X46346Y-42014D01*
X46367Y-42128D01*
X46389Y-42185D01*
X46432Y-42242D01*
X46496Y-42271D01*
X46539Y-42271D01*
X46603Y-42242D01*
X46625Y-42214D01*
X46625Y-42014D01*
X46539Y-42014D01*
X46796Y-42100D02*
X47010Y-42100D01*
X46753Y-42271D02*
X46903Y-41671D01*
X47053Y-42271D01*
X47160Y-41671D02*
X47439Y-41671D01*
X47289Y-41900D01*
X47353Y-41900D01*
X47396Y-41928D01*
X47417Y-41957D01*
X47439Y-42014D01*
X47439Y-42157D01*
X47417Y-42214D01*
X47396Y-42242D01*
X47353Y-42271D01*
X47225Y-42271D01*
X47182Y-42242D01*
X47160Y-42214D01*
X47610Y-41728D02*
X47632Y-41700D01*
X47675Y-41671D01*
X47782Y-41671D01*
X47825Y-41700D01*
X47846Y-41728D01*
X47867Y-41785D01*
X47867Y-41842D01*
X47846Y-41928D01*
X47589Y-42271D01*
X47867Y-42271D01*
X48125Y-41928D02*
X48082Y-41900D01*
X48060Y-41871D01*
X48039Y-41814D01*
X48039Y-41785D01*
X48060Y-41728D01*
X48082Y-41700D01*
X48125Y-41671D01*
X48210Y-41671D01*
X48253Y-41700D01*
X48275Y-41728D01*
X48296Y-41785D01*
X48296Y-41814D01*
X48275Y-41871D01*
X48253Y-41900D01*
X48210Y-41928D01*
X48125Y-41928D01*
X48082Y-41957D01*
X48060Y-41985D01*
X48039Y-42042D01*
X48039Y-42157D01*
X48060Y-42214D01*
X48082Y-42242D01*
X48125Y-42271D01*
X48210Y-42271D01*
X48253Y-42242D01*
X48275Y-42214D01*
X48296Y-42157D01*
X48296Y-42042D01*
X48275Y-41985D01*
X48253Y-41957D01*
X48210Y-41928D01*
X48489Y-42042D02*
X48832Y-42042D01*
X49046Y-42271D02*
X49046Y-41671D01*
X49217Y-41671D01*
X49260Y-41700D01*
X49282Y-41728D01*
X49303Y-41785D01*
X49303Y-41871D01*
X49282Y-41928D01*
X49260Y-41957D01*
X49217Y-41985D01*
X49046Y-41985D01*
G54D11*
G54D17*
X38187Y-45818D02*
X38187Y-45113D01*
X38429Y-45818D02*
X38247Y-45416D01*
X38429Y-45113D02*
X38187Y-45516D01*
X38833Y-45818D02*
X38590Y-45818D01*
X38712Y-45818D02*
X38712Y-45113D01*
X38671Y-45214D01*
X38631Y-45281D01*
X38590Y-45315D01*
G54D11*
G54D17*
X49187Y-48818D02*
X49187Y-48113D01*
X49429Y-48818D02*
X49247Y-48416D01*
X49429Y-48113D02*
X49187Y-48516D01*
X49590Y-48181D02*
X49611Y-48147D01*
X49651Y-48113D01*
X49752Y-48113D01*
X49792Y-48147D01*
X49812Y-48181D01*
X49833Y-48248D01*
X49833Y-48315D01*
X49812Y-48416D01*
X49570Y-48818D01*
X49833Y-48818D01*
G54D11*
G54D17*
X49187Y-47318D02*
X49187Y-46613D01*
X49429Y-47318D02*
X49247Y-46916D01*
X49429Y-46613D02*
X49187Y-47016D01*
X49570Y-46613D02*
X49833Y-46613D01*
X49691Y-46882D01*
X49752Y-46882D01*
X49792Y-46916D01*
X49812Y-46949D01*
X49833Y-47016D01*
X49833Y-47184D01*
X49812Y-47251D01*
X49792Y-47285D01*
X49752Y-47318D01*
X49631Y-47318D01*
X49590Y-47285D01*
X49570Y-47251D01*
G54D11*
G54D17*
X49187Y-45818D02*
X49187Y-45113D01*
X49429Y-45818D02*
X49247Y-45416D01*
X49429Y-45113D02*
X49187Y-45516D01*
X49792Y-45348D02*
X49792Y-45818D01*
X49691Y-45080D02*
X49590Y-45583D01*
X49853Y-45583D01*
G54D11*
G54D14*
X38704Y-29180D02*
X38704Y-28780D01*
X38857Y-28780D01*
X38895Y-28800D01*
X38914Y-28819D01*
X38933Y-28857D01*
X38933Y-28914D01*
X38914Y-28952D01*
X38895Y-28971D01*
X38857Y-28990D01*
X38704Y-28990D01*
X39314Y-29180D02*
X39085Y-29180D01*
X39200Y-29180D02*
X39200Y-28780D01*
X39161Y-28838D01*
X39123Y-28876D01*
X39085Y-28895D01*
X43580Y-29142D02*
X43561Y-29161D01*
X43504Y-29180D01*
X43466Y-29180D01*
X43409Y-29161D01*
X43371Y-29123D01*
X43352Y-29085D01*
X43333Y-29009D01*
X43333Y-28952D01*
X43352Y-28876D01*
X43371Y-28838D01*
X43409Y-28800D01*
X43466Y-28780D01*
X43504Y-28780D01*
X43561Y-28800D01*
X43580Y-28819D01*
X43828Y-28780D02*
X43904Y-28780D01*
X43942Y-28800D01*
X43980Y-28838D01*
X44000Y-28914D01*
X44000Y-29047D01*
X43980Y-29123D01*
X43942Y-29161D01*
X43904Y-29180D01*
X43828Y-29180D01*
X43790Y-29161D01*
X43752Y-29123D01*
X43733Y-29047D01*
X43733Y-28914D01*
X43752Y-28838D01*
X43790Y-28800D01*
X43828Y-28780D01*
X44171Y-29180D02*
X44171Y-28780D01*
X44400Y-29180D01*
X44400Y-28780D01*
X44590Y-29180D02*
X44590Y-28780D01*
X44819Y-29180D01*
X44819Y-28780D01*
X44914Y-29219D02*
X45219Y-29219D01*
X45523Y-29180D02*
X45295Y-29180D01*
X45409Y-29180D02*
X45409Y-28780D01*
X45371Y-28838D01*
X45333Y-28876D01*
X45295Y-28895D01*
X45657Y-28780D02*
X45904Y-28780D01*
X45771Y-28933D01*
X45828Y-28933D01*
X45866Y-28952D01*
X45885Y-28971D01*
X45904Y-29009D01*
X45904Y-29104D01*
X45885Y-29142D01*
X45866Y-29161D01*
X45828Y-29180D01*
X45714Y-29180D01*
X45676Y-29161D01*
X45657Y-29142D01*
X46038Y-28780D02*
X46304Y-29180D01*
X46304Y-28780D02*
X46038Y-29180D01*
X46438Y-28819D02*
X46457Y-28800D01*
X46495Y-28780D01*
X46590Y-28780D01*
X46628Y-28800D01*
X46647Y-28819D01*
X46666Y-28857D01*
X46666Y-28895D01*
X46647Y-28952D01*
X46419Y-29180D01*
X46666Y-29180D01*
G54D18*
X55684Y-50808D02*
X55684Y-50127D01*
X55847Y-50127D01*
X55887Y-50159D01*
X55908Y-50191D01*
X55928Y-50256D01*
X55928Y-50354D01*
X55908Y-50418D01*
X55887Y-50451D01*
X55847Y-50483D01*
X55684Y-50483D01*
X56091Y-50191D02*
X56112Y-50159D01*
X56152Y-50127D01*
X56254Y-50127D01*
X56295Y-50159D01*
X56315Y-50191D01*
X56336Y-50256D01*
X56336Y-50321D01*
X56315Y-50418D01*
X56071Y-50808D01*
X56336Y-50808D01*
G54D11*
G54D18*
X53684Y-50808D02*
X53684Y-50127D01*
X53847Y-50127D01*
X53887Y-50159D01*
X53908Y-50191D01*
X53928Y-50256D01*
X53928Y-50354D01*
X53908Y-50418D01*
X53887Y-50451D01*
X53847Y-50483D01*
X53684Y-50483D01*
X54071Y-50127D02*
X54336Y-50127D01*
X54193Y-50386D01*
X54254Y-50386D01*
X54295Y-50418D01*
X54315Y-50451D01*
X54336Y-50516D01*
X54336Y-50678D01*
X54315Y-50743D01*
X54295Y-50775D01*
X54254Y-50808D01*
X54132Y-50808D01*
X54091Y-50775D01*
X54071Y-50743D01*
G54D11*
G54D18*
X51308Y-47565D02*
X50627Y-47565D01*
X50627Y-47402D01*
X50659Y-47362D01*
X50691Y-47341D01*
X50756Y-47321D01*
X50854Y-47321D01*
X50918Y-47341D01*
X50951Y-47362D01*
X50983Y-47402D01*
X50983Y-47565D01*
X50854Y-46954D02*
X51308Y-46954D01*
X50594Y-47056D02*
X51081Y-47158D01*
X51081Y-46893D01*
G54D11*
G54D18*
X51308Y-42815D02*
X50627Y-42815D01*
X50627Y-42652D01*
X50659Y-42612D01*
X50691Y-42591D01*
X50756Y-42571D01*
X50854Y-42571D01*
X50918Y-42591D01*
X50951Y-42612D01*
X50983Y-42652D01*
X50983Y-42815D01*
X50627Y-42184D02*
X50627Y-42387D01*
X50951Y-42408D01*
X50918Y-42387D01*
X50886Y-42347D01*
X50886Y-42245D01*
X50918Y-42204D01*
X50951Y-42184D01*
X51016Y-42163D01*
X51178Y-42163D01*
X51243Y-42184D01*
X51275Y-42204D01*
X51308Y-42245D01*
X51308Y-42347D01*
X51275Y-42387D01*
X51243Y-42408D01*
G54D11*
G54D19*
X51214Y-38847D02*
X51242Y-38866D01*
X51271Y-38923D01*
X51271Y-38961D01*
X51242Y-39019D01*
X51185Y-39057D01*
X51128Y-39076D01*
X51014Y-39095D01*
X50928Y-39095D01*
X50814Y-39076D01*
X50757Y-39057D01*
X50700Y-39019D01*
X50671Y-38961D01*
X50671Y-38923D01*
X50700Y-38866D01*
X50728Y-38847D01*
X50671Y-38599D02*
X50671Y-38523D01*
X50700Y-38485D01*
X50757Y-38447D01*
X50871Y-38428D01*
X51071Y-38428D01*
X51185Y-38447D01*
X51242Y-38485D01*
X51271Y-38523D01*
X51271Y-38599D01*
X51242Y-38638D01*
X51185Y-38676D01*
X51071Y-38695D01*
X50871Y-38695D01*
X50757Y-38676D01*
X50700Y-38638D01*
X50671Y-38599D01*
X51271Y-38257D02*
X50671Y-38257D01*
X51271Y-38028D01*
X50671Y-38028D01*
X51271Y-37838D02*
X50671Y-37838D01*
X51271Y-37609D01*
X50671Y-37609D01*
X51328Y-37514D02*
X51328Y-37209D01*
X50928Y-37057D02*
X50900Y-37095D01*
X50871Y-37114D01*
X50814Y-37133D01*
X50785Y-37133D01*
X50728Y-37114D01*
X50700Y-37095D01*
X50671Y-37057D01*
X50671Y-36980D01*
X50700Y-36942D01*
X50728Y-36923D01*
X50785Y-36904D01*
X50814Y-36904D01*
X50871Y-36923D01*
X50900Y-36942D01*
X50928Y-36980D01*
X50928Y-37057D01*
X50957Y-37095D01*
X50985Y-37114D01*
X51042Y-37133D01*
X51157Y-37133D01*
X51214Y-37114D01*
X51242Y-37095D01*
X51271Y-37057D01*
X51271Y-36980D01*
X51242Y-36942D01*
X51214Y-36923D01*
X51157Y-36904D01*
X51042Y-36904D01*
X50985Y-36923D01*
X50957Y-36942D01*
X50928Y-36980D01*
G54D11*
G54D18*
X48184Y-40308D02*
X48184Y-39627D01*
X48347Y-39627D01*
X48387Y-39659D01*
X48408Y-39691D01*
X48428Y-39756D01*
X48428Y-39854D01*
X48408Y-39918D01*
X48387Y-39951D01*
X48347Y-39983D01*
X48184Y-39983D01*
X48795Y-39627D02*
X48714Y-39627D01*
X48673Y-39659D01*
X48652Y-39691D01*
X48612Y-39789D01*
X48591Y-39918D01*
X48591Y-40178D01*
X48612Y-40243D01*
X48632Y-40275D01*
X48673Y-40308D01*
X48754Y-40308D01*
X48795Y-40275D01*
X48815Y-40243D01*
X48836Y-40178D01*
X48836Y-40016D01*
X48815Y-39951D01*
X48795Y-39918D01*
X48754Y-39886D01*
X48673Y-39886D01*
X48632Y-39918D01*
X48612Y-39951D01*
X48591Y-40016D01*
G54D11*
G54D19*
X42461Y-40214D02*
X42442Y-40242D01*
X42385Y-40271D01*
X42347Y-40271D01*
X42290Y-40242D01*
X42252Y-40185D01*
X42233Y-40128D01*
X42214Y-40014D01*
X42214Y-39928D01*
X42233Y-39814D01*
X42252Y-39757D01*
X42290Y-39700D01*
X42347Y-39671D01*
X42385Y-39671D01*
X42442Y-39700D01*
X42461Y-39728D01*
X42709Y-39671D02*
X42785Y-39671D01*
X42823Y-39700D01*
X42861Y-39757D01*
X42880Y-39871D01*
X42880Y-40071D01*
X42861Y-40185D01*
X42823Y-40242D01*
X42785Y-40271D01*
X42709Y-40271D01*
X42671Y-40242D01*
X42633Y-40185D01*
X42614Y-40071D01*
X42614Y-39871D01*
X42633Y-39757D01*
X42671Y-39700D01*
X42709Y-39671D01*
X43052Y-40271D02*
X43052Y-39671D01*
X43280Y-40271D01*
X43280Y-39671D01*
X43471Y-40271D02*
X43471Y-39671D01*
X43700Y-40271D01*
X43700Y-39671D01*
X43795Y-40328D02*
X44100Y-40328D01*
X44404Y-40271D02*
X44176Y-40271D01*
X44290Y-40271D02*
X44290Y-39671D01*
X44252Y-39757D01*
X44214Y-39814D01*
X44176Y-39842D01*
X44652Y-39671D02*
X44690Y-39671D01*
X44728Y-39700D01*
X44747Y-39728D01*
X44766Y-39785D01*
X44785Y-39900D01*
X44785Y-40042D01*
X44766Y-40157D01*
X44747Y-40214D01*
X44728Y-40242D01*
X44690Y-40271D01*
X44652Y-40271D01*
X44614Y-40242D01*
X44595Y-40214D01*
X44576Y-40157D01*
X44557Y-40042D01*
X44557Y-39900D01*
X44576Y-39785D01*
X44595Y-39728D01*
X44614Y-39700D01*
X44652Y-39671D01*
G54D11*
G54D18*
X38684Y-38808D02*
X38684Y-38127D01*
X38847Y-38127D01*
X38887Y-38159D01*
X38908Y-38191D01*
X38928Y-38256D01*
X38928Y-38354D01*
X38908Y-38418D01*
X38887Y-38451D01*
X38847Y-38483D01*
X38684Y-38483D01*
X39071Y-38127D02*
X39356Y-38127D01*
X39173Y-38808D01*
G54D11*
G54D18*
X38184Y-44308D02*
X38184Y-43627D01*
X38347Y-43627D01*
X38387Y-43659D01*
X38408Y-43691D01*
X38428Y-43756D01*
X38428Y-43854D01*
X38408Y-43918D01*
X38387Y-43951D01*
X38347Y-43983D01*
X38184Y-43983D01*
X38673Y-43918D02*
X38632Y-43886D01*
X38612Y-43854D01*
X38591Y-43789D01*
X38591Y-43756D01*
X38612Y-43691D01*
X38632Y-43659D01*
X38673Y-43627D01*
X38754Y-43627D01*
X38795Y-43659D01*
X38815Y-43691D01*
X38836Y-43756D01*
X38836Y-43789D01*
X38815Y-43854D01*
X38795Y-43886D01*
X38754Y-43918D01*
X38673Y-43918D01*
X38632Y-43951D01*
X38612Y-43983D01*
X38591Y-44048D01*
X38591Y-44178D01*
X38612Y-44243D01*
X38632Y-44275D01*
X38673Y-44308D01*
X38754Y-44308D01*
X38795Y-44275D01*
X38815Y-44243D01*
X38836Y-44178D01*
X38836Y-44048D01*
X38815Y-43983D01*
X38795Y-43951D01*
X38754Y-43918D01*
G54D11*
G54D19*
X42152Y-44214D02*
X42133Y-44242D01*
X42076Y-44271D01*
X42038Y-44271D01*
X41980Y-44242D01*
X41942Y-44185D01*
X41923Y-44128D01*
X41904Y-44014D01*
X41904Y-43928D01*
X41923Y-43814D01*
X41942Y-43757D01*
X41980Y-43700D01*
X42038Y-43671D01*
X42076Y-43671D01*
X42133Y-43700D01*
X42152Y-43728D01*
X42400Y-43671D02*
X42476Y-43671D01*
X42514Y-43700D01*
X42552Y-43757D01*
X42571Y-43871D01*
X42571Y-44071D01*
X42552Y-44185D01*
X42514Y-44242D01*
X42476Y-44271D01*
X42400Y-44271D01*
X42361Y-44242D01*
X42323Y-44185D01*
X42304Y-44071D01*
X42304Y-43871D01*
X42323Y-43757D01*
X42361Y-43700D01*
X42400Y-43671D01*
X42742Y-44271D02*
X42742Y-43671D01*
X42971Y-44271D01*
X42971Y-43671D01*
X43161Y-44271D02*
X43161Y-43671D01*
X43390Y-44271D01*
X43390Y-43671D01*
X43485Y-44328D02*
X43790Y-44328D01*
X43942Y-43928D02*
X43904Y-43900D01*
X43885Y-43871D01*
X43866Y-43814D01*
X43866Y-43785D01*
X43885Y-43728D01*
X43904Y-43700D01*
X43942Y-43671D01*
X44019Y-43671D01*
X44057Y-43700D01*
X44076Y-43728D01*
X44095Y-43785D01*
X44095Y-43814D01*
X44076Y-43871D01*
X44057Y-43900D01*
X44019Y-43928D01*
X43942Y-43928D01*
X43904Y-43957D01*
X43885Y-43985D01*
X43866Y-44042D01*
X43866Y-44157D01*
X43885Y-44214D01*
X43904Y-44242D01*
X43942Y-44271D01*
X44019Y-44271D01*
X44057Y-44242D01*
X44076Y-44214D01*
X44095Y-44157D01*
X44095Y-44042D01*
X44076Y-43985D01*
X44057Y-43957D01*
X44019Y-43928D01*
G54D11*
G54D14*
X49204Y-35680D02*
X49204Y-35280D01*
X49357Y-35280D01*
X49395Y-35300D01*
X49414Y-35319D01*
X49433Y-35357D01*
X49433Y-35414D01*
X49414Y-35452D01*
X49395Y-35471D01*
X49357Y-35490D01*
X49204Y-35490D01*
X49623Y-35680D02*
X49700Y-35680D01*
X49738Y-35661D01*
X49757Y-35642D01*
X49795Y-35585D01*
X49814Y-35509D01*
X49814Y-35357D01*
X49795Y-35319D01*
X49776Y-35300D01*
X49738Y-35280D01*
X49661Y-35280D01*
X49623Y-35300D01*
X49604Y-35319D01*
X49585Y-35357D01*
X49585Y-35452D01*
X49604Y-35490D01*
X49623Y-35509D01*
X49661Y-35528D01*
X49738Y-35528D01*
X49776Y-35509D01*
X49795Y-35490D01*
X49814Y-35452D01*
G54D18*
X43230Y-52808D02*
X43230Y-52127D01*
X43393Y-52127D01*
X43434Y-52159D01*
X43454Y-52191D01*
X43474Y-52256D01*
X43474Y-52354D01*
X43454Y-52418D01*
X43434Y-52451D01*
X43393Y-52483D01*
X43230Y-52483D01*
X43882Y-52808D02*
X43637Y-52808D01*
X43760Y-52808D02*
X43760Y-52127D01*
X43719Y-52224D01*
X43678Y-52289D01*
X43637Y-52321D01*
X44147Y-52127D02*
X44188Y-52127D01*
X44228Y-52159D01*
X44249Y-52191D01*
X44269Y-52256D01*
X44290Y-52386D01*
X44290Y-52548D01*
X44269Y-52678D01*
X44249Y-52743D01*
X44228Y-52775D01*
X44188Y-52808D01*
X44147Y-52808D01*
X44106Y-52775D01*
X44086Y-52743D01*
X44065Y-52678D01*
X44045Y-52548D01*
X44045Y-52386D01*
X44065Y-52256D01*
X44086Y-52191D01*
X44106Y-52159D01*
X44147Y-52127D01*
G54D11*
G54D18*
X63480Y-35808D02*
X63480Y-35127D01*
X63643Y-35127D01*
X63684Y-35159D01*
X63704Y-35191D01*
X63724Y-35256D01*
X63724Y-35354D01*
X63704Y-35418D01*
X63684Y-35451D01*
X63643Y-35483D01*
X63480Y-35483D01*
X64132Y-35808D02*
X63887Y-35808D01*
X64010Y-35808D02*
X64010Y-35127D01*
X63969Y-35224D01*
X63928Y-35289D01*
X63887Y-35321D01*
X64540Y-35808D02*
X64295Y-35808D01*
X64417Y-35808D02*
X64417Y-35127D01*
X64377Y-35224D01*
X64336Y-35289D01*
X64295Y-35321D01*
G54D11*
G54D18*
X64980Y-32808D02*
X64980Y-32127D01*
X65143Y-32127D01*
X65184Y-32159D01*
X65204Y-32191D01*
X65224Y-32256D01*
X65224Y-32354D01*
X65204Y-32418D01*
X65184Y-32451D01*
X65143Y-32483D01*
X64980Y-32483D01*
X65632Y-32808D02*
X65387Y-32808D01*
X65510Y-32808D02*
X65510Y-32127D01*
X65469Y-32224D01*
X65428Y-32289D01*
X65387Y-32321D01*
X65795Y-32191D02*
X65815Y-32159D01*
X65856Y-32127D01*
X65958Y-32127D01*
X65999Y-32159D01*
X66019Y-32191D01*
X66040Y-32256D01*
X66040Y-32321D01*
X66019Y-32418D01*
X65775Y-32808D01*
X66040Y-32808D01*
G54D11*
G54D18*
X68980Y-29308D02*
X68980Y-28627D01*
X69143Y-28627D01*
X69184Y-28659D01*
X69204Y-28691D01*
X69224Y-28756D01*
X69224Y-28854D01*
X69204Y-28918D01*
X69184Y-28951D01*
X69143Y-28983D01*
X68980Y-28983D01*
X69632Y-29308D02*
X69387Y-29308D01*
X69510Y-29308D02*
X69510Y-28627D01*
X69469Y-28724D01*
X69428Y-28789D01*
X69387Y-28821D01*
X69775Y-28627D02*
X70040Y-28627D01*
X69897Y-28886D01*
X69958Y-28886D01*
X69999Y-28918D01*
X70019Y-28951D01*
X70040Y-29016D01*
X70040Y-29178D01*
X70019Y-29243D01*
X69999Y-29275D01*
X69958Y-29308D01*
X69836Y-29308D01*
X69795Y-29275D01*
X69775Y-29243D01*
G54D11*
G54D18*
X55808Y-37019D02*
X55127Y-37019D01*
X55127Y-36856D01*
X55159Y-36815D01*
X55191Y-36795D01*
X55256Y-36775D01*
X55354Y-36775D01*
X55418Y-36795D01*
X55451Y-36815D01*
X55483Y-36856D01*
X55483Y-37019D01*
X55808Y-36367D02*
X55808Y-36612D01*
X55808Y-36489D02*
X55127Y-36489D01*
X55224Y-36530D01*
X55289Y-36571D01*
X55321Y-36612D01*
X55354Y-36000D02*
X55808Y-36000D01*
X55094Y-36102D02*
X55581Y-36204D01*
X55581Y-35939D01*
G54D11*
G54D18*
X37230Y-52808D02*
X37230Y-52127D01*
X37393Y-52127D01*
X37434Y-52159D01*
X37454Y-52191D01*
X37474Y-52256D01*
X37474Y-52354D01*
X37454Y-52418D01*
X37434Y-52451D01*
X37393Y-52483D01*
X37230Y-52483D01*
X37882Y-52808D02*
X37637Y-52808D01*
X37760Y-52808D02*
X37760Y-52127D01*
X37719Y-52224D01*
X37678Y-52289D01*
X37637Y-52321D01*
X38269Y-52127D02*
X38065Y-52127D01*
X38045Y-52451D01*
X38065Y-52418D01*
X38106Y-52386D01*
X38208Y-52386D01*
X38249Y-52418D01*
X38269Y-52451D01*
X38290Y-52516D01*
X38290Y-52678D01*
X38269Y-52743D01*
X38249Y-52775D01*
X38208Y-52808D01*
X38106Y-52808D01*
X38065Y-52775D01*
X38045Y-52743D01*
G54D11*
G54D18*
X49230Y-52808D02*
X49230Y-52127D01*
X49393Y-52127D01*
X49434Y-52159D01*
X49454Y-52191D01*
X49474Y-52256D01*
X49474Y-52354D01*
X49454Y-52418D01*
X49434Y-52451D01*
X49393Y-52483D01*
X49230Y-52483D01*
X49882Y-52808D02*
X49637Y-52808D01*
X49760Y-52808D02*
X49760Y-52127D01*
X49719Y-52224D01*
X49678Y-52289D01*
X49637Y-52321D01*
X50249Y-52127D02*
X50167Y-52127D01*
X50127Y-52159D01*
X50106Y-52191D01*
X50065Y-52289D01*
X50045Y-52418D01*
X50045Y-52678D01*
X50065Y-52743D01*
X50086Y-52775D01*
X50127Y-52808D01*
X50208Y-52808D01*
X50249Y-52775D01*
X50269Y-52743D01*
X50290Y-52678D01*
X50290Y-52516D01*
X50269Y-52451D01*
X50249Y-52418D01*
X50208Y-52386D01*
X50127Y-52386D01*
X50086Y-52418D01*
X50065Y-52451D01*
X50045Y-52516D01*
G54D11*
G54D14*
X40719Y-49038D02*
X40700Y-49076D01*
X40661Y-49114D01*
X40604Y-49171D01*
X40585Y-49209D01*
X40585Y-49247D01*
X40680Y-49228D02*
X40661Y-49266D01*
X40623Y-49304D01*
X40547Y-49323D01*
X40414Y-49323D01*
X40338Y-49304D01*
X40300Y-49266D01*
X40280Y-49228D01*
X40280Y-49152D01*
X40300Y-49114D01*
X40338Y-49076D01*
X40414Y-49057D01*
X40547Y-49057D01*
X40623Y-49076D01*
X40661Y-49114D01*
X40680Y-49152D01*
X40680Y-49228D01*
X40680Y-48676D02*
X40680Y-48904D01*
X40680Y-48790D02*
X40280Y-48790D01*
X40338Y-48828D01*
X40376Y-48866D01*
X40395Y-48904D01*
X36971Y-49742D02*
X36990Y-49685D01*
X37009Y-49666D01*
X37047Y-49647D01*
X37104Y-49647D01*
X37142Y-49666D01*
X37161Y-49685D01*
X37180Y-49723D01*
X37180Y-49876D01*
X36780Y-49876D01*
X36780Y-49742D01*
X36800Y-49704D01*
X36819Y-49685D01*
X36857Y-49666D01*
X36895Y-49666D01*
X36933Y-49685D01*
X36952Y-49704D01*
X36971Y-49742D01*
X36971Y-49876D01*
X37142Y-49247D02*
X37161Y-49266D01*
X37180Y-49323D01*
X37180Y-49361D01*
X37161Y-49419D01*
X37123Y-49457D01*
X37085Y-49476D01*
X37009Y-49495D01*
X36952Y-49495D01*
X36876Y-49476D01*
X36838Y-49457D01*
X36800Y-49419D01*
X36780Y-49361D01*
X36780Y-49323D01*
X36800Y-49266D01*
X36819Y-49247D01*
X36780Y-48885D02*
X36780Y-49076D01*
X36971Y-49095D01*
X36952Y-49076D01*
X36933Y-49038D01*
X36933Y-48942D01*
X36952Y-48904D01*
X36971Y-48885D01*
X37009Y-48866D01*
X37104Y-48866D01*
X37142Y-48885D01*
X37161Y-48904D01*
X37180Y-48942D01*
X37180Y-49038D01*
X37161Y-49076D01*
X37142Y-49095D01*
X36914Y-48523D02*
X37180Y-48523D01*
X36761Y-48619D02*
X37047Y-48714D01*
X37047Y-48466D01*
X36780Y-48352D02*
X36780Y-48085D01*
X37180Y-48257D01*
X42461Y-45719D02*
X42423Y-45700D01*
X42385Y-45661D01*
X42328Y-45604D01*
X42290Y-45585D01*
X42252Y-45585D01*
X42271Y-45680D02*
X42233Y-45661D01*
X42195Y-45623D01*
X42176Y-45547D01*
X42176Y-45414D01*
X42195Y-45338D01*
X42233Y-45300D01*
X42271Y-45280D01*
X42347Y-45280D01*
X42385Y-45300D01*
X42423Y-45338D01*
X42442Y-45414D01*
X42442Y-45547D01*
X42423Y-45623D01*
X42385Y-45661D01*
X42347Y-45680D01*
X42271Y-45680D01*
X42595Y-45319D02*
X42614Y-45300D01*
X42652Y-45280D01*
X42747Y-45280D01*
X42785Y-45300D01*
X42804Y-45319D01*
X42823Y-45357D01*
X42823Y-45395D01*
X42804Y-45452D01*
X42576Y-45680D01*
X42823Y-45680D01*
X41757Y-48971D02*
X41814Y-48990D01*
X41833Y-49009D01*
X41852Y-49047D01*
X41852Y-49104D01*
X41833Y-49142D01*
X41814Y-49161D01*
X41776Y-49180D01*
X41623Y-49180D01*
X41623Y-48780D01*
X41757Y-48780D01*
X41795Y-48800D01*
X41814Y-48819D01*
X41833Y-48857D01*
X41833Y-48895D01*
X41814Y-48933D01*
X41795Y-48952D01*
X41757Y-48971D01*
X41623Y-48971D01*
X42252Y-49142D02*
X42233Y-49161D01*
X42176Y-49180D01*
X42138Y-49180D01*
X42080Y-49161D01*
X42042Y-49123D01*
X42023Y-49085D01*
X42004Y-49009D01*
X42004Y-48952D01*
X42023Y-48876D01*
X42042Y-48838D01*
X42080Y-48800D01*
X42138Y-48780D01*
X42176Y-48780D01*
X42233Y-48800D01*
X42252Y-48819D01*
X42614Y-48780D02*
X42423Y-48780D01*
X42404Y-48971D01*
X42423Y-48952D01*
X42461Y-48933D01*
X42557Y-48933D01*
X42595Y-48952D01*
X42614Y-48971D01*
X42633Y-49009D01*
X42633Y-49104D01*
X42614Y-49142D01*
X42595Y-49161D01*
X42557Y-49180D01*
X42461Y-49180D01*
X42423Y-49161D01*
X42404Y-49142D01*
X42976Y-48914D02*
X42976Y-49180D01*
X42880Y-48761D02*
X42785Y-49047D01*
X43033Y-49047D01*
X43147Y-48780D02*
X43414Y-48780D01*
X43242Y-49180D01*
X63719Y-37538D02*
X63700Y-37576D01*
X63661Y-37614D01*
X63604Y-37671D01*
X63585Y-37709D01*
X63585Y-37747D01*
X63680Y-37728D02*
X63661Y-37766D01*
X63623Y-37804D01*
X63547Y-37823D01*
X63414Y-37823D01*
X63338Y-37804D01*
X63300Y-37766D01*
X63280Y-37728D01*
X63280Y-37652D01*
X63300Y-37614D01*
X63338Y-37576D01*
X63414Y-37557D01*
X63547Y-37557D01*
X63623Y-37576D01*
X63661Y-37614D01*
X63680Y-37652D01*
X63680Y-37728D01*
X63280Y-37423D02*
X63280Y-37176D01*
X63433Y-37309D01*
X63433Y-37252D01*
X63452Y-37214D01*
X63471Y-37195D01*
X63509Y-37176D01*
X63604Y-37176D01*
X63642Y-37195D01*
X63661Y-37214D01*
X63680Y-37252D01*
X63680Y-37366D01*
X63661Y-37404D01*
X63642Y-37423D01*
X59971Y-38242D02*
X59990Y-38185D01*
X60009Y-38166D01*
X60047Y-38147D01*
X60104Y-38147D01*
X60142Y-38166D01*
X60161Y-38185D01*
X60180Y-38223D01*
X60180Y-38376D01*
X59780Y-38376D01*
X59780Y-38242D01*
X59800Y-38204D01*
X59819Y-38185D01*
X59857Y-38166D01*
X59895Y-38166D01*
X59933Y-38185D01*
X59952Y-38204D01*
X59971Y-38242D01*
X59971Y-38376D01*
X60142Y-37747D02*
X60161Y-37766D01*
X60180Y-37823D01*
X60180Y-37861D01*
X60161Y-37919D01*
X60123Y-37957D01*
X60085Y-37976D01*
X60009Y-37995D01*
X59952Y-37995D01*
X59876Y-37976D01*
X59838Y-37957D01*
X59800Y-37919D01*
X59780Y-37861D01*
X59780Y-37823D01*
X59800Y-37766D01*
X59819Y-37747D01*
X59780Y-37385D02*
X59780Y-37576D01*
X59971Y-37595D01*
X59952Y-37576D01*
X59933Y-37538D01*
X59933Y-37442D01*
X59952Y-37404D01*
X59971Y-37385D01*
X60009Y-37366D01*
X60104Y-37366D01*
X60142Y-37385D01*
X60161Y-37404D01*
X60180Y-37442D01*
X60180Y-37538D01*
X60161Y-37576D01*
X60142Y-37595D01*
X59914Y-37023D02*
X60180Y-37023D01*
X59761Y-37119D02*
X60047Y-37214D01*
X60047Y-36966D01*
X59780Y-36852D02*
X59780Y-36585D01*
X60180Y-36757D01*
X62461Y-28719D02*
X62423Y-28700D01*
X62385Y-28661D01*
X62328Y-28604D01*
X62290Y-28585D01*
X62252Y-28585D01*
X62271Y-28680D02*
X62233Y-28661D01*
X62195Y-28623D01*
X62176Y-28547D01*
X62176Y-28414D01*
X62195Y-28338D01*
X62233Y-28300D01*
X62271Y-28280D01*
X62347Y-28280D01*
X62385Y-28300D01*
X62423Y-28338D01*
X62442Y-28414D01*
X62442Y-28547D01*
X62423Y-28623D01*
X62385Y-28661D01*
X62347Y-28680D01*
X62271Y-28680D01*
X62785Y-28414D02*
X62785Y-28680D01*
X62690Y-28261D02*
X62595Y-28547D01*
X62842Y-28547D01*
X61757Y-31971D02*
X61814Y-31990D01*
X61833Y-32009D01*
X61852Y-32047D01*
X61852Y-32104D01*
X61833Y-32142D01*
X61814Y-32161D01*
X61776Y-32180D01*
X61623Y-32180D01*
X61623Y-31780D01*
X61757Y-31780D01*
X61795Y-31800D01*
X61814Y-31819D01*
X61833Y-31857D01*
X61833Y-31895D01*
X61814Y-31933D01*
X61795Y-31952D01*
X61757Y-31971D01*
X61623Y-31971D01*
X62252Y-32142D02*
X62233Y-32161D01*
X62176Y-32180D01*
X62138Y-32180D01*
X62080Y-32161D01*
X62042Y-32123D01*
X62023Y-32085D01*
X62004Y-32009D01*
X62004Y-31952D01*
X62023Y-31876D01*
X62042Y-31838D01*
X62080Y-31800D01*
X62138Y-31780D01*
X62176Y-31780D01*
X62233Y-31800D01*
X62252Y-31819D01*
X62614Y-31780D02*
X62423Y-31780D01*
X62404Y-31971D01*
X62423Y-31952D01*
X62461Y-31933D01*
X62557Y-31933D01*
X62595Y-31952D01*
X62614Y-31971D01*
X62633Y-32009D01*
X62633Y-32104D01*
X62614Y-32142D01*
X62595Y-32161D01*
X62557Y-32180D01*
X62461Y-32180D01*
X62423Y-32161D01*
X62404Y-32142D01*
X62976Y-31914D02*
X62976Y-32180D01*
X62880Y-31761D02*
X62785Y-32047D01*
X63033Y-32047D01*
X63147Y-31780D02*
X63414Y-31780D01*
X63242Y-32180D01*
G54D20*
X36226Y-34566D02*
X35988Y-34699D01*
X36226Y-34795D02*
X35726Y-34795D01*
X35726Y-34642D01*
X35750Y-34604D01*
X35773Y-34585D01*
X35821Y-34566D01*
X35892Y-34566D01*
X35940Y-34585D01*
X35964Y-34604D01*
X35988Y-34642D01*
X35988Y-34795D01*
X36226Y-34185D02*
X36226Y-34414D01*
X36226Y-34299D02*
X35726Y-34299D01*
X35797Y-34338D01*
X35845Y-34376D01*
X35869Y-34414D01*
X56726Y-45566D02*
X56488Y-45699D01*
X56726Y-45795D02*
X56226Y-45795D01*
X56226Y-45642D01*
X56250Y-45604D01*
X56273Y-45585D01*
X56321Y-45566D01*
X56392Y-45566D01*
X56440Y-45585D01*
X56464Y-45604D01*
X56488Y-45642D01*
X56488Y-45795D01*
X56273Y-45414D02*
X56250Y-45395D01*
X56226Y-45357D01*
X56226Y-45261D01*
X56250Y-45223D01*
X56273Y-45204D01*
X56321Y-45185D01*
X56369Y-45185D01*
X56440Y-45204D01*
X56726Y-45433D01*
X56726Y-45185D01*
X55726Y-45566D02*
X55488Y-45699D01*
X55726Y-45795D02*
X55226Y-45795D01*
X55226Y-45642D01*
X55250Y-45604D01*
X55273Y-45585D01*
X55321Y-45566D01*
X55392Y-45566D01*
X55440Y-45585D01*
X55464Y-45604D01*
X55488Y-45642D01*
X55488Y-45795D01*
X55226Y-45433D02*
X55226Y-45185D01*
X55416Y-45319D01*
X55416Y-45261D01*
X55440Y-45223D01*
X55464Y-45204D01*
X55511Y-45185D01*
X55630Y-45185D01*
X55678Y-45204D01*
X55702Y-45223D01*
X55726Y-45261D01*
X55726Y-45376D01*
X55702Y-45414D01*
X55678Y-45433D01*
X54726Y-45566D02*
X54488Y-45699D01*
X54726Y-45795D02*
X54226Y-45795D01*
X54226Y-45642D01*
X54250Y-45604D01*
X54273Y-45585D01*
X54321Y-45566D01*
X54392Y-45566D01*
X54440Y-45585D01*
X54464Y-45604D01*
X54488Y-45642D01*
X54488Y-45795D01*
X54392Y-45223D02*
X54726Y-45223D01*
X54202Y-45319D02*
X54559Y-45414D01*
X54559Y-45166D01*
X53726Y-45566D02*
X53488Y-45699D01*
X53726Y-45795D02*
X53226Y-45795D01*
X53226Y-45642D01*
X53250Y-45604D01*
X53273Y-45585D01*
X53321Y-45566D01*
X53392Y-45566D01*
X53440Y-45585D01*
X53464Y-45604D01*
X53488Y-45642D01*
X53488Y-45795D01*
X53226Y-45204D02*
X53226Y-45395D01*
X53464Y-45414D01*
X53440Y-45395D01*
X53416Y-45357D01*
X53416Y-45261D01*
X53440Y-45223D01*
X53464Y-45204D01*
X53511Y-45185D01*
X53630Y-45185D01*
X53678Y-45204D01*
X53702Y-45223D01*
X53726Y-45261D01*
X53726Y-45357D01*
X53702Y-45395D01*
X53678Y-45414D01*
X36226Y-46066D02*
X35988Y-46199D01*
X36226Y-46295D02*
X35726Y-46295D01*
X35726Y-46142D01*
X35750Y-46104D01*
X35773Y-46085D01*
X35821Y-46066D01*
X35892Y-46066D01*
X35940Y-46085D01*
X35964Y-46104D01*
X35988Y-46142D01*
X35988Y-46295D01*
X35726Y-45723D02*
X35726Y-45799D01*
X35750Y-45838D01*
X35773Y-45857D01*
X35845Y-45895D01*
X35940Y-45914D01*
X36130Y-45914D01*
X36178Y-45895D01*
X36202Y-45876D01*
X36226Y-45838D01*
X36226Y-45761D01*
X36202Y-45723D01*
X36178Y-45704D01*
X36130Y-45685D01*
X36011Y-45685D01*
X35964Y-45704D01*
X35940Y-45723D01*
X35916Y-45761D01*
X35916Y-45838D01*
X35940Y-45876D01*
X35964Y-45895D01*
X36011Y-45914D01*
X38433Y-39226D02*
X38300Y-38988D01*
X38204Y-39226D02*
X38204Y-38726D01*
X38357Y-38726D01*
X38395Y-38750D01*
X38414Y-38773D01*
X38433Y-38821D01*
X38433Y-38892D01*
X38414Y-38940D01*
X38395Y-38964D01*
X38357Y-38988D01*
X38204Y-38988D01*
X38566Y-38726D02*
X38833Y-38726D01*
X38661Y-39226D01*
X41933Y-32726D02*
X41800Y-32488D01*
X41704Y-32726D02*
X41704Y-32226D01*
X41857Y-32226D01*
X41895Y-32250D01*
X41914Y-32273D01*
X41933Y-32321D01*
X41933Y-32392D01*
X41914Y-32440D01*
X41895Y-32464D01*
X41857Y-32488D01*
X41704Y-32488D01*
X42161Y-32440D02*
X42123Y-32416D01*
X42104Y-32392D01*
X42085Y-32345D01*
X42085Y-32321D01*
X42104Y-32273D01*
X42123Y-32250D01*
X42161Y-32226D01*
X42238Y-32226D01*
X42276Y-32250D01*
X42295Y-32273D01*
X42314Y-32321D01*
X42314Y-32345D01*
X42295Y-32392D01*
X42276Y-32416D01*
X42238Y-32440D01*
X42161Y-32440D01*
X42123Y-32464D01*
X42104Y-32488D01*
X42085Y-32535D01*
X42085Y-32630D01*
X42104Y-32678D01*
X42123Y-32702D01*
X42161Y-32726D01*
X42238Y-32726D01*
X42276Y-32702D01*
X42295Y-32678D01*
X42314Y-32630D01*
X42314Y-32535D01*
X42295Y-32488D01*
X42276Y-32464D01*
X42238Y-32440D01*
X64433Y-39226D02*
X64300Y-38988D01*
X64204Y-39226D02*
X64204Y-38726D01*
X64357Y-38726D01*
X64395Y-38750D01*
X64414Y-38773D01*
X64433Y-38821D01*
X64433Y-38892D01*
X64414Y-38940D01*
X64395Y-38964D01*
X64357Y-38988D01*
X64204Y-38988D01*
X64623Y-39226D02*
X64700Y-39226D01*
X64738Y-39202D01*
X64757Y-39178D01*
X64795Y-39107D01*
X64814Y-39011D01*
X64814Y-38821D01*
X64795Y-38773D01*
X64776Y-38750D01*
X64738Y-38726D01*
X64661Y-38726D01*
X64623Y-38750D01*
X64604Y-38773D01*
X64585Y-38821D01*
X64585Y-38940D01*
X64604Y-38988D01*
X64623Y-39011D01*
X64661Y-39035D01*
X64738Y-39035D01*
X64776Y-39011D01*
X64795Y-38988D01*
X64814Y-38940D01*
X58226Y-35257D02*
X57988Y-35390D01*
X58226Y-35485D02*
X57726Y-35485D01*
X57726Y-35333D01*
X57750Y-35295D01*
X57773Y-35276D01*
X57821Y-35257D01*
X57892Y-35257D01*
X57940Y-35276D01*
X57964Y-35295D01*
X57988Y-35333D01*
X57988Y-35485D01*
X58226Y-34876D02*
X58226Y-35104D01*
X58226Y-34990D02*
X57726Y-34990D01*
X57797Y-35028D01*
X57845Y-35066D01*
X57869Y-35104D01*
X57726Y-34628D02*
X57726Y-34590D01*
X57750Y-34552D01*
X57773Y-34533D01*
X57821Y-34514D01*
X57916Y-34495D01*
X58035Y-34495D01*
X58130Y-34514D01*
X58178Y-34533D01*
X58202Y-34552D01*
X58226Y-34590D01*
X58226Y-34628D01*
X58202Y-34666D01*
X58178Y-34685D01*
X58130Y-34704D01*
X58035Y-34723D01*
X57916Y-34723D01*
X57821Y-34704D01*
X57773Y-34685D01*
X57750Y-34666D01*
X57726Y-34628D01*
X59726Y-36257D02*
X59488Y-36390D01*
X59726Y-36485D02*
X59226Y-36485D01*
X59226Y-36333D01*
X59250Y-36295D01*
X59273Y-36276D01*
X59321Y-36257D01*
X59392Y-36257D01*
X59440Y-36276D01*
X59464Y-36295D01*
X59488Y-36333D01*
X59488Y-36485D01*
X59726Y-35876D02*
X59726Y-36104D01*
X59726Y-35990D02*
X59226Y-35990D01*
X59297Y-36028D01*
X59345Y-36066D01*
X59369Y-36104D01*
X59726Y-35495D02*
X59726Y-35723D01*
X59726Y-35609D02*
X59226Y-35609D01*
X59297Y-35647D01*
X59345Y-35685D01*
X59369Y-35723D01*
X70726Y-34257D02*
X70488Y-34390D01*
X70726Y-34485D02*
X70226Y-34485D01*
X70226Y-34333D01*
X70250Y-34295D01*
X70273Y-34276D01*
X70321Y-34257D01*
X70392Y-34257D01*
X70440Y-34276D01*
X70464Y-34295D01*
X70488Y-34333D01*
X70488Y-34485D01*
X70726Y-33876D02*
X70726Y-34104D01*
X70726Y-33990D02*
X70226Y-33990D01*
X70297Y-34028D01*
X70345Y-34066D01*
X70369Y-34104D01*
X70273Y-33723D02*
X70250Y-33704D01*
X70226Y-33666D01*
X70226Y-33571D01*
X70250Y-33533D01*
X70273Y-33514D01*
X70321Y-33495D01*
X70369Y-33495D01*
X70440Y-33514D01*
X70726Y-33742D01*
X70726Y-33495D01*
X59726Y-31757D02*
X59488Y-31890D01*
X59726Y-31985D02*
X59226Y-31985D01*
X59226Y-31833D01*
X59250Y-31795D01*
X59273Y-31776D01*
X59321Y-31757D01*
X59392Y-31757D01*
X59440Y-31776D01*
X59464Y-31795D01*
X59488Y-31833D01*
X59488Y-31985D01*
X59726Y-31376D02*
X59726Y-31604D01*
X59726Y-31490D02*
X59226Y-31490D01*
X59297Y-31528D01*
X59345Y-31566D01*
X59369Y-31604D01*
X59226Y-31242D02*
X59226Y-30995D01*
X59416Y-31128D01*
X59416Y-31071D01*
X59440Y-31033D01*
X59464Y-31014D01*
X59511Y-30995D01*
X59630Y-30995D01*
X59678Y-31014D01*
X59702Y-31033D01*
X59726Y-31071D01*
X59726Y-31185D01*
X59702Y-31223D01*
X59678Y-31242D01*
X65742Y-30226D02*
X65609Y-29988D01*
X65514Y-30226D02*
X65514Y-29726D01*
X65666Y-29726D01*
X65704Y-29750D01*
X65723Y-29773D01*
X65742Y-29821D01*
X65742Y-29892D01*
X65723Y-29940D01*
X65704Y-29964D01*
X65666Y-29988D01*
X65514Y-29988D01*
X66123Y-30226D02*
X65895Y-30226D01*
X66009Y-30226D02*
X66009Y-29726D01*
X65971Y-29797D01*
X65933Y-29845D01*
X65895Y-29869D01*
X66466Y-29892D02*
X66466Y-30226D01*
X66371Y-29702D02*
X66276Y-30059D01*
X66523Y-30059D01*
G54D16*
X38657Y-34116D02*
X38657Y-34683D01*
X38678Y-34750D01*
X38700Y-34783D01*
X38742Y-34816D01*
X38828Y-34816D01*
X38871Y-34783D01*
X38892Y-34750D01*
X38914Y-34683D01*
X38914Y-34116D01*
X39364Y-34816D02*
X39107Y-34816D01*
X39235Y-34816D02*
X39235Y-34116D01*
X39192Y-34216D01*
X39150Y-34283D01*
X39107Y-34316D01*
G54D11*
G54D16*
X43532Y-35116D02*
X43832Y-35116D01*
X43639Y-35816D01*
X44196Y-35350D02*
X44196Y-35816D01*
X44089Y-35083D02*
X43982Y-35583D01*
X44260Y-35583D01*
X44432Y-35816D02*
X44432Y-35116D01*
X44432Y-35450D02*
X44689Y-35450D01*
X44689Y-35816D02*
X44689Y-35116D01*
X45160Y-35750D02*
X45139Y-35783D01*
X45075Y-35816D01*
X45032Y-35816D01*
X44967Y-35783D01*
X44925Y-35716D01*
X44903Y-35650D01*
X44882Y-35516D01*
X44882Y-35416D01*
X44903Y-35283D01*
X44925Y-35216D01*
X44967Y-35150D01*
X45032Y-35116D01*
X45075Y-35116D01*
X45139Y-35150D01*
X45160Y-35183D01*
X45332Y-35183D02*
X45353Y-35150D01*
X45396Y-35116D01*
X45503Y-35116D01*
X45546Y-35150D01*
X45567Y-35183D01*
X45589Y-35250D01*
X45589Y-35316D01*
X45567Y-35416D01*
X45310Y-35816D01*
X45589Y-35816D01*
X45975Y-35350D02*
X45975Y-35816D01*
X45867Y-35083D02*
X45760Y-35583D01*
X46039Y-35583D01*
X46425Y-35116D02*
X46210Y-35116D01*
X46189Y-35450D01*
X46210Y-35416D01*
X46253Y-35383D01*
X46360Y-35383D01*
X46403Y-35416D01*
X46425Y-35450D01*
X46446Y-35516D01*
X46446Y-35683D01*
X46425Y-35750D01*
X46403Y-35783D01*
X46360Y-35816D01*
X46253Y-35816D01*
X46210Y-35783D01*
X46189Y-35750D01*
G54D11*
G54D16*
X62157Y-33171D02*
X62157Y-33657D01*
X62178Y-33714D01*
X62200Y-33742D01*
X62242Y-33771D01*
X62328Y-33771D01*
X62371Y-33742D01*
X62392Y-33714D01*
X62414Y-33657D01*
X62414Y-33171D01*
X62607Y-33228D02*
X62628Y-33200D01*
X62671Y-33171D01*
X62778Y-33171D01*
X62821Y-33200D01*
X62842Y-33228D01*
X62864Y-33285D01*
X62864Y-33342D01*
X62842Y-33428D01*
X62585Y-33771D01*
X62864Y-33771D01*
G54D11*
G54D16*
X65271Y-34771D02*
X65057Y-34771D01*
X65057Y-34171D01*
X65400Y-34228D02*
X65421Y-34200D01*
X65464Y-34171D01*
X65571Y-34171D01*
X65614Y-34200D01*
X65635Y-34228D01*
X65657Y-34285D01*
X65657Y-34342D01*
X65635Y-34428D01*
X65378Y-34771D01*
X65657Y-34771D01*
X65871Y-34771D02*
X65957Y-34771D01*
X66000Y-34742D01*
X66021Y-34714D01*
X66064Y-34628D01*
X66085Y-34514D01*
X66085Y-34285D01*
X66064Y-34228D01*
X66042Y-34200D01*
X66000Y-34171D01*
X65914Y-34171D01*
X65871Y-34200D01*
X65850Y-34228D01*
X65828Y-34285D01*
X65828Y-34428D01*
X65850Y-34485D01*
X65871Y-34514D01*
X65914Y-34542D01*
X66000Y-34542D01*
X66042Y-34514D01*
X66064Y-34485D01*
X66085Y-34428D01*
X66235Y-34171D02*
X66514Y-34171D01*
X66364Y-34400D01*
X66428Y-34400D01*
X66471Y-34428D01*
X66492Y-34457D01*
X66514Y-34514D01*
X66514Y-34657D01*
X66492Y-34714D01*
X66471Y-34742D01*
X66428Y-34771D01*
X66300Y-34771D01*
X66257Y-34742D01*
X66235Y-34714D01*
X66707Y-34771D02*
X66707Y-34171D01*
X66814Y-34171D01*
X66878Y-34200D01*
X66921Y-34257D01*
X66942Y-34314D01*
X66964Y-34428D01*
X66964Y-34514D01*
X66942Y-34628D01*
X66921Y-34685D01*
X66878Y-34742D01*
X66814Y-34771D01*
X66707Y-34771D01*
G54D11*
G54D18*
X44653Y-44627D02*
X44938Y-45308D01*
X44938Y-44627D02*
X44653Y-45308D01*
X45326Y-45308D02*
X45081Y-45308D01*
X45203Y-45308D02*
X45203Y-44627D01*
X45163Y-44724D01*
X45122Y-44789D01*
X45081Y-44821D01*
G54D11*
M02*
