G04 (created by PCBNEW (2013-mar-13)-testing) date Tue 25 Feb 2014 10:26:10 PM GET*
%MOIN*%
G04 Gerber Fmt 3.4, Leading zero omitted, Abs format*
%FSLAX34Y34*%
G01*
G70*
G90*
G04 APERTURE LIST*
%ADD10C,0.005906*%
%ADD11R,0.060000X0.060000*%
%ADD12C,0.060000*%
%ADD13R,0.055000X0.055000*%
%ADD14C,0.055000*%
%ADD15C,0.010000*%
%ADD16C,0.022835*%
%ADD17C,0.045669*%
G04 APERTURE END LIST*
G54D10*
G54D11*
X46750Y-30750D03*
G54D12*
X46750Y-29750D03*
X47750Y-30750D03*
X47750Y-29750D03*
X48750Y-30750D03*
X48750Y-29750D03*
X49750Y-30750D03*
X49750Y-29750D03*
X50750Y-30750D03*
X50750Y-29750D03*
X51750Y-30750D03*
X51750Y-29750D03*
X52750Y-30750D03*
X52750Y-29750D03*
X53750Y-30750D03*
X53750Y-29750D03*
X54750Y-30750D03*
X54750Y-29750D03*
X55750Y-30750D03*
X55750Y-29750D03*
X56750Y-30750D03*
X56750Y-29750D03*
X57750Y-30750D03*
X57750Y-29750D03*
X58750Y-30750D03*
X58750Y-29750D03*
G54D13*
X55250Y-46250D03*
G54D14*
X56250Y-46250D03*
G54D13*
X50750Y-52000D03*
G54D14*
X49750Y-52000D03*
X48750Y-52000D03*
X47750Y-52000D03*
X46750Y-52000D03*
X65250Y-41250D03*
X64250Y-41250D03*
G54D13*
X65250Y-39250D03*
G54D14*
X64250Y-39250D03*
X65250Y-38000D03*
X64250Y-38000D03*
X54250Y-37250D03*
X55250Y-37250D03*
X56500Y-48500D03*
X56500Y-49500D03*
X55250Y-48500D03*
X55250Y-49500D03*
X48250Y-43250D03*
X49250Y-43250D03*
X50250Y-43250D03*
X51250Y-43250D03*
X52250Y-43250D03*
X53250Y-43250D03*
X54250Y-43250D03*
X55250Y-43250D03*
X56250Y-43250D03*
X57250Y-43250D03*
X58250Y-43250D03*
X59250Y-43250D03*
X60250Y-43250D03*
G54D13*
X47250Y-43250D03*
G54D14*
X60250Y-40250D03*
X59250Y-40250D03*
X58250Y-40250D03*
X57250Y-40250D03*
X56250Y-40250D03*
X55250Y-40250D03*
X54250Y-40250D03*
X53250Y-40250D03*
X52250Y-40250D03*
X51250Y-40250D03*
X50250Y-40250D03*
X49250Y-40250D03*
X48250Y-40250D03*
X47250Y-40250D03*
G54D13*
X48250Y-46250D03*
G54D14*
X49250Y-46250D03*
X50250Y-46250D03*
G54D13*
X59250Y-49500D03*
G54D14*
X60250Y-49500D03*
X61250Y-49500D03*
G54D13*
X59250Y-48000D03*
G54D14*
X60250Y-48000D03*
X61250Y-48000D03*
G54D13*
X59250Y-46500D03*
G54D14*
X60250Y-46500D03*
X61250Y-46500D03*
G54D13*
X66750Y-50500D03*
G54D14*
X65750Y-50500D03*
G54D13*
X64750Y-50500D03*
G54D14*
X63750Y-50500D03*
G54D13*
X62750Y-50500D03*
G54D14*
X62750Y-49500D03*
X62750Y-48500D03*
X62750Y-47500D03*
X62750Y-46500D03*
G54D13*
X62750Y-43250D03*
G54D14*
X62750Y-42250D03*
X62750Y-41250D03*
X62750Y-40250D03*
X62750Y-39250D03*
X62750Y-38250D03*
X62750Y-37250D03*
X62750Y-36250D03*
G54D13*
X61250Y-38750D03*
G54D14*
X60250Y-38750D03*
X59250Y-38750D03*
X58250Y-38750D03*
X57250Y-38750D03*
X56250Y-38750D03*
X55250Y-38750D03*
X54250Y-38750D03*
X53250Y-38750D03*
X52250Y-38750D03*
G54D13*
X52250Y-37250D03*
G54D14*
X51250Y-37250D03*
X50250Y-37250D03*
X49250Y-37250D03*
X48250Y-37250D03*
X47250Y-37250D03*
G54D13*
X48250Y-44750D03*
G54D14*
X49250Y-44750D03*
X50250Y-44750D03*
X51250Y-44750D03*
X52250Y-44750D03*
X53250Y-44750D03*
X54250Y-44750D03*
X55250Y-44750D03*
G54D11*
X59250Y-37250D03*
G54D12*
X59250Y-36250D03*
X60250Y-37250D03*
X60250Y-36250D03*
X61250Y-37250D03*
X61250Y-36250D03*
G54D13*
X57250Y-52000D03*
G54D14*
X56250Y-52000D03*
X55250Y-52000D03*
X54250Y-52000D03*
X53250Y-52000D03*
G54D13*
X72750Y-34750D03*
G54D14*
X73750Y-34750D03*
G54D13*
X75250Y-29250D03*
G54D14*
X74250Y-29250D03*
G54D13*
X79750Y-30750D03*
G54D14*
X79750Y-29750D03*
G54D13*
X66750Y-38250D03*
G54D14*
X66750Y-37250D03*
X66750Y-36250D03*
X66750Y-35250D03*
X66750Y-34250D03*
X66750Y-33250D03*
X66750Y-32250D03*
G54D13*
X63250Y-52000D03*
G54D14*
X62250Y-52000D03*
X61250Y-52000D03*
X60250Y-52000D03*
X59250Y-52000D03*
G54D13*
X46500Y-48000D03*
G54D14*
X46500Y-49000D03*
X47500Y-49000D03*
G54D13*
X51250Y-48500D03*
G54D14*
X52250Y-48500D03*
X52250Y-47500D03*
G54D13*
X71750Y-37000D03*
G54D14*
X71750Y-38000D03*
X72750Y-38000D03*
G54D13*
X69250Y-28250D03*
G54D14*
X69250Y-29250D03*
X70250Y-29250D03*
X58500Y-31750D03*
X58500Y-35250D03*
X66750Y-43500D03*
X66750Y-47000D03*
X65750Y-43500D03*
X65750Y-47000D03*
X64750Y-43500D03*
X64750Y-47000D03*
X63750Y-43500D03*
X63750Y-47000D03*
X45500Y-47500D03*
X45500Y-44000D03*
X51000Y-38750D03*
X47500Y-38750D03*
X50750Y-36000D03*
X47250Y-36000D03*
X73750Y-36250D03*
X73750Y-39750D03*
X66750Y-28000D03*
X66750Y-31500D03*
X70250Y-33750D03*
X70250Y-37250D03*
X76500Y-28500D03*
X80000Y-28500D03*
X67750Y-31500D03*
X67750Y-28000D03*
X71000Y-28250D03*
X74500Y-28250D03*
G54D13*
X56750Y-32000D03*
G54D14*
X55750Y-32000D03*
X54750Y-32000D03*
X53750Y-32000D03*
X52750Y-32000D03*
X51750Y-32000D03*
X50750Y-32000D03*
X49750Y-32000D03*
X48750Y-32000D03*
X47750Y-32000D03*
X47750Y-35000D03*
X48750Y-35000D03*
X49750Y-35000D03*
X50750Y-35000D03*
X51750Y-35000D03*
X52750Y-35000D03*
X53750Y-35000D03*
X54750Y-35000D03*
X55750Y-35000D03*
X56750Y-35000D03*
G54D13*
X71250Y-33750D03*
G54D14*
X72250Y-33750D03*
X73250Y-33750D03*
X74250Y-33750D03*
X75250Y-33750D03*
X76250Y-33750D03*
X77250Y-33750D03*
X78250Y-33750D03*
X78250Y-30750D03*
X77250Y-30750D03*
X76250Y-30750D03*
X75250Y-30750D03*
X74250Y-30750D03*
X73250Y-30750D03*
X72250Y-30750D03*
X71250Y-30750D03*
G54D15*
X52250Y-40250D02*
X52250Y-40000D01*
X52250Y-37750D02*
X52250Y-37250D01*
X51750Y-38250D02*
X52250Y-37750D01*
X51750Y-39500D02*
X51750Y-38250D01*
X52250Y-40000D02*
X51750Y-39500D01*
X51250Y-40250D02*
X51250Y-39250D01*
X51500Y-37500D02*
X51250Y-37250D01*
X51500Y-39000D02*
X51500Y-37500D01*
X51250Y-39250D02*
X51500Y-39000D01*
X50250Y-40250D02*
X50250Y-37250D01*
X49250Y-40250D02*
X49250Y-37250D01*
X48250Y-40250D02*
X48250Y-37250D01*
X54250Y-38750D02*
X54250Y-37250D01*
X57250Y-38750D02*
X57250Y-37750D01*
X57750Y-37250D02*
X59250Y-37250D01*
X57250Y-37750D02*
X57750Y-37250D01*
X57250Y-40250D02*
X57250Y-38750D01*
X58250Y-38750D02*
X58250Y-38000D01*
X60750Y-36750D02*
X60250Y-36250D01*
X60750Y-37750D02*
X60750Y-36750D01*
X60500Y-38000D02*
X60750Y-37750D01*
X58250Y-38000D02*
X60500Y-38000D01*
X58250Y-40250D02*
X58250Y-38750D01*
G54D16*
X72750Y-34750D02*
X72750Y-34250D01*
X72750Y-34250D02*
X73250Y-33750D01*
X73750Y-34750D02*
X74250Y-34750D01*
X75750Y-34250D02*
X76250Y-33750D01*
X74750Y-34250D02*
X75750Y-34250D01*
X74250Y-34750D02*
X74750Y-34250D01*
X74250Y-29250D02*
X73250Y-30750D01*
G54D15*
X60250Y-43250D02*
X60750Y-43250D01*
X61250Y-42750D02*
X61250Y-38750D01*
X60750Y-43250D02*
X61250Y-42750D01*
X59250Y-46500D02*
X59250Y-44250D01*
X60250Y-41250D02*
X60250Y-40250D01*
X59750Y-41750D02*
X60250Y-41250D01*
X59750Y-43500D02*
X59750Y-41750D01*
X59500Y-43750D02*
X59750Y-43500D01*
X59500Y-44000D02*
X59500Y-43750D01*
X59250Y-44250D02*
X59500Y-44000D01*
X60250Y-40250D02*
X60250Y-38750D01*
X59250Y-49500D02*
X59000Y-49500D01*
X59250Y-41250D02*
X59250Y-40250D01*
X58750Y-41750D02*
X59250Y-41250D01*
X58750Y-49000D02*
X58750Y-41750D01*
X59000Y-49500D02*
X58750Y-49000D01*
X59250Y-40250D02*
X59250Y-38750D01*
X55250Y-36000D02*
X56000Y-36750D01*
X56000Y-36750D02*
X57000Y-36750D01*
X53750Y-34500D02*
X54000Y-34250D01*
X54000Y-34250D02*
X55000Y-34250D01*
X55000Y-34250D02*
X55250Y-34500D01*
X55250Y-34500D02*
X55250Y-36000D01*
X53750Y-35000D02*
X53750Y-34500D01*
X56250Y-38750D02*
X56250Y-37500D01*
X59750Y-36750D02*
X60250Y-37250D01*
X57000Y-36750D02*
X59750Y-36750D01*
X56250Y-37500D02*
X57000Y-36750D01*
X56250Y-40250D02*
X56250Y-38750D01*
X47250Y-43250D02*
X47250Y-43500D01*
X46250Y-48000D02*
X46500Y-48000D01*
X46000Y-47750D02*
X46250Y-48000D01*
X46000Y-44000D02*
X46000Y-47750D01*
X46250Y-43750D02*
X46000Y-44000D01*
X47000Y-43750D02*
X46250Y-43750D01*
X47250Y-43500D02*
X47000Y-43750D01*
X47250Y-43250D02*
X46000Y-43250D01*
X45500Y-43750D02*
X45500Y-44000D01*
X46000Y-43250D02*
X45500Y-43750D01*
X62750Y-40250D02*
X62250Y-40250D01*
X61750Y-37250D02*
X61250Y-37250D01*
X62000Y-37500D02*
X61750Y-37250D01*
X62000Y-40000D02*
X62000Y-37500D01*
X62250Y-40250D02*
X62000Y-40000D01*
X48250Y-44750D02*
X48250Y-46250D01*
X48250Y-43250D02*
X48250Y-44750D01*
X49250Y-44750D02*
X49250Y-43250D01*
X49250Y-46250D02*
X49250Y-44750D01*
X50250Y-43250D02*
X50250Y-44750D01*
X63750Y-47000D02*
X63750Y-50500D01*
X51250Y-43250D02*
X51250Y-44750D01*
X52250Y-43250D02*
X52250Y-44750D01*
X64750Y-47000D02*
X64750Y-50500D01*
X70250Y-33750D02*
X71250Y-33750D01*
G54D16*
X61250Y-46500D02*
X62750Y-46500D01*
G54D17*
X61250Y-36250D02*
X61250Y-35250D01*
X60500Y-35000D02*
X60500Y-30000D01*
X61000Y-35000D02*
X60500Y-35000D01*
X61250Y-35250D02*
X61000Y-35000D01*
X60500Y-30000D02*
X60500Y-30250D01*
X60500Y-30250D02*
X60500Y-30000D01*
X47750Y-32000D02*
X44500Y-32000D01*
G54D15*
X55250Y-38750D02*
X55250Y-37250D01*
G54D17*
X44500Y-33000D02*
X44500Y-38250D01*
X44500Y-32000D02*
X44500Y-33000D01*
X58750Y-30750D02*
X59750Y-30750D01*
X59750Y-30750D02*
X60500Y-30000D01*
X60500Y-30000D02*
X60500Y-30000D01*
X60500Y-30000D02*
X60500Y-28250D01*
X44500Y-28500D02*
X44500Y-32000D01*
X45000Y-28000D02*
X44500Y-28500D01*
X60250Y-28000D02*
X45000Y-28000D01*
X60500Y-28250D02*
X60250Y-28000D01*
X47750Y-32000D02*
X49750Y-32000D01*
X49750Y-32000D02*
X50750Y-32000D01*
G54D15*
X56500Y-49500D02*
X55250Y-49500D01*
G54D16*
X55250Y-49500D02*
X55250Y-52000D01*
X54500Y-51250D02*
X55000Y-51250D01*
X55000Y-51250D02*
X55250Y-51500D01*
X55250Y-51500D02*
X55250Y-52000D01*
X48750Y-52000D02*
X48750Y-51750D01*
X55250Y-51500D02*
X55250Y-52000D01*
X49000Y-51250D02*
X54500Y-51250D01*
X48750Y-51500D02*
X49000Y-51250D01*
X48750Y-51750D02*
X48750Y-51500D01*
X67500Y-42500D02*
X67500Y-52250D01*
X63000Y-50500D02*
X63750Y-50500D01*
X62750Y-50250D02*
X63000Y-50500D01*
X64250Y-38000D02*
X64250Y-39250D01*
X64250Y-41250D02*
X64250Y-42250D01*
X64500Y-42500D02*
X67500Y-42500D01*
X64250Y-42250D02*
X64500Y-42500D01*
X62750Y-47500D02*
X62750Y-46500D01*
X62750Y-50500D02*
X62750Y-50250D01*
X70250Y-40000D02*
X67750Y-40000D01*
X67750Y-40000D02*
X67500Y-40250D01*
X67500Y-40250D02*
X67500Y-42500D01*
X70250Y-37250D02*
X70250Y-40000D01*
X72750Y-39750D02*
X72500Y-40000D01*
X72500Y-40000D02*
X70250Y-40000D01*
X72750Y-39750D02*
X72750Y-38000D01*
X52250Y-47500D02*
X52500Y-47500D01*
X53250Y-49500D02*
X55250Y-49500D01*
X53000Y-49250D02*
X53250Y-49500D01*
X53000Y-48000D02*
X53000Y-49250D01*
X52500Y-47500D02*
X53000Y-48000D01*
X52250Y-47500D02*
X51750Y-47500D01*
X50500Y-46250D02*
X50250Y-46250D01*
X51750Y-47500D02*
X50500Y-46250D01*
X61250Y-48000D02*
X61250Y-49500D01*
X53250Y-40250D02*
X53250Y-39750D01*
X55250Y-39000D02*
X55250Y-38750D01*
X53250Y-39750D02*
X53500Y-39500D01*
X61250Y-52000D02*
X61250Y-49500D01*
X61250Y-46500D02*
X61250Y-48000D01*
X62750Y-50500D02*
X62750Y-49500D01*
X62750Y-49500D02*
X62750Y-48500D01*
X62750Y-48500D02*
X62750Y-47500D01*
G54D17*
X61250Y-36250D02*
X62750Y-36250D01*
X62750Y-36250D02*
X62750Y-37250D01*
X62750Y-37250D02*
X62750Y-38250D01*
X62750Y-38250D02*
X62750Y-39250D01*
X62750Y-39250D02*
X64250Y-39250D01*
G54D16*
X80500Y-32250D02*
X75250Y-32250D01*
X79750Y-29750D02*
X80500Y-29750D01*
X72750Y-36750D02*
X72750Y-38000D01*
X74500Y-35000D02*
X72750Y-36750D01*
X79750Y-35000D02*
X74500Y-35000D01*
X80500Y-34250D02*
X79750Y-35000D01*
X80500Y-29750D02*
X80500Y-32250D01*
X80500Y-32250D02*
X80500Y-34250D01*
X75250Y-30750D02*
X75250Y-30250D01*
X76250Y-29750D02*
X79750Y-29750D01*
X75750Y-30250D02*
X76250Y-29750D01*
X75250Y-30250D02*
X75750Y-30250D01*
X79750Y-29750D02*
X80000Y-29500D01*
X80000Y-29500D02*
X80000Y-28500D01*
G54D17*
X74250Y-30750D02*
X75250Y-30750D01*
X74250Y-33750D02*
X74250Y-30750D01*
X75250Y-33750D02*
X75250Y-32250D01*
X75250Y-32250D02*
X75250Y-30750D01*
X74250Y-33750D02*
X75250Y-33750D01*
X64250Y-40250D02*
X64250Y-40500D01*
X64250Y-40000D02*
X64250Y-40250D01*
X64250Y-39250D02*
X64250Y-40000D01*
X64250Y-40500D02*
X64250Y-41250D01*
G54D16*
X54750Y-39500D02*
X55250Y-39000D01*
X53500Y-39500D02*
X54750Y-39500D01*
G54D15*
X66750Y-47000D02*
X66750Y-50500D01*
X65750Y-47000D02*
X65750Y-50500D01*
G54D16*
X69250Y-29250D02*
X69750Y-28750D01*
X70250Y-28250D02*
X71000Y-28250D01*
X69750Y-28750D02*
X70250Y-28250D01*
G54D15*
X55250Y-48500D02*
X55250Y-45750D01*
X55250Y-43750D02*
X55250Y-43250D01*
X55500Y-44000D02*
X55250Y-43750D01*
X55750Y-44000D02*
X55500Y-44000D01*
X56000Y-44250D02*
X55750Y-44000D01*
X56000Y-45250D02*
X56000Y-44250D01*
X55750Y-45500D02*
X56000Y-45250D01*
X55500Y-45500D02*
X55750Y-45500D01*
X55250Y-45750D02*
X55500Y-45500D01*
X52250Y-48500D02*
X50750Y-47000D01*
X50750Y-47000D02*
X50500Y-47000D01*
X47500Y-38750D02*
X47500Y-39500D01*
X47750Y-47000D02*
X50500Y-47000D01*
X47250Y-46500D02*
X47750Y-47000D01*
X47250Y-44250D02*
X47250Y-46500D01*
X47750Y-43750D02*
X47250Y-44250D01*
X47750Y-39750D02*
X47750Y-43750D01*
X47500Y-39500D02*
X47750Y-39750D01*
X58500Y-35250D02*
X59000Y-35250D01*
X58250Y-30250D02*
X57750Y-29750D01*
X58250Y-31000D02*
X58250Y-30250D01*
X58500Y-31250D02*
X58250Y-31000D01*
X59000Y-31250D02*
X58500Y-31250D01*
X59250Y-31500D02*
X59000Y-31250D01*
X59250Y-35000D02*
X59250Y-31500D01*
X59000Y-35250D02*
X59250Y-35000D01*
G54D16*
X58500Y-35250D02*
X58000Y-35750D01*
X55750Y-35500D02*
X55750Y-35000D01*
X56000Y-35750D02*
X55750Y-35500D01*
X58000Y-35750D02*
X56000Y-35750D01*
G54D15*
X51250Y-48500D02*
X50750Y-48500D01*
X50250Y-49000D02*
X47500Y-49000D01*
X50750Y-48500D02*
X50250Y-49000D01*
G54D16*
X55750Y-32000D02*
X56750Y-32000D01*
X56750Y-32000D02*
X57000Y-31750D01*
X57000Y-31750D02*
X58500Y-31750D01*
G54D15*
X51750Y-32000D02*
X51750Y-31750D01*
X56750Y-29250D02*
X56750Y-29750D01*
X56500Y-29000D02*
X56750Y-29250D01*
X56250Y-29000D02*
X56500Y-29000D01*
X56000Y-29000D02*
X56250Y-29000D01*
X52500Y-29000D02*
X56000Y-29000D01*
X52250Y-29250D02*
X52500Y-29000D01*
X52250Y-31250D02*
X52250Y-29250D01*
X51750Y-31750D02*
X52250Y-31250D01*
X50750Y-36000D02*
X50750Y-35000D01*
X51000Y-38750D02*
X51000Y-38000D01*
X54750Y-35500D02*
X54750Y-35000D01*
X54500Y-35750D02*
X54750Y-35500D01*
X53750Y-35750D02*
X54500Y-35750D01*
X53000Y-36500D02*
X53750Y-35750D01*
X51000Y-36500D02*
X53000Y-36500D01*
X50750Y-36750D02*
X51000Y-36500D01*
X50750Y-37750D02*
X50750Y-36750D01*
X51000Y-38000D02*
X50750Y-37750D01*
X56250Y-43250D02*
X56250Y-47750D01*
X56500Y-48000D02*
X56500Y-48500D01*
X56250Y-47750D02*
X56500Y-48000D01*
X53125Y-31375D02*
X52625Y-31375D01*
X52625Y-31375D02*
X52500Y-31500D01*
X51750Y-35000D02*
X51750Y-33250D01*
X56750Y-30500D02*
X56750Y-30750D01*
X56500Y-30250D02*
X56750Y-30500D01*
X53500Y-30250D02*
X56500Y-30250D01*
X53250Y-30500D02*
X53500Y-30250D01*
X53250Y-31250D02*
X53250Y-30500D01*
X53125Y-31375D02*
X53250Y-31250D01*
X52250Y-31750D02*
X52500Y-31500D01*
X52250Y-32750D02*
X52250Y-31750D01*
X51750Y-33250D02*
X52250Y-32750D01*
X71750Y-37000D02*
X71750Y-34250D01*
X71750Y-34250D02*
X72250Y-33750D01*
G54D16*
X67750Y-28000D02*
X69000Y-28000D01*
X69000Y-28000D02*
X69250Y-28250D01*
G54D15*
X53750Y-32000D02*
X53750Y-31750D01*
X55000Y-31500D02*
X55750Y-30750D01*
X54000Y-31500D02*
X55000Y-31500D01*
X53750Y-31750D02*
X54000Y-31500D01*
X57000Y-31375D02*
X56375Y-31375D01*
X56375Y-31375D02*
X56250Y-31500D01*
X57000Y-31375D02*
X57625Y-31375D01*
X57750Y-31250D02*
X57750Y-30750D01*
X57625Y-31375D02*
X57750Y-31250D01*
X54750Y-32000D02*
X55000Y-32000D01*
X55500Y-31500D02*
X56250Y-31500D01*
X55000Y-32000D02*
X55500Y-31500D01*
G54D16*
X60250Y-46500D02*
X60250Y-45500D01*
X62750Y-44500D02*
X62750Y-43250D01*
X62250Y-45000D02*
X62750Y-44500D01*
X60750Y-45000D02*
X62250Y-45000D01*
X60250Y-45500D02*
X60750Y-45000D01*
X54500Y-52750D02*
X48250Y-52750D01*
X47750Y-52250D02*
X47750Y-52000D01*
X48250Y-52750D02*
X47750Y-52250D01*
X54250Y-52000D02*
X54250Y-52500D01*
X60250Y-52500D02*
X60250Y-52000D01*
X60000Y-52750D02*
X60250Y-52500D01*
X54500Y-52750D02*
X60000Y-52750D01*
X54250Y-52500D02*
X54500Y-52750D01*
X60250Y-49500D02*
X60250Y-52000D01*
X65750Y-43500D02*
X66750Y-43500D01*
X64750Y-43500D02*
X65750Y-43500D01*
X63750Y-43500D02*
X64750Y-43500D01*
X65250Y-41250D02*
X65250Y-39250D01*
X45500Y-47500D02*
X45500Y-50000D01*
X45750Y-50250D02*
X47250Y-50250D01*
X45500Y-50000D02*
X45750Y-50250D01*
X47750Y-50750D02*
X47750Y-52000D01*
X47250Y-50250D02*
X47750Y-50750D01*
X63000Y-43500D02*
X62750Y-43250D01*
X63750Y-43500D02*
X63000Y-43500D01*
X60250Y-48000D02*
X60250Y-46500D01*
X60250Y-49500D02*
X60250Y-48000D01*
X53250Y-43250D02*
X53250Y-42500D01*
X53250Y-42500D02*
X54000Y-41750D01*
X55250Y-41250D02*
X55250Y-40250D01*
X54000Y-41750D02*
X54250Y-41500D01*
X54250Y-41500D02*
X55000Y-41500D01*
X55000Y-41500D02*
X55250Y-41250D01*
X65250Y-39250D02*
X66250Y-39250D01*
X67500Y-31750D02*
X67750Y-31500D01*
X67500Y-38500D02*
X67500Y-31750D01*
X67250Y-38750D02*
X67500Y-38500D01*
X66750Y-38750D02*
X67250Y-38750D01*
X66250Y-39250D02*
X66750Y-38750D01*
X67750Y-31500D02*
X68500Y-31500D01*
X69250Y-30750D02*
X71250Y-30750D01*
X68500Y-31500D02*
X69250Y-30750D01*
X67750Y-31500D02*
X67750Y-29000D01*
X67750Y-29000D02*
X66750Y-28000D01*
G54D10*
G36*
X56275Y-37050D02*
X56037Y-37287D01*
X55972Y-37385D01*
X55950Y-37500D01*
X55950Y-38307D01*
X55805Y-38452D01*
X55779Y-38513D01*
X55779Y-37325D01*
X55768Y-37117D01*
X55710Y-36977D01*
X55617Y-36952D01*
X55547Y-37023D01*
X55547Y-36882D01*
X55522Y-36789D01*
X55325Y-36720D01*
X55117Y-36731D01*
X54977Y-36789D01*
X54952Y-36882D01*
X55250Y-37179D01*
X55547Y-36882D01*
X55547Y-37023D01*
X55320Y-37250D01*
X55617Y-37547D01*
X55710Y-37522D01*
X55779Y-37325D01*
X55779Y-38513D01*
X55752Y-38578D01*
X55710Y-38477D01*
X55617Y-38452D01*
X55547Y-38523D01*
X55547Y-38382D01*
X55547Y-37617D01*
X55250Y-37320D01*
X54952Y-37617D01*
X54977Y-37710D01*
X55174Y-37779D01*
X55382Y-37768D01*
X55522Y-37710D01*
X55547Y-37617D01*
X55547Y-38382D01*
X55522Y-38289D01*
X55325Y-38220D01*
X55117Y-38231D01*
X54977Y-38289D01*
X54952Y-38382D01*
X55250Y-38679D01*
X55547Y-38382D01*
X55547Y-38523D01*
X55320Y-38750D01*
X55617Y-39047D01*
X55710Y-39022D01*
X55749Y-38912D01*
X55804Y-39047D01*
X55950Y-39192D01*
X55950Y-39807D01*
X55805Y-39952D01*
X55749Y-40085D01*
X55695Y-39953D01*
X55547Y-39805D01*
X55547Y-39804D01*
X55547Y-39117D01*
X55250Y-38820D01*
X54952Y-39117D01*
X54977Y-39210D01*
X55174Y-39279D01*
X55382Y-39268D01*
X55522Y-39210D01*
X55547Y-39117D01*
X55547Y-39804D01*
X55354Y-39725D01*
X55146Y-39724D01*
X54953Y-39804D01*
X54805Y-39952D01*
X54749Y-40085D01*
X54695Y-39953D01*
X54547Y-39805D01*
X54354Y-39725D01*
X54146Y-39724D01*
X53953Y-39804D01*
X53805Y-39952D01*
X53752Y-40078D01*
X53710Y-39977D01*
X53617Y-39952D01*
X53547Y-40023D01*
X53547Y-39882D01*
X53522Y-39789D01*
X53325Y-39720D01*
X53117Y-39731D01*
X52977Y-39789D01*
X52952Y-39882D01*
X53250Y-40179D01*
X53547Y-39882D01*
X53547Y-40023D01*
X53320Y-40250D01*
X53617Y-40547D01*
X53710Y-40522D01*
X53749Y-40412D01*
X53804Y-40547D01*
X53952Y-40694D01*
X54145Y-40774D01*
X54353Y-40775D01*
X54547Y-40695D01*
X54694Y-40547D01*
X54750Y-40414D01*
X54804Y-40547D01*
X54885Y-40628D01*
X54885Y-41099D01*
X54849Y-41135D01*
X54250Y-41135D01*
X54250Y-41135D01*
X54110Y-41163D01*
X53992Y-41242D01*
X53992Y-41242D01*
X53742Y-41492D01*
X53547Y-41687D01*
X53547Y-40617D01*
X53250Y-40320D01*
X52952Y-40617D01*
X52977Y-40710D01*
X53174Y-40779D01*
X53382Y-40768D01*
X53522Y-40710D01*
X53547Y-40617D01*
X53547Y-41687D01*
X52992Y-42242D01*
X52913Y-42360D01*
X52885Y-42500D01*
X52885Y-42871D01*
X52805Y-42952D01*
X52749Y-43085D01*
X52695Y-42953D01*
X52547Y-42805D01*
X52354Y-42725D01*
X52146Y-42724D01*
X51953Y-42804D01*
X51805Y-42952D01*
X51749Y-43085D01*
X51695Y-42953D01*
X51547Y-42805D01*
X51354Y-42725D01*
X51146Y-42724D01*
X50953Y-42804D01*
X50805Y-42952D01*
X50749Y-43085D01*
X50695Y-42953D01*
X50547Y-42805D01*
X50354Y-42725D01*
X50146Y-42724D01*
X49953Y-42804D01*
X49805Y-42952D01*
X49749Y-43085D01*
X49695Y-42953D01*
X49547Y-42805D01*
X49354Y-42725D01*
X49146Y-42724D01*
X48953Y-42804D01*
X48805Y-42952D01*
X48749Y-43085D01*
X48695Y-42953D01*
X48547Y-42805D01*
X48354Y-42725D01*
X48146Y-42724D01*
X48050Y-42764D01*
X48050Y-40735D01*
X48145Y-40774D01*
X48353Y-40775D01*
X48547Y-40695D01*
X48694Y-40547D01*
X48750Y-40414D01*
X48804Y-40547D01*
X48952Y-40694D01*
X49145Y-40774D01*
X49353Y-40775D01*
X49547Y-40695D01*
X49694Y-40547D01*
X49750Y-40414D01*
X49804Y-40547D01*
X49952Y-40694D01*
X50145Y-40774D01*
X50353Y-40775D01*
X50547Y-40695D01*
X50694Y-40547D01*
X50750Y-40414D01*
X50804Y-40547D01*
X50952Y-40694D01*
X51145Y-40774D01*
X51353Y-40775D01*
X51547Y-40695D01*
X51694Y-40547D01*
X51750Y-40414D01*
X51804Y-40547D01*
X51952Y-40694D01*
X52145Y-40774D01*
X52353Y-40775D01*
X52547Y-40695D01*
X52694Y-40547D01*
X52747Y-40421D01*
X52789Y-40522D01*
X52882Y-40547D01*
X53179Y-40250D01*
X52882Y-39952D01*
X52789Y-39977D01*
X52750Y-40087D01*
X52695Y-39953D01*
X52547Y-39805D01*
X52430Y-39756D01*
X52050Y-39375D01*
X52050Y-39235D01*
X52145Y-39274D01*
X52353Y-39275D01*
X52547Y-39195D01*
X52694Y-39047D01*
X52750Y-38914D01*
X52804Y-39047D01*
X52952Y-39194D01*
X53145Y-39274D01*
X53353Y-39275D01*
X53547Y-39195D01*
X53694Y-39047D01*
X53750Y-38914D01*
X53804Y-39047D01*
X53952Y-39194D01*
X54145Y-39274D01*
X54353Y-39275D01*
X54547Y-39195D01*
X54694Y-39047D01*
X54747Y-38921D01*
X54789Y-39022D01*
X54882Y-39047D01*
X55179Y-38750D01*
X54882Y-38452D01*
X54789Y-38477D01*
X54750Y-38587D01*
X54695Y-38453D01*
X54550Y-38307D01*
X54550Y-37692D01*
X54694Y-37547D01*
X54747Y-37421D01*
X54789Y-37522D01*
X54882Y-37547D01*
X55179Y-37250D01*
X54882Y-36952D01*
X54789Y-36977D01*
X54750Y-37087D01*
X54695Y-36953D01*
X54547Y-36805D01*
X54354Y-36725D01*
X54146Y-36724D01*
X53953Y-36804D01*
X53805Y-36952D01*
X53725Y-37145D01*
X53724Y-37353D01*
X53804Y-37547D01*
X53950Y-37692D01*
X53950Y-38307D01*
X53805Y-38452D01*
X53749Y-38585D01*
X53695Y-38453D01*
X53547Y-38305D01*
X53354Y-38225D01*
X53146Y-38224D01*
X52953Y-38304D01*
X52805Y-38452D01*
X52749Y-38585D01*
X52695Y-38453D01*
X52547Y-38305D01*
X52354Y-38225D01*
X52199Y-38224D01*
X52462Y-37962D01*
X52462Y-37962D01*
X52527Y-37864D01*
X52545Y-37775D01*
X52545Y-37775D01*
X52574Y-37775D01*
X52666Y-37736D01*
X52736Y-37666D01*
X52775Y-37574D01*
X52775Y-37475D01*
X52775Y-36925D01*
X52736Y-36833D01*
X52703Y-36800D01*
X53000Y-36800D01*
X53000Y-36799D01*
X53114Y-36777D01*
X53114Y-36777D01*
X53212Y-36712D01*
X53874Y-36050D01*
X54500Y-36050D01*
X54500Y-36049D01*
X54614Y-36027D01*
X54614Y-36027D01*
X54712Y-35962D01*
X54950Y-35724D01*
X54950Y-36000D01*
X54972Y-36114D01*
X55037Y-36212D01*
X55787Y-36962D01*
X55885Y-37027D01*
X55885Y-37027D01*
X56000Y-37050D01*
X56275Y-37050D01*
X56275Y-37050D01*
G37*
G54D15*
X56275Y-37050D02*
X56037Y-37287D01*
X55972Y-37385D01*
X55950Y-37500D01*
X55950Y-38307D01*
X55805Y-38452D01*
X55779Y-38513D01*
X55779Y-37325D01*
X55768Y-37117D01*
X55710Y-36977D01*
X55617Y-36952D01*
X55547Y-37023D01*
X55547Y-36882D01*
X55522Y-36789D01*
X55325Y-36720D01*
X55117Y-36731D01*
X54977Y-36789D01*
X54952Y-36882D01*
X55250Y-37179D01*
X55547Y-36882D01*
X55547Y-37023D01*
X55320Y-37250D01*
X55617Y-37547D01*
X55710Y-37522D01*
X55779Y-37325D01*
X55779Y-38513D01*
X55752Y-38578D01*
X55710Y-38477D01*
X55617Y-38452D01*
X55547Y-38523D01*
X55547Y-38382D01*
X55547Y-37617D01*
X55250Y-37320D01*
X54952Y-37617D01*
X54977Y-37710D01*
X55174Y-37779D01*
X55382Y-37768D01*
X55522Y-37710D01*
X55547Y-37617D01*
X55547Y-38382D01*
X55522Y-38289D01*
X55325Y-38220D01*
X55117Y-38231D01*
X54977Y-38289D01*
X54952Y-38382D01*
X55250Y-38679D01*
X55547Y-38382D01*
X55547Y-38523D01*
X55320Y-38750D01*
X55617Y-39047D01*
X55710Y-39022D01*
X55749Y-38912D01*
X55804Y-39047D01*
X55950Y-39192D01*
X55950Y-39807D01*
X55805Y-39952D01*
X55749Y-40085D01*
X55695Y-39953D01*
X55547Y-39805D01*
X55547Y-39804D01*
X55547Y-39117D01*
X55250Y-38820D01*
X54952Y-39117D01*
X54977Y-39210D01*
X55174Y-39279D01*
X55382Y-39268D01*
X55522Y-39210D01*
X55547Y-39117D01*
X55547Y-39804D01*
X55354Y-39725D01*
X55146Y-39724D01*
X54953Y-39804D01*
X54805Y-39952D01*
X54749Y-40085D01*
X54695Y-39953D01*
X54547Y-39805D01*
X54354Y-39725D01*
X54146Y-39724D01*
X53953Y-39804D01*
X53805Y-39952D01*
X53752Y-40078D01*
X53710Y-39977D01*
X53617Y-39952D01*
X53547Y-40023D01*
X53547Y-39882D01*
X53522Y-39789D01*
X53325Y-39720D01*
X53117Y-39731D01*
X52977Y-39789D01*
X52952Y-39882D01*
X53250Y-40179D01*
X53547Y-39882D01*
X53547Y-40023D01*
X53320Y-40250D01*
X53617Y-40547D01*
X53710Y-40522D01*
X53749Y-40412D01*
X53804Y-40547D01*
X53952Y-40694D01*
X54145Y-40774D01*
X54353Y-40775D01*
X54547Y-40695D01*
X54694Y-40547D01*
X54750Y-40414D01*
X54804Y-40547D01*
X54885Y-40628D01*
X54885Y-41099D01*
X54849Y-41135D01*
X54250Y-41135D01*
X54250Y-41135D01*
X54110Y-41163D01*
X53992Y-41242D01*
X53992Y-41242D01*
X53742Y-41492D01*
X53547Y-41687D01*
X53547Y-40617D01*
X53250Y-40320D01*
X52952Y-40617D01*
X52977Y-40710D01*
X53174Y-40779D01*
X53382Y-40768D01*
X53522Y-40710D01*
X53547Y-40617D01*
X53547Y-41687D01*
X52992Y-42242D01*
X52913Y-42360D01*
X52885Y-42500D01*
X52885Y-42871D01*
X52805Y-42952D01*
X52749Y-43085D01*
X52695Y-42953D01*
X52547Y-42805D01*
X52354Y-42725D01*
X52146Y-42724D01*
X51953Y-42804D01*
X51805Y-42952D01*
X51749Y-43085D01*
X51695Y-42953D01*
X51547Y-42805D01*
X51354Y-42725D01*
X51146Y-42724D01*
X50953Y-42804D01*
X50805Y-42952D01*
X50749Y-43085D01*
X50695Y-42953D01*
X50547Y-42805D01*
X50354Y-42725D01*
X50146Y-42724D01*
X49953Y-42804D01*
X49805Y-42952D01*
X49749Y-43085D01*
X49695Y-42953D01*
X49547Y-42805D01*
X49354Y-42725D01*
X49146Y-42724D01*
X48953Y-42804D01*
X48805Y-42952D01*
X48749Y-43085D01*
X48695Y-42953D01*
X48547Y-42805D01*
X48354Y-42725D01*
X48146Y-42724D01*
X48050Y-42764D01*
X48050Y-40735D01*
X48145Y-40774D01*
X48353Y-40775D01*
X48547Y-40695D01*
X48694Y-40547D01*
X48750Y-40414D01*
X48804Y-40547D01*
X48952Y-40694D01*
X49145Y-40774D01*
X49353Y-40775D01*
X49547Y-40695D01*
X49694Y-40547D01*
X49750Y-40414D01*
X49804Y-40547D01*
X49952Y-40694D01*
X50145Y-40774D01*
X50353Y-40775D01*
X50547Y-40695D01*
X50694Y-40547D01*
X50750Y-40414D01*
X50804Y-40547D01*
X50952Y-40694D01*
X51145Y-40774D01*
X51353Y-40775D01*
X51547Y-40695D01*
X51694Y-40547D01*
X51750Y-40414D01*
X51804Y-40547D01*
X51952Y-40694D01*
X52145Y-40774D01*
X52353Y-40775D01*
X52547Y-40695D01*
X52694Y-40547D01*
X52747Y-40421D01*
X52789Y-40522D01*
X52882Y-40547D01*
X53179Y-40250D01*
X52882Y-39952D01*
X52789Y-39977D01*
X52750Y-40087D01*
X52695Y-39953D01*
X52547Y-39805D01*
X52430Y-39756D01*
X52050Y-39375D01*
X52050Y-39235D01*
X52145Y-39274D01*
X52353Y-39275D01*
X52547Y-39195D01*
X52694Y-39047D01*
X52750Y-38914D01*
X52804Y-39047D01*
X52952Y-39194D01*
X53145Y-39274D01*
X53353Y-39275D01*
X53547Y-39195D01*
X53694Y-39047D01*
X53750Y-38914D01*
X53804Y-39047D01*
X53952Y-39194D01*
X54145Y-39274D01*
X54353Y-39275D01*
X54547Y-39195D01*
X54694Y-39047D01*
X54747Y-38921D01*
X54789Y-39022D01*
X54882Y-39047D01*
X55179Y-38750D01*
X54882Y-38452D01*
X54789Y-38477D01*
X54750Y-38587D01*
X54695Y-38453D01*
X54550Y-38307D01*
X54550Y-37692D01*
X54694Y-37547D01*
X54747Y-37421D01*
X54789Y-37522D01*
X54882Y-37547D01*
X55179Y-37250D01*
X54882Y-36952D01*
X54789Y-36977D01*
X54750Y-37087D01*
X54695Y-36953D01*
X54547Y-36805D01*
X54354Y-36725D01*
X54146Y-36724D01*
X53953Y-36804D01*
X53805Y-36952D01*
X53725Y-37145D01*
X53724Y-37353D01*
X53804Y-37547D01*
X53950Y-37692D01*
X53950Y-38307D01*
X53805Y-38452D01*
X53749Y-38585D01*
X53695Y-38453D01*
X53547Y-38305D01*
X53354Y-38225D01*
X53146Y-38224D01*
X52953Y-38304D01*
X52805Y-38452D01*
X52749Y-38585D01*
X52695Y-38453D01*
X52547Y-38305D01*
X52354Y-38225D01*
X52199Y-38224D01*
X52462Y-37962D01*
X52462Y-37962D01*
X52527Y-37864D01*
X52545Y-37775D01*
X52545Y-37775D01*
X52574Y-37775D01*
X52666Y-37736D01*
X52736Y-37666D01*
X52775Y-37574D01*
X52775Y-37475D01*
X52775Y-36925D01*
X52736Y-36833D01*
X52703Y-36800D01*
X53000Y-36800D01*
X53000Y-36799D01*
X53114Y-36777D01*
X53114Y-36777D01*
X53212Y-36712D01*
X53874Y-36050D01*
X54500Y-36050D01*
X54500Y-36049D01*
X54614Y-36027D01*
X54614Y-36027D01*
X54712Y-35962D01*
X54950Y-35724D01*
X54950Y-36000D01*
X54972Y-36114D01*
X55037Y-36212D01*
X55787Y-36962D01*
X55885Y-37027D01*
X55885Y-37027D01*
X56000Y-37050D01*
X56275Y-37050D01*
G54D10*
G36*
X58950Y-41125D02*
X58537Y-41537D01*
X58472Y-41635D01*
X58450Y-41750D01*
X58450Y-42764D01*
X58354Y-42725D01*
X58146Y-42724D01*
X57953Y-42804D01*
X57805Y-42952D01*
X57749Y-43085D01*
X57695Y-42953D01*
X57547Y-42805D01*
X57354Y-42725D01*
X57146Y-42724D01*
X56953Y-42804D01*
X56805Y-42952D01*
X56749Y-43085D01*
X56695Y-42953D01*
X56547Y-42805D01*
X56354Y-42725D01*
X56146Y-42724D01*
X55953Y-42804D01*
X55805Y-42952D01*
X55749Y-43085D01*
X55695Y-42953D01*
X55547Y-42805D01*
X55354Y-42725D01*
X55146Y-42724D01*
X54953Y-42804D01*
X54805Y-42952D01*
X54752Y-43078D01*
X54710Y-42977D01*
X54617Y-42952D01*
X54547Y-43023D01*
X54547Y-42882D01*
X54522Y-42789D01*
X54325Y-42720D01*
X54117Y-42731D01*
X53977Y-42789D01*
X53952Y-42882D01*
X54250Y-43179D01*
X54547Y-42882D01*
X54547Y-43023D01*
X54320Y-43250D01*
X54617Y-43547D01*
X54710Y-43522D01*
X54749Y-43412D01*
X54804Y-43547D01*
X54950Y-43692D01*
X54950Y-43750D01*
X54972Y-43864D01*
X55037Y-43962D01*
X55287Y-44212D01*
X55307Y-44225D01*
X55146Y-44224D01*
X54953Y-44304D01*
X54805Y-44452D01*
X54749Y-44585D01*
X54695Y-44453D01*
X54547Y-44305D01*
X54547Y-44304D01*
X54547Y-43617D01*
X54250Y-43320D01*
X53952Y-43617D01*
X53977Y-43710D01*
X54174Y-43779D01*
X54382Y-43768D01*
X54522Y-43710D01*
X54547Y-43617D01*
X54547Y-44304D01*
X54354Y-44225D01*
X54146Y-44224D01*
X53953Y-44304D01*
X53805Y-44452D01*
X53749Y-44585D01*
X53695Y-44453D01*
X53547Y-44305D01*
X53354Y-44225D01*
X53146Y-44224D01*
X52953Y-44304D01*
X52805Y-44452D01*
X52749Y-44585D01*
X52695Y-44453D01*
X52550Y-44307D01*
X52550Y-43692D01*
X52694Y-43547D01*
X52750Y-43414D01*
X52804Y-43547D01*
X52952Y-43694D01*
X53145Y-43774D01*
X53353Y-43775D01*
X53547Y-43695D01*
X53694Y-43547D01*
X53747Y-43421D01*
X53789Y-43522D01*
X53882Y-43547D01*
X54179Y-43250D01*
X53882Y-42952D01*
X53789Y-42977D01*
X53750Y-43087D01*
X53695Y-42953D01*
X53614Y-42871D01*
X53614Y-42650D01*
X54257Y-42007D01*
X54400Y-41864D01*
X55000Y-41864D01*
X55139Y-41836D01*
X55139Y-41836D01*
X55257Y-41757D01*
X55507Y-41507D01*
X55507Y-41507D01*
X55507Y-41507D01*
X55586Y-41389D01*
X55614Y-41250D01*
X55614Y-41250D01*
X55614Y-41249D01*
X55614Y-40628D01*
X55694Y-40547D01*
X55750Y-40414D01*
X55804Y-40547D01*
X55952Y-40694D01*
X56145Y-40774D01*
X56353Y-40775D01*
X56547Y-40695D01*
X56694Y-40547D01*
X56750Y-40414D01*
X56804Y-40547D01*
X56952Y-40694D01*
X57145Y-40774D01*
X57353Y-40775D01*
X57547Y-40695D01*
X57694Y-40547D01*
X57750Y-40414D01*
X57804Y-40547D01*
X57952Y-40694D01*
X58145Y-40774D01*
X58353Y-40775D01*
X58547Y-40695D01*
X58694Y-40547D01*
X58750Y-40414D01*
X58804Y-40547D01*
X58950Y-40692D01*
X58950Y-41125D01*
X58950Y-41125D01*
G37*
G54D15*
X58950Y-41125D02*
X58537Y-41537D01*
X58472Y-41635D01*
X58450Y-41750D01*
X58450Y-42764D01*
X58354Y-42725D01*
X58146Y-42724D01*
X57953Y-42804D01*
X57805Y-42952D01*
X57749Y-43085D01*
X57695Y-42953D01*
X57547Y-42805D01*
X57354Y-42725D01*
X57146Y-42724D01*
X56953Y-42804D01*
X56805Y-42952D01*
X56749Y-43085D01*
X56695Y-42953D01*
X56547Y-42805D01*
X56354Y-42725D01*
X56146Y-42724D01*
X55953Y-42804D01*
X55805Y-42952D01*
X55749Y-43085D01*
X55695Y-42953D01*
X55547Y-42805D01*
X55354Y-42725D01*
X55146Y-42724D01*
X54953Y-42804D01*
X54805Y-42952D01*
X54752Y-43078D01*
X54710Y-42977D01*
X54617Y-42952D01*
X54547Y-43023D01*
X54547Y-42882D01*
X54522Y-42789D01*
X54325Y-42720D01*
X54117Y-42731D01*
X53977Y-42789D01*
X53952Y-42882D01*
X54250Y-43179D01*
X54547Y-42882D01*
X54547Y-43023D01*
X54320Y-43250D01*
X54617Y-43547D01*
X54710Y-43522D01*
X54749Y-43412D01*
X54804Y-43547D01*
X54950Y-43692D01*
X54950Y-43750D01*
X54972Y-43864D01*
X55037Y-43962D01*
X55287Y-44212D01*
X55307Y-44225D01*
X55146Y-44224D01*
X54953Y-44304D01*
X54805Y-44452D01*
X54749Y-44585D01*
X54695Y-44453D01*
X54547Y-44305D01*
X54547Y-44304D01*
X54547Y-43617D01*
X54250Y-43320D01*
X53952Y-43617D01*
X53977Y-43710D01*
X54174Y-43779D01*
X54382Y-43768D01*
X54522Y-43710D01*
X54547Y-43617D01*
X54547Y-44304D01*
X54354Y-44225D01*
X54146Y-44224D01*
X53953Y-44304D01*
X53805Y-44452D01*
X53749Y-44585D01*
X53695Y-44453D01*
X53547Y-44305D01*
X53354Y-44225D01*
X53146Y-44224D01*
X52953Y-44304D01*
X52805Y-44452D01*
X52749Y-44585D01*
X52695Y-44453D01*
X52550Y-44307D01*
X52550Y-43692D01*
X52694Y-43547D01*
X52750Y-43414D01*
X52804Y-43547D01*
X52952Y-43694D01*
X53145Y-43774D01*
X53353Y-43775D01*
X53547Y-43695D01*
X53694Y-43547D01*
X53747Y-43421D01*
X53789Y-43522D01*
X53882Y-43547D01*
X54179Y-43250D01*
X53882Y-42952D01*
X53789Y-42977D01*
X53750Y-43087D01*
X53695Y-42953D01*
X53614Y-42871D01*
X53614Y-42650D01*
X54257Y-42007D01*
X54400Y-41864D01*
X55000Y-41864D01*
X55139Y-41836D01*
X55139Y-41836D01*
X55257Y-41757D01*
X55507Y-41507D01*
X55507Y-41507D01*
X55507Y-41507D01*
X55586Y-41389D01*
X55614Y-41250D01*
X55614Y-41250D01*
X55614Y-41249D01*
X55614Y-40628D01*
X55694Y-40547D01*
X55750Y-40414D01*
X55804Y-40547D01*
X55952Y-40694D01*
X56145Y-40774D01*
X56353Y-40775D01*
X56547Y-40695D01*
X56694Y-40547D01*
X56750Y-40414D01*
X56804Y-40547D01*
X56952Y-40694D01*
X57145Y-40774D01*
X57353Y-40775D01*
X57547Y-40695D01*
X57694Y-40547D01*
X57750Y-40414D01*
X57804Y-40547D01*
X57952Y-40694D01*
X58145Y-40774D01*
X58353Y-40775D01*
X58547Y-40695D01*
X58694Y-40547D01*
X58750Y-40414D01*
X58804Y-40547D01*
X58950Y-40692D01*
X58950Y-41125D01*
G54D10*
G36*
X59885Y-51621D02*
X59805Y-51702D01*
X59749Y-51835D01*
X59695Y-51703D01*
X59547Y-51555D01*
X59354Y-51475D01*
X59146Y-51474D01*
X58953Y-51554D01*
X58805Y-51702D01*
X58725Y-51895D01*
X58724Y-52103D01*
X58804Y-52297D01*
X58893Y-52385D01*
X57749Y-52385D01*
X57775Y-52324D01*
X57775Y-52225D01*
X57775Y-51675D01*
X57736Y-51583D01*
X57666Y-51513D01*
X57574Y-51475D01*
X57475Y-51475D01*
X57029Y-51475D01*
X57029Y-49575D01*
X57018Y-49367D01*
X56960Y-49227D01*
X56867Y-49202D01*
X56570Y-49500D01*
X56867Y-49797D01*
X56960Y-49772D01*
X57029Y-49575D01*
X57029Y-51475D01*
X56925Y-51475D01*
X56833Y-51513D01*
X56797Y-51549D01*
X56797Y-49867D01*
X56500Y-49570D01*
X56429Y-49641D01*
X56429Y-49500D01*
X56132Y-49202D01*
X56039Y-49227D01*
X55970Y-49424D01*
X55981Y-49632D01*
X56039Y-49772D01*
X56132Y-49797D01*
X56429Y-49500D01*
X56429Y-49641D01*
X56202Y-49867D01*
X56227Y-49960D01*
X56424Y-50029D01*
X56632Y-50018D01*
X56772Y-49960D01*
X56797Y-49867D01*
X56797Y-51549D01*
X56763Y-51583D01*
X56725Y-51675D01*
X56725Y-51774D01*
X56725Y-51774D01*
X56695Y-51703D01*
X56547Y-51555D01*
X56354Y-51475D01*
X56146Y-51474D01*
X55953Y-51554D01*
X55805Y-51702D01*
X55779Y-51763D01*
X55779Y-49575D01*
X55768Y-49367D01*
X55710Y-49227D01*
X55617Y-49202D01*
X55320Y-49500D01*
X55617Y-49797D01*
X55710Y-49772D01*
X55779Y-49575D01*
X55779Y-51763D01*
X55752Y-51828D01*
X55710Y-51727D01*
X55617Y-51702D01*
X55547Y-51773D01*
X55547Y-51632D01*
X55547Y-49867D01*
X55250Y-49570D01*
X55179Y-49641D01*
X55179Y-49500D01*
X54882Y-49202D01*
X54789Y-49227D01*
X54720Y-49424D01*
X54731Y-49632D01*
X54789Y-49772D01*
X54882Y-49797D01*
X55179Y-49500D01*
X55179Y-49641D01*
X54952Y-49867D01*
X54977Y-49960D01*
X55174Y-50029D01*
X55382Y-50018D01*
X55522Y-49960D01*
X55547Y-49867D01*
X55547Y-51632D01*
X55522Y-51539D01*
X55325Y-51470D01*
X55117Y-51481D01*
X54977Y-51539D01*
X54952Y-51632D01*
X55250Y-51929D01*
X55547Y-51632D01*
X55547Y-51773D01*
X55320Y-52000D01*
X55617Y-52297D01*
X55710Y-52272D01*
X55749Y-52162D01*
X55804Y-52297D01*
X55893Y-52385D01*
X55542Y-52385D01*
X55547Y-52367D01*
X55250Y-52070D01*
X54952Y-52367D01*
X54957Y-52385D01*
X54650Y-52385D01*
X54628Y-52363D01*
X54694Y-52297D01*
X54747Y-52171D01*
X54789Y-52272D01*
X54882Y-52297D01*
X55179Y-52000D01*
X54882Y-51702D01*
X54789Y-51727D01*
X54750Y-51837D01*
X54695Y-51703D01*
X54547Y-51555D01*
X54354Y-51475D01*
X54146Y-51474D01*
X53953Y-51554D01*
X53805Y-51702D01*
X53749Y-51835D01*
X53695Y-51703D01*
X53547Y-51555D01*
X53354Y-51475D01*
X53146Y-51474D01*
X52953Y-51554D01*
X52805Y-51702D01*
X52779Y-51763D01*
X52779Y-47575D01*
X52768Y-47367D01*
X52710Y-47227D01*
X52617Y-47202D01*
X52547Y-47273D01*
X52547Y-47132D01*
X52522Y-47039D01*
X52325Y-46970D01*
X52117Y-46981D01*
X51977Y-47039D01*
X51952Y-47132D01*
X52250Y-47429D01*
X52547Y-47132D01*
X52547Y-47273D01*
X52320Y-47500D01*
X52617Y-47797D01*
X52710Y-47772D01*
X52779Y-47575D01*
X52779Y-51763D01*
X52725Y-51895D01*
X52724Y-52103D01*
X52804Y-52297D01*
X52893Y-52385D01*
X51249Y-52385D01*
X51275Y-52324D01*
X51275Y-52225D01*
X51275Y-51675D01*
X51236Y-51583D01*
X51166Y-51513D01*
X51074Y-51475D01*
X50975Y-51475D01*
X50425Y-51475D01*
X50333Y-51513D01*
X50263Y-51583D01*
X50225Y-51675D01*
X50225Y-51774D01*
X50225Y-51774D01*
X50195Y-51703D01*
X50047Y-51555D01*
X49854Y-51475D01*
X49646Y-51474D01*
X49453Y-51554D01*
X49305Y-51702D01*
X49252Y-51828D01*
X49210Y-51727D01*
X49117Y-51702D01*
X49047Y-51773D01*
X49047Y-51632D01*
X49022Y-51539D01*
X48825Y-51470D01*
X48617Y-51481D01*
X48477Y-51539D01*
X48452Y-51632D01*
X48750Y-51929D01*
X49047Y-51632D01*
X49047Y-51773D01*
X48820Y-52000D01*
X49117Y-52297D01*
X49210Y-52272D01*
X49249Y-52162D01*
X49304Y-52297D01*
X49393Y-52385D01*
X49042Y-52385D01*
X49047Y-52367D01*
X48750Y-52070D01*
X48744Y-52076D01*
X48673Y-52005D01*
X48679Y-52000D01*
X48382Y-51702D01*
X48289Y-51727D01*
X48250Y-51837D01*
X48195Y-51703D01*
X48114Y-51621D01*
X48114Y-50750D01*
X48086Y-50610D01*
X48086Y-50610D01*
X48007Y-50492D01*
X47507Y-49992D01*
X47389Y-49913D01*
X47250Y-49885D01*
X45900Y-49885D01*
X45864Y-49849D01*
X45864Y-48038D01*
X45975Y-48149D01*
X45975Y-48324D01*
X46013Y-48416D01*
X46083Y-48486D01*
X46175Y-48525D01*
X46274Y-48525D01*
X46274Y-48525D01*
X46203Y-48554D01*
X46055Y-48702D01*
X45975Y-48895D01*
X45974Y-49103D01*
X46054Y-49297D01*
X46202Y-49444D01*
X46395Y-49524D01*
X46603Y-49525D01*
X46797Y-49445D01*
X46944Y-49297D01*
X47000Y-49164D01*
X47054Y-49297D01*
X47202Y-49444D01*
X47395Y-49524D01*
X47603Y-49525D01*
X47797Y-49445D01*
X47942Y-49300D01*
X50250Y-49300D01*
X50250Y-49299D01*
X50364Y-49277D01*
X50364Y-49277D01*
X50462Y-49212D01*
X50761Y-48912D01*
X50763Y-48916D01*
X50833Y-48986D01*
X50925Y-49025D01*
X51024Y-49025D01*
X51574Y-49025D01*
X51666Y-48986D01*
X51736Y-48916D01*
X51775Y-48824D01*
X51775Y-48725D01*
X51775Y-48725D01*
X51804Y-48797D01*
X51952Y-48944D01*
X52145Y-49024D01*
X52353Y-49025D01*
X52547Y-48945D01*
X52694Y-48797D01*
X52774Y-48604D01*
X52775Y-48396D01*
X52695Y-48203D01*
X52547Y-48055D01*
X52421Y-48002D01*
X52522Y-47960D01*
X52547Y-47867D01*
X52250Y-47570D01*
X52244Y-47576D01*
X52173Y-47505D01*
X52179Y-47500D01*
X51882Y-47202D01*
X51789Y-47227D01*
X51720Y-47424D01*
X51727Y-47552D01*
X50962Y-46787D01*
X50864Y-46722D01*
X50779Y-46705D01*
X50779Y-46325D01*
X50768Y-46117D01*
X50710Y-45977D01*
X50617Y-45952D01*
X50547Y-46023D01*
X50547Y-45882D01*
X50522Y-45789D01*
X50325Y-45720D01*
X50117Y-45731D01*
X49977Y-45789D01*
X49952Y-45882D01*
X50250Y-46179D01*
X50547Y-45882D01*
X50547Y-46023D01*
X50320Y-46250D01*
X50617Y-46547D01*
X50710Y-46522D01*
X50779Y-46325D01*
X50779Y-46705D01*
X50750Y-46700D01*
X50525Y-46700D01*
X50547Y-46617D01*
X50250Y-46320D01*
X49952Y-46617D01*
X49974Y-46700D01*
X49535Y-46700D01*
X49547Y-46695D01*
X49694Y-46547D01*
X49747Y-46421D01*
X49789Y-46522D01*
X49882Y-46547D01*
X50179Y-46250D01*
X49882Y-45952D01*
X49789Y-45977D01*
X49750Y-46087D01*
X49695Y-45953D01*
X49550Y-45807D01*
X49550Y-45192D01*
X49694Y-45047D01*
X49750Y-44914D01*
X49804Y-45047D01*
X49952Y-45194D01*
X50145Y-45274D01*
X50353Y-45275D01*
X50547Y-45195D01*
X50694Y-45047D01*
X50750Y-44914D01*
X50804Y-45047D01*
X50952Y-45194D01*
X51145Y-45274D01*
X51353Y-45275D01*
X51547Y-45195D01*
X51694Y-45047D01*
X51750Y-44914D01*
X51804Y-45047D01*
X51952Y-45194D01*
X52145Y-45274D01*
X52353Y-45275D01*
X52547Y-45195D01*
X52694Y-45047D01*
X52750Y-44914D01*
X52804Y-45047D01*
X52952Y-45194D01*
X53145Y-45274D01*
X53353Y-45275D01*
X53547Y-45195D01*
X53694Y-45047D01*
X53750Y-44914D01*
X53804Y-45047D01*
X53952Y-45194D01*
X54145Y-45274D01*
X54353Y-45275D01*
X54547Y-45195D01*
X54694Y-45047D01*
X54750Y-44914D01*
X54804Y-45047D01*
X54952Y-45194D01*
X55145Y-45274D01*
X55307Y-45275D01*
X55287Y-45287D01*
X55037Y-45537D01*
X54972Y-45635D01*
X54954Y-45725D01*
X54925Y-45725D01*
X54833Y-45763D01*
X54763Y-45833D01*
X54725Y-45925D01*
X54725Y-46024D01*
X54725Y-46574D01*
X54763Y-46666D01*
X54833Y-46736D01*
X54925Y-46775D01*
X54950Y-46775D01*
X54950Y-48057D01*
X54805Y-48202D01*
X54725Y-48395D01*
X54724Y-48603D01*
X54804Y-48797D01*
X54952Y-48944D01*
X55078Y-48997D01*
X54977Y-49039D01*
X54952Y-49132D01*
X55250Y-49429D01*
X55547Y-49132D01*
X55522Y-49039D01*
X55412Y-49000D01*
X55547Y-48945D01*
X55694Y-48797D01*
X55774Y-48604D01*
X55775Y-48396D01*
X55695Y-48203D01*
X55550Y-48057D01*
X55550Y-46775D01*
X55574Y-46775D01*
X55666Y-46736D01*
X55736Y-46666D01*
X55775Y-46574D01*
X55775Y-46475D01*
X55775Y-46475D01*
X55804Y-46547D01*
X55950Y-46692D01*
X55950Y-47750D01*
X55972Y-47864D01*
X56037Y-47962D01*
X56166Y-48090D01*
X56055Y-48202D01*
X55975Y-48395D01*
X55974Y-48603D01*
X56054Y-48797D01*
X56202Y-48944D01*
X56328Y-48997D01*
X56227Y-49039D01*
X56202Y-49132D01*
X56500Y-49429D01*
X56797Y-49132D01*
X56772Y-49039D01*
X56662Y-49000D01*
X56797Y-48945D01*
X56944Y-48797D01*
X57024Y-48604D01*
X57025Y-48396D01*
X56945Y-48203D01*
X56800Y-48057D01*
X56800Y-48000D01*
X56777Y-47885D01*
X56777Y-47885D01*
X56751Y-47846D01*
X56712Y-47787D01*
X56550Y-47625D01*
X56550Y-46692D01*
X56694Y-46547D01*
X56774Y-46354D01*
X56775Y-46146D01*
X56695Y-45953D01*
X56550Y-45807D01*
X56550Y-43692D01*
X56694Y-43547D01*
X56750Y-43414D01*
X56804Y-43547D01*
X56952Y-43694D01*
X57145Y-43774D01*
X57353Y-43775D01*
X57547Y-43695D01*
X57694Y-43547D01*
X57750Y-43414D01*
X57804Y-43547D01*
X57952Y-43694D01*
X58145Y-43774D01*
X58353Y-43775D01*
X58450Y-43735D01*
X58450Y-49000D01*
X58452Y-49010D01*
X58450Y-49021D01*
X58463Y-49067D01*
X58472Y-49114D01*
X58478Y-49123D01*
X58481Y-49134D01*
X58725Y-49620D01*
X58725Y-49824D01*
X58763Y-49916D01*
X58833Y-49986D01*
X58925Y-50025D01*
X59024Y-50025D01*
X59574Y-50025D01*
X59666Y-49986D01*
X59736Y-49916D01*
X59775Y-49824D01*
X59775Y-49725D01*
X59775Y-49725D01*
X59804Y-49797D01*
X59885Y-49878D01*
X59885Y-51621D01*
X59885Y-51621D01*
G37*
G54D15*
X59885Y-51621D02*
X59805Y-51702D01*
X59749Y-51835D01*
X59695Y-51703D01*
X59547Y-51555D01*
X59354Y-51475D01*
X59146Y-51474D01*
X58953Y-51554D01*
X58805Y-51702D01*
X58725Y-51895D01*
X58724Y-52103D01*
X58804Y-52297D01*
X58893Y-52385D01*
X57749Y-52385D01*
X57775Y-52324D01*
X57775Y-52225D01*
X57775Y-51675D01*
X57736Y-51583D01*
X57666Y-51513D01*
X57574Y-51475D01*
X57475Y-51475D01*
X57029Y-51475D01*
X57029Y-49575D01*
X57018Y-49367D01*
X56960Y-49227D01*
X56867Y-49202D01*
X56570Y-49500D01*
X56867Y-49797D01*
X56960Y-49772D01*
X57029Y-49575D01*
X57029Y-51475D01*
X56925Y-51475D01*
X56833Y-51513D01*
X56797Y-51549D01*
X56797Y-49867D01*
X56500Y-49570D01*
X56429Y-49641D01*
X56429Y-49500D01*
X56132Y-49202D01*
X56039Y-49227D01*
X55970Y-49424D01*
X55981Y-49632D01*
X56039Y-49772D01*
X56132Y-49797D01*
X56429Y-49500D01*
X56429Y-49641D01*
X56202Y-49867D01*
X56227Y-49960D01*
X56424Y-50029D01*
X56632Y-50018D01*
X56772Y-49960D01*
X56797Y-49867D01*
X56797Y-51549D01*
X56763Y-51583D01*
X56725Y-51675D01*
X56725Y-51774D01*
X56725Y-51774D01*
X56695Y-51703D01*
X56547Y-51555D01*
X56354Y-51475D01*
X56146Y-51474D01*
X55953Y-51554D01*
X55805Y-51702D01*
X55779Y-51763D01*
X55779Y-49575D01*
X55768Y-49367D01*
X55710Y-49227D01*
X55617Y-49202D01*
X55320Y-49500D01*
X55617Y-49797D01*
X55710Y-49772D01*
X55779Y-49575D01*
X55779Y-51763D01*
X55752Y-51828D01*
X55710Y-51727D01*
X55617Y-51702D01*
X55547Y-51773D01*
X55547Y-51632D01*
X55547Y-49867D01*
X55250Y-49570D01*
X55179Y-49641D01*
X55179Y-49500D01*
X54882Y-49202D01*
X54789Y-49227D01*
X54720Y-49424D01*
X54731Y-49632D01*
X54789Y-49772D01*
X54882Y-49797D01*
X55179Y-49500D01*
X55179Y-49641D01*
X54952Y-49867D01*
X54977Y-49960D01*
X55174Y-50029D01*
X55382Y-50018D01*
X55522Y-49960D01*
X55547Y-49867D01*
X55547Y-51632D01*
X55522Y-51539D01*
X55325Y-51470D01*
X55117Y-51481D01*
X54977Y-51539D01*
X54952Y-51632D01*
X55250Y-51929D01*
X55547Y-51632D01*
X55547Y-51773D01*
X55320Y-52000D01*
X55617Y-52297D01*
X55710Y-52272D01*
X55749Y-52162D01*
X55804Y-52297D01*
X55893Y-52385D01*
X55542Y-52385D01*
X55547Y-52367D01*
X55250Y-52070D01*
X54952Y-52367D01*
X54957Y-52385D01*
X54650Y-52385D01*
X54628Y-52363D01*
X54694Y-52297D01*
X54747Y-52171D01*
X54789Y-52272D01*
X54882Y-52297D01*
X55179Y-52000D01*
X54882Y-51702D01*
X54789Y-51727D01*
X54750Y-51837D01*
X54695Y-51703D01*
X54547Y-51555D01*
X54354Y-51475D01*
X54146Y-51474D01*
X53953Y-51554D01*
X53805Y-51702D01*
X53749Y-51835D01*
X53695Y-51703D01*
X53547Y-51555D01*
X53354Y-51475D01*
X53146Y-51474D01*
X52953Y-51554D01*
X52805Y-51702D01*
X52779Y-51763D01*
X52779Y-47575D01*
X52768Y-47367D01*
X52710Y-47227D01*
X52617Y-47202D01*
X52547Y-47273D01*
X52547Y-47132D01*
X52522Y-47039D01*
X52325Y-46970D01*
X52117Y-46981D01*
X51977Y-47039D01*
X51952Y-47132D01*
X52250Y-47429D01*
X52547Y-47132D01*
X52547Y-47273D01*
X52320Y-47500D01*
X52617Y-47797D01*
X52710Y-47772D01*
X52779Y-47575D01*
X52779Y-51763D01*
X52725Y-51895D01*
X52724Y-52103D01*
X52804Y-52297D01*
X52893Y-52385D01*
X51249Y-52385D01*
X51275Y-52324D01*
X51275Y-52225D01*
X51275Y-51675D01*
X51236Y-51583D01*
X51166Y-51513D01*
X51074Y-51475D01*
X50975Y-51475D01*
X50425Y-51475D01*
X50333Y-51513D01*
X50263Y-51583D01*
X50225Y-51675D01*
X50225Y-51774D01*
X50225Y-51774D01*
X50195Y-51703D01*
X50047Y-51555D01*
X49854Y-51475D01*
X49646Y-51474D01*
X49453Y-51554D01*
X49305Y-51702D01*
X49252Y-51828D01*
X49210Y-51727D01*
X49117Y-51702D01*
X49047Y-51773D01*
X49047Y-51632D01*
X49022Y-51539D01*
X48825Y-51470D01*
X48617Y-51481D01*
X48477Y-51539D01*
X48452Y-51632D01*
X48750Y-51929D01*
X49047Y-51632D01*
X49047Y-51773D01*
X48820Y-52000D01*
X49117Y-52297D01*
X49210Y-52272D01*
X49249Y-52162D01*
X49304Y-52297D01*
X49393Y-52385D01*
X49042Y-52385D01*
X49047Y-52367D01*
X48750Y-52070D01*
X48744Y-52076D01*
X48673Y-52005D01*
X48679Y-52000D01*
X48382Y-51702D01*
X48289Y-51727D01*
X48250Y-51837D01*
X48195Y-51703D01*
X48114Y-51621D01*
X48114Y-50750D01*
X48086Y-50610D01*
X48086Y-50610D01*
X48007Y-50492D01*
X47507Y-49992D01*
X47389Y-49913D01*
X47250Y-49885D01*
X45900Y-49885D01*
X45864Y-49849D01*
X45864Y-48038D01*
X45975Y-48149D01*
X45975Y-48324D01*
X46013Y-48416D01*
X46083Y-48486D01*
X46175Y-48525D01*
X46274Y-48525D01*
X46274Y-48525D01*
X46203Y-48554D01*
X46055Y-48702D01*
X45975Y-48895D01*
X45974Y-49103D01*
X46054Y-49297D01*
X46202Y-49444D01*
X46395Y-49524D01*
X46603Y-49525D01*
X46797Y-49445D01*
X46944Y-49297D01*
X47000Y-49164D01*
X47054Y-49297D01*
X47202Y-49444D01*
X47395Y-49524D01*
X47603Y-49525D01*
X47797Y-49445D01*
X47942Y-49300D01*
X50250Y-49300D01*
X50250Y-49299D01*
X50364Y-49277D01*
X50364Y-49277D01*
X50462Y-49212D01*
X50761Y-48912D01*
X50763Y-48916D01*
X50833Y-48986D01*
X50925Y-49025D01*
X51024Y-49025D01*
X51574Y-49025D01*
X51666Y-48986D01*
X51736Y-48916D01*
X51775Y-48824D01*
X51775Y-48725D01*
X51775Y-48725D01*
X51804Y-48797D01*
X51952Y-48944D01*
X52145Y-49024D01*
X52353Y-49025D01*
X52547Y-48945D01*
X52694Y-48797D01*
X52774Y-48604D01*
X52775Y-48396D01*
X52695Y-48203D01*
X52547Y-48055D01*
X52421Y-48002D01*
X52522Y-47960D01*
X52547Y-47867D01*
X52250Y-47570D01*
X52244Y-47576D01*
X52173Y-47505D01*
X52179Y-47500D01*
X51882Y-47202D01*
X51789Y-47227D01*
X51720Y-47424D01*
X51727Y-47552D01*
X50962Y-46787D01*
X50864Y-46722D01*
X50779Y-46705D01*
X50779Y-46325D01*
X50768Y-46117D01*
X50710Y-45977D01*
X50617Y-45952D01*
X50547Y-46023D01*
X50547Y-45882D01*
X50522Y-45789D01*
X50325Y-45720D01*
X50117Y-45731D01*
X49977Y-45789D01*
X49952Y-45882D01*
X50250Y-46179D01*
X50547Y-45882D01*
X50547Y-46023D01*
X50320Y-46250D01*
X50617Y-46547D01*
X50710Y-46522D01*
X50779Y-46325D01*
X50779Y-46705D01*
X50750Y-46700D01*
X50525Y-46700D01*
X50547Y-46617D01*
X50250Y-46320D01*
X49952Y-46617D01*
X49974Y-46700D01*
X49535Y-46700D01*
X49547Y-46695D01*
X49694Y-46547D01*
X49747Y-46421D01*
X49789Y-46522D01*
X49882Y-46547D01*
X50179Y-46250D01*
X49882Y-45952D01*
X49789Y-45977D01*
X49750Y-46087D01*
X49695Y-45953D01*
X49550Y-45807D01*
X49550Y-45192D01*
X49694Y-45047D01*
X49750Y-44914D01*
X49804Y-45047D01*
X49952Y-45194D01*
X50145Y-45274D01*
X50353Y-45275D01*
X50547Y-45195D01*
X50694Y-45047D01*
X50750Y-44914D01*
X50804Y-45047D01*
X50952Y-45194D01*
X51145Y-45274D01*
X51353Y-45275D01*
X51547Y-45195D01*
X51694Y-45047D01*
X51750Y-44914D01*
X51804Y-45047D01*
X51952Y-45194D01*
X52145Y-45274D01*
X52353Y-45275D01*
X52547Y-45195D01*
X52694Y-45047D01*
X52750Y-44914D01*
X52804Y-45047D01*
X52952Y-45194D01*
X53145Y-45274D01*
X53353Y-45275D01*
X53547Y-45195D01*
X53694Y-45047D01*
X53750Y-44914D01*
X53804Y-45047D01*
X53952Y-45194D01*
X54145Y-45274D01*
X54353Y-45275D01*
X54547Y-45195D01*
X54694Y-45047D01*
X54750Y-44914D01*
X54804Y-45047D01*
X54952Y-45194D01*
X55145Y-45274D01*
X55307Y-45275D01*
X55287Y-45287D01*
X55037Y-45537D01*
X54972Y-45635D01*
X54954Y-45725D01*
X54925Y-45725D01*
X54833Y-45763D01*
X54763Y-45833D01*
X54725Y-45925D01*
X54725Y-46024D01*
X54725Y-46574D01*
X54763Y-46666D01*
X54833Y-46736D01*
X54925Y-46775D01*
X54950Y-46775D01*
X54950Y-48057D01*
X54805Y-48202D01*
X54725Y-48395D01*
X54724Y-48603D01*
X54804Y-48797D01*
X54952Y-48944D01*
X55078Y-48997D01*
X54977Y-49039D01*
X54952Y-49132D01*
X55250Y-49429D01*
X55547Y-49132D01*
X55522Y-49039D01*
X55412Y-49000D01*
X55547Y-48945D01*
X55694Y-48797D01*
X55774Y-48604D01*
X55775Y-48396D01*
X55695Y-48203D01*
X55550Y-48057D01*
X55550Y-46775D01*
X55574Y-46775D01*
X55666Y-46736D01*
X55736Y-46666D01*
X55775Y-46574D01*
X55775Y-46475D01*
X55775Y-46475D01*
X55804Y-46547D01*
X55950Y-46692D01*
X55950Y-47750D01*
X55972Y-47864D01*
X56037Y-47962D01*
X56166Y-48090D01*
X56055Y-48202D01*
X55975Y-48395D01*
X55974Y-48603D01*
X56054Y-48797D01*
X56202Y-48944D01*
X56328Y-48997D01*
X56227Y-49039D01*
X56202Y-49132D01*
X56500Y-49429D01*
X56797Y-49132D01*
X56772Y-49039D01*
X56662Y-49000D01*
X56797Y-48945D01*
X56944Y-48797D01*
X57024Y-48604D01*
X57025Y-48396D01*
X56945Y-48203D01*
X56800Y-48057D01*
X56800Y-48000D01*
X56777Y-47885D01*
X56777Y-47885D01*
X56751Y-47846D01*
X56712Y-47787D01*
X56550Y-47625D01*
X56550Y-46692D01*
X56694Y-46547D01*
X56774Y-46354D01*
X56775Y-46146D01*
X56695Y-45953D01*
X56550Y-45807D01*
X56550Y-43692D01*
X56694Y-43547D01*
X56750Y-43414D01*
X56804Y-43547D01*
X56952Y-43694D01*
X57145Y-43774D01*
X57353Y-43775D01*
X57547Y-43695D01*
X57694Y-43547D01*
X57750Y-43414D01*
X57804Y-43547D01*
X57952Y-43694D01*
X58145Y-43774D01*
X58353Y-43775D01*
X58450Y-43735D01*
X58450Y-49000D01*
X58452Y-49010D01*
X58450Y-49021D01*
X58463Y-49067D01*
X58472Y-49114D01*
X58478Y-49123D01*
X58481Y-49134D01*
X58725Y-49620D01*
X58725Y-49824D01*
X58763Y-49916D01*
X58833Y-49986D01*
X58925Y-50025D01*
X59024Y-50025D01*
X59574Y-50025D01*
X59666Y-49986D01*
X59736Y-49916D01*
X59775Y-49824D01*
X59775Y-49725D01*
X59775Y-49725D01*
X59804Y-49797D01*
X59885Y-49878D01*
X59885Y-51621D01*
G54D10*
G36*
X74274Y-28725D02*
X74146Y-28724D01*
X73953Y-28804D01*
X73805Y-28952D01*
X73725Y-29145D01*
X73724Y-29353D01*
X73731Y-29370D01*
X73162Y-30224D01*
X73146Y-30224D01*
X72953Y-30304D01*
X72805Y-30452D01*
X72749Y-30585D01*
X72695Y-30453D01*
X72547Y-30305D01*
X72354Y-30225D01*
X72146Y-30224D01*
X71953Y-30304D01*
X71805Y-30452D01*
X71749Y-30585D01*
X71695Y-30453D01*
X71547Y-30305D01*
X71354Y-30225D01*
X71146Y-30224D01*
X70953Y-30304D01*
X70871Y-30385D01*
X70779Y-30385D01*
X70779Y-29325D01*
X70768Y-29117D01*
X70710Y-28977D01*
X70617Y-28952D01*
X70320Y-29250D01*
X70617Y-29547D01*
X70710Y-29522D01*
X70779Y-29325D01*
X70779Y-30385D01*
X70547Y-30385D01*
X70547Y-29617D01*
X70250Y-29320D01*
X69952Y-29617D01*
X69977Y-29710D01*
X70174Y-29779D01*
X70382Y-29768D01*
X70522Y-29710D01*
X70547Y-29617D01*
X70547Y-30385D01*
X69250Y-30385D01*
X69110Y-30413D01*
X68992Y-30492D01*
X68349Y-31135D01*
X68128Y-31135D01*
X68114Y-31121D01*
X68114Y-29000D01*
X68086Y-28860D01*
X68086Y-28860D01*
X68007Y-28742D01*
X68007Y-28742D01*
X67790Y-28525D01*
X67853Y-28525D01*
X68047Y-28445D01*
X68128Y-28364D01*
X68725Y-28364D01*
X68725Y-28574D01*
X68763Y-28666D01*
X68833Y-28736D01*
X68925Y-28775D01*
X69024Y-28775D01*
X69024Y-28775D01*
X68953Y-28804D01*
X68805Y-28952D01*
X68725Y-29145D01*
X68724Y-29353D01*
X68804Y-29547D01*
X68952Y-29694D01*
X69145Y-29774D01*
X69353Y-29775D01*
X69547Y-29695D01*
X69694Y-29547D01*
X69747Y-29421D01*
X69789Y-29522D01*
X69882Y-29547D01*
X70179Y-29250D01*
X70173Y-29244D01*
X70244Y-29173D01*
X70250Y-29179D01*
X70547Y-28882D01*
X70522Y-28789D01*
X70325Y-28720D01*
X70293Y-28721D01*
X70400Y-28614D01*
X70621Y-28614D01*
X70702Y-28694D01*
X70895Y-28774D01*
X71103Y-28775D01*
X71297Y-28695D01*
X71444Y-28547D01*
X71524Y-28354D01*
X71525Y-28146D01*
X71472Y-28019D01*
X74027Y-28019D01*
X73975Y-28145D01*
X73974Y-28353D01*
X74054Y-28547D01*
X74202Y-28694D01*
X74274Y-28725D01*
X74274Y-28725D01*
G37*
G54D15*
X74274Y-28725D02*
X74146Y-28724D01*
X73953Y-28804D01*
X73805Y-28952D01*
X73725Y-29145D01*
X73724Y-29353D01*
X73731Y-29370D01*
X73162Y-30224D01*
X73146Y-30224D01*
X72953Y-30304D01*
X72805Y-30452D01*
X72749Y-30585D01*
X72695Y-30453D01*
X72547Y-30305D01*
X72354Y-30225D01*
X72146Y-30224D01*
X71953Y-30304D01*
X71805Y-30452D01*
X71749Y-30585D01*
X71695Y-30453D01*
X71547Y-30305D01*
X71354Y-30225D01*
X71146Y-30224D01*
X70953Y-30304D01*
X70871Y-30385D01*
X70779Y-30385D01*
X70779Y-29325D01*
X70768Y-29117D01*
X70710Y-28977D01*
X70617Y-28952D01*
X70320Y-29250D01*
X70617Y-29547D01*
X70710Y-29522D01*
X70779Y-29325D01*
X70779Y-30385D01*
X70547Y-30385D01*
X70547Y-29617D01*
X70250Y-29320D01*
X69952Y-29617D01*
X69977Y-29710D01*
X70174Y-29779D01*
X70382Y-29768D01*
X70522Y-29710D01*
X70547Y-29617D01*
X70547Y-30385D01*
X69250Y-30385D01*
X69110Y-30413D01*
X68992Y-30492D01*
X68349Y-31135D01*
X68128Y-31135D01*
X68114Y-31121D01*
X68114Y-29000D01*
X68086Y-28860D01*
X68086Y-28860D01*
X68007Y-28742D01*
X68007Y-28742D01*
X67790Y-28525D01*
X67853Y-28525D01*
X68047Y-28445D01*
X68128Y-28364D01*
X68725Y-28364D01*
X68725Y-28574D01*
X68763Y-28666D01*
X68833Y-28736D01*
X68925Y-28775D01*
X69024Y-28775D01*
X69024Y-28775D01*
X68953Y-28804D01*
X68805Y-28952D01*
X68725Y-29145D01*
X68724Y-29353D01*
X68804Y-29547D01*
X68952Y-29694D01*
X69145Y-29774D01*
X69353Y-29775D01*
X69547Y-29695D01*
X69694Y-29547D01*
X69747Y-29421D01*
X69789Y-29522D01*
X69882Y-29547D01*
X70179Y-29250D01*
X70173Y-29244D01*
X70244Y-29173D01*
X70250Y-29179D01*
X70547Y-28882D01*
X70522Y-28789D01*
X70325Y-28720D01*
X70293Y-28721D01*
X70400Y-28614D01*
X70621Y-28614D01*
X70702Y-28694D01*
X70895Y-28774D01*
X71103Y-28775D01*
X71297Y-28695D01*
X71444Y-28547D01*
X71524Y-28354D01*
X71525Y-28146D01*
X71472Y-28019D01*
X74027Y-28019D01*
X73975Y-28145D01*
X73974Y-28353D01*
X74054Y-28547D01*
X74202Y-28694D01*
X74274Y-28725D01*
G54D10*
G36*
X80480Y-34980D02*
X80297Y-34980D01*
X80297Y-28867D01*
X80000Y-28570D01*
X79929Y-28641D01*
X79929Y-28500D01*
X79632Y-28202D01*
X79539Y-28227D01*
X79470Y-28424D01*
X79481Y-28632D01*
X79539Y-28772D01*
X79632Y-28797D01*
X79929Y-28500D01*
X79929Y-28641D01*
X79702Y-28867D01*
X79727Y-28960D01*
X79924Y-29029D01*
X80132Y-29018D01*
X80272Y-28960D01*
X80297Y-28867D01*
X80297Y-34980D01*
X80279Y-34980D01*
X80279Y-29825D01*
X80268Y-29617D01*
X80210Y-29477D01*
X80117Y-29452D01*
X80047Y-29523D01*
X80047Y-29382D01*
X80022Y-29289D01*
X79825Y-29220D01*
X79617Y-29231D01*
X79477Y-29289D01*
X79452Y-29382D01*
X79750Y-29679D01*
X80047Y-29382D01*
X80047Y-29523D01*
X79820Y-29750D01*
X80117Y-30047D01*
X80210Y-30022D01*
X80279Y-29825D01*
X80279Y-34980D01*
X80275Y-34980D01*
X80275Y-31074D01*
X80275Y-30975D01*
X80275Y-30425D01*
X80236Y-30333D01*
X80166Y-30263D01*
X80074Y-30225D01*
X79987Y-30225D01*
X80022Y-30210D01*
X80047Y-30117D01*
X79750Y-29820D01*
X79679Y-29891D01*
X79679Y-29750D01*
X79382Y-29452D01*
X79289Y-29477D01*
X79220Y-29674D01*
X79231Y-29882D01*
X79289Y-30022D01*
X79382Y-30047D01*
X79679Y-29750D01*
X79679Y-29891D01*
X79452Y-30117D01*
X79477Y-30210D01*
X79518Y-30225D01*
X79425Y-30225D01*
X79333Y-30263D01*
X79263Y-30333D01*
X79225Y-30425D01*
X79225Y-30524D01*
X79225Y-31074D01*
X79263Y-31166D01*
X79333Y-31236D01*
X79425Y-31275D01*
X79524Y-31275D01*
X80074Y-31275D01*
X80166Y-31236D01*
X80236Y-31166D01*
X80275Y-31074D01*
X80275Y-34980D01*
X78775Y-34980D01*
X78775Y-33646D01*
X78775Y-30646D01*
X78695Y-30453D01*
X78547Y-30305D01*
X78354Y-30225D01*
X78146Y-30224D01*
X77953Y-30304D01*
X77805Y-30452D01*
X77749Y-30585D01*
X77695Y-30453D01*
X77547Y-30305D01*
X77354Y-30225D01*
X77146Y-30224D01*
X76953Y-30304D01*
X76805Y-30452D01*
X76749Y-30585D01*
X76695Y-30453D01*
X76547Y-30305D01*
X76354Y-30225D01*
X76146Y-30224D01*
X75953Y-30304D01*
X75805Y-30452D01*
X75752Y-30578D01*
X75710Y-30477D01*
X75617Y-30452D01*
X75547Y-30523D01*
X75547Y-30382D01*
X75522Y-30289D01*
X75325Y-30220D01*
X75117Y-30231D01*
X74977Y-30289D01*
X74952Y-30382D01*
X75250Y-30679D01*
X75547Y-30382D01*
X75547Y-30523D01*
X75320Y-30750D01*
X75617Y-31047D01*
X75710Y-31022D01*
X75749Y-30912D01*
X75804Y-31047D01*
X75952Y-31194D01*
X76145Y-31274D01*
X76353Y-31275D01*
X76547Y-31195D01*
X76694Y-31047D01*
X76750Y-30914D01*
X76804Y-31047D01*
X76952Y-31194D01*
X77145Y-31274D01*
X77353Y-31275D01*
X77547Y-31195D01*
X77694Y-31047D01*
X77750Y-30914D01*
X77804Y-31047D01*
X77952Y-31194D01*
X78145Y-31274D01*
X78353Y-31275D01*
X78547Y-31195D01*
X78694Y-31047D01*
X78774Y-30854D01*
X78775Y-30646D01*
X78775Y-33646D01*
X78695Y-33453D01*
X78547Y-33305D01*
X78354Y-33225D01*
X78146Y-33224D01*
X77953Y-33304D01*
X77805Y-33452D01*
X77749Y-33585D01*
X77695Y-33453D01*
X77547Y-33305D01*
X77354Y-33225D01*
X77146Y-33224D01*
X76953Y-33304D01*
X76805Y-33452D01*
X76749Y-33585D01*
X76695Y-33453D01*
X76547Y-33305D01*
X76354Y-33225D01*
X76146Y-33224D01*
X75953Y-33304D01*
X75805Y-33452D01*
X75752Y-33578D01*
X75710Y-33477D01*
X75617Y-33452D01*
X75547Y-33523D01*
X75547Y-33382D01*
X75547Y-31117D01*
X75250Y-30820D01*
X75179Y-30891D01*
X75179Y-30750D01*
X74882Y-30452D01*
X74789Y-30477D01*
X74753Y-30580D01*
X74710Y-30477D01*
X74617Y-30452D01*
X74320Y-30750D01*
X74617Y-31047D01*
X74710Y-31022D01*
X74746Y-30919D01*
X74789Y-31022D01*
X74882Y-31047D01*
X75179Y-30750D01*
X75179Y-30891D01*
X74952Y-31117D01*
X74977Y-31210D01*
X75174Y-31279D01*
X75382Y-31268D01*
X75522Y-31210D01*
X75547Y-31117D01*
X75547Y-33382D01*
X75522Y-33289D01*
X75325Y-33220D01*
X75117Y-33231D01*
X74977Y-33289D01*
X74952Y-33382D01*
X75250Y-33679D01*
X75547Y-33382D01*
X75547Y-33523D01*
X75320Y-33750D01*
X75326Y-33755D01*
X75255Y-33826D01*
X75250Y-33820D01*
X75244Y-33826D01*
X75173Y-33755D01*
X75179Y-33750D01*
X74882Y-33452D01*
X74789Y-33477D01*
X74753Y-33580D01*
X74710Y-33477D01*
X74617Y-33452D01*
X74547Y-33523D01*
X74547Y-33382D01*
X74547Y-31117D01*
X74250Y-30820D01*
X73952Y-31117D01*
X73977Y-31210D01*
X74174Y-31279D01*
X74382Y-31268D01*
X74522Y-31210D01*
X74547Y-31117D01*
X74547Y-33382D01*
X74522Y-33289D01*
X74325Y-33220D01*
X74117Y-33231D01*
X73977Y-33289D01*
X73952Y-33382D01*
X74250Y-33679D01*
X74547Y-33382D01*
X74547Y-33523D01*
X74320Y-33750D01*
X74326Y-33755D01*
X74255Y-33826D01*
X74250Y-33820D01*
X73952Y-34117D01*
X73977Y-34210D01*
X74174Y-34279D01*
X74206Y-34278D01*
X74113Y-34371D01*
X74047Y-34305D01*
X73854Y-34225D01*
X73646Y-34224D01*
X73453Y-34304D01*
X73305Y-34452D01*
X73275Y-34524D01*
X73275Y-34425D01*
X73236Y-34333D01*
X73209Y-34305D01*
X73240Y-34274D01*
X73353Y-34275D01*
X73547Y-34195D01*
X73694Y-34047D01*
X73747Y-33921D01*
X73789Y-34022D01*
X73882Y-34047D01*
X74179Y-33750D01*
X73882Y-33452D01*
X73789Y-33477D01*
X73750Y-33587D01*
X73695Y-33453D01*
X73547Y-33305D01*
X73354Y-33225D01*
X73146Y-33224D01*
X72953Y-33304D01*
X72805Y-33452D01*
X72749Y-33585D01*
X72695Y-33453D01*
X72547Y-33305D01*
X72354Y-33225D01*
X72146Y-33224D01*
X71953Y-33304D01*
X71805Y-33452D01*
X71775Y-33524D01*
X71775Y-33425D01*
X71736Y-33333D01*
X71666Y-33263D01*
X71574Y-33225D01*
X71475Y-33225D01*
X70925Y-33225D01*
X70833Y-33263D01*
X70763Y-33333D01*
X70725Y-33425D01*
X70725Y-33450D01*
X70692Y-33450D01*
X70547Y-33305D01*
X70354Y-33225D01*
X70146Y-33224D01*
X69953Y-33304D01*
X69805Y-33452D01*
X69725Y-33645D01*
X69724Y-33853D01*
X69804Y-34047D01*
X69952Y-34194D01*
X70145Y-34274D01*
X70353Y-34275D01*
X70547Y-34195D01*
X70692Y-34050D01*
X70725Y-34050D01*
X70725Y-34074D01*
X70763Y-34166D01*
X70833Y-34236D01*
X70925Y-34275D01*
X71024Y-34275D01*
X71450Y-34275D01*
X71450Y-36475D01*
X71425Y-36475D01*
X71333Y-36513D01*
X71263Y-36583D01*
X71225Y-36675D01*
X71225Y-36774D01*
X71225Y-37324D01*
X71263Y-37416D01*
X71333Y-37486D01*
X71425Y-37525D01*
X71524Y-37525D01*
X71524Y-37525D01*
X71453Y-37554D01*
X71305Y-37702D01*
X71225Y-37895D01*
X71224Y-38103D01*
X71304Y-38297D01*
X71452Y-38444D01*
X71645Y-38524D01*
X71853Y-38525D01*
X72047Y-38445D01*
X72194Y-38297D01*
X72247Y-38171D01*
X72289Y-38272D01*
X72382Y-38297D01*
X72679Y-38000D01*
X72382Y-37702D01*
X72289Y-37727D01*
X72250Y-37837D01*
X72195Y-37703D01*
X72047Y-37555D01*
X71975Y-37525D01*
X72074Y-37525D01*
X72166Y-37486D01*
X72236Y-37416D01*
X72275Y-37324D01*
X72275Y-37225D01*
X72275Y-36675D01*
X72236Y-36583D01*
X72166Y-36513D01*
X72074Y-36475D01*
X72050Y-36475D01*
X72050Y-34374D01*
X72149Y-34274D01*
X72321Y-34275D01*
X72263Y-34333D01*
X72225Y-34425D01*
X72225Y-34524D01*
X72225Y-35074D01*
X72263Y-35166D01*
X72333Y-35236D01*
X72425Y-35275D01*
X72524Y-35275D01*
X73074Y-35275D01*
X73166Y-35236D01*
X73236Y-35166D01*
X73275Y-35074D01*
X73275Y-34975D01*
X73275Y-34975D01*
X73304Y-35047D01*
X73452Y-35194D01*
X73645Y-35274D01*
X73853Y-35275D01*
X74047Y-35195D01*
X74128Y-35114D01*
X74250Y-35114D01*
X74389Y-35086D01*
X74389Y-35086D01*
X74507Y-35007D01*
X74900Y-34614D01*
X75750Y-34614D01*
X75889Y-34586D01*
X75889Y-34586D01*
X76007Y-34507D01*
X76240Y-34274D01*
X76353Y-34275D01*
X76547Y-34195D01*
X76694Y-34047D01*
X76750Y-33914D01*
X76804Y-34047D01*
X76952Y-34194D01*
X77145Y-34274D01*
X77353Y-34275D01*
X77547Y-34195D01*
X77694Y-34047D01*
X77750Y-33914D01*
X77804Y-34047D01*
X77952Y-34194D01*
X78145Y-34274D01*
X78353Y-34275D01*
X78547Y-34195D01*
X78694Y-34047D01*
X78774Y-33854D01*
X78775Y-33646D01*
X78775Y-34980D01*
X77250Y-34980D01*
X74750Y-34980D01*
X74646Y-35000D01*
X74559Y-35059D01*
X74500Y-35146D01*
X74480Y-35250D01*
X74480Y-35750D01*
X74480Y-39980D01*
X74222Y-39980D01*
X74274Y-39854D01*
X74275Y-39646D01*
X74275Y-36146D01*
X74195Y-35953D01*
X74047Y-35805D01*
X73854Y-35725D01*
X73646Y-35724D01*
X73453Y-35804D01*
X73305Y-35952D01*
X73225Y-36145D01*
X73224Y-36353D01*
X73304Y-36547D01*
X73452Y-36694D01*
X73645Y-36774D01*
X73853Y-36775D01*
X74047Y-36695D01*
X74194Y-36547D01*
X74274Y-36354D01*
X74275Y-36146D01*
X74275Y-39646D01*
X74195Y-39453D01*
X74047Y-39305D01*
X73854Y-39225D01*
X73646Y-39224D01*
X73453Y-39304D01*
X73305Y-39452D01*
X73279Y-39513D01*
X73279Y-38075D01*
X73268Y-37867D01*
X73210Y-37727D01*
X73117Y-37702D01*
X73047Y-37773D01*
X73047Y-37632D01*
X73022Y-37539D01*
X72825Y-37470D01*
X72617Y-37481D01*
X72477Y-37539D01*
X72452Y-37632D01*
X72750Y-37929D01*
X73047Y-37632D01*
X73047Y-37773D01*
X72820Y-38000D01*
X73117Y-38297D01*
X73210Y-38272D01*
X73279Y-38075D01*
X73279Y-39513D01*
X73225Y-39645D01*
X73224Y-39853D01*
X73277Y-39980D01*
X73047Y-39980D01*
X73047Y-38367D01*
X72750Y-38070D01*
X72452Y-38367D01*
X72477Y-38460D01*
X72674Y-38529D01*
X72882Y-38518D01*
X73022Y-38460D01*
X73047Y-38367D01*
X73047Y-39980D01*
X70779Y-39980D01*
X70779Y-37325D01*
X70768Y-37117D01*
X70710Y-36977D01*
X70617Y-36952D01*
X70547Y-37023D01*
X70547Y-36882D01*
X70522Y-36789D01*
X70325Y-36720D01*
X70117Y-36731D01*
X69977Y-36789D01*
X69952Y-36882D01*
X70250Y-37179D01*
X70547Y-36882D01*
X70547Y-37023D01*
X70320Y-37250D01*
X70617Y-37547D01*
X70710Y-37522D01*
X70779Y-37325D01*
X70779Y-39980D01*
X70750Y-39980D01*
X70547Y-39980D01*
X70547Y-37617D01*
X70250Y-37320D01*
X70179Y-37391D01*
X70179Y-37250D01*
X69882Y-36952D01*
X69789Y-36977D01*
X69720Y-37174D01*
X69731Y-37382D01*
X69789Y-37522D01*
X69882Y-37547D01*
X70179Y-37250D01*
X70179Y-37391D01*
X69952Y-37617D01*
X69977Y-37710D01*
X70174Y-37779D01*
X70382Y-37768D01*
X70522Y-37710D01*
X70547Y-37617D01*
X70547Y-39980D01*
X67750Y-39980D01*
X67646Y-40000D01*
X67559Y-40059D01*
X67500Y-40146D01*
X67480Y-40250D01*
X67480Y-52980D01*
X67275Y-52980D01*
X67275Y-46896D01*
X67195Y-46703D01*
X67047Y-46555D01*
X66854Y-46475D01*
X66646Y-46474D01*
X66453Y-46554D01*
X66305Y-46702D01*
X66249Y-46835D01*
X66195Y-46703D01*
X66047Y-46555D01*
X65854Y-46475D01*
X65646Y-46474D01*
X65453Y-46554D01*
X65305Y-46702D01*
X65249Y-46835D01*
X65195Y-46703D01*
X65047Y-46555D01*
X64854Y-46475D01*
X64646Y-46474D01*
X64453Y-46554D01*
X64305Y-46702D01*
X64249Y-46835D01*
X64195Y-46703D01*
X64047Y-46555D01*
X63854Y-46475D01*
X63646Y-46474D01*
X63453Y-46554D01*
X63305Y-46702D01*
X63279Y-46763D01*
X63279Y-46575D01*
X63268Y-46367D01*
X63210Y-46227D01*
X63117Y-46202D01*
X63047Y-46273D01*
X63047Y-46132D01*
X63022Y-46039D01*
X62825Y-45970D01*
X62617Y-45981D01*
X62477Y-46039D01*
X62452Y-46132D01*
X62750Y-46429D01*
X63047Y-46132D01*
X63047Y-46273D01*
X62820Y-46500D01*
X63117Y-46797D01*
X63210Y-46772D01*
X63279Y-46575D01*
X63279Y-46763D01*
X63225Y-46895D01*
X63224Y-47103D01*
X63304Y-47297D01*
X63450Y-47442D01*
X63450Y-50057D01*
X63305Y-50202D01*
X63279Y-50263D01*
X63279Y-49575D01*
X63279Y-48575D01*
X63279Y-47575D01*
X63268Y-47367D01*
X63210Y-47227D01*
X63117Y-47202D01*
X63047Y-47273D01*
X63047Y-47132D01*
X63022Y-47039D01*
X62919Y-47003D01*
X63022Y-46960D01*
X63047Y-46867D01*
X62750Y-46570D01*
X62679Y-46641D01*
X62679Y-46500D01*
X62382Y-46202D01*
X62289Y-46227D01*
X62220Y-46424D01*
X62231Y-46632D01*
X62289Y-46772D01*
X62382Y-46797D01*
X62679Y-46500D01*
X62679Y-46641D01*
X62452Y-46867D01*
X62477Y-46960D01*
X62580Y-46996D01*
X62477Y-47039D01*
X62452Y-47132D01*
X62750Y-47429D01*
X63047Y-47132D01*
X63047Y-47273D01*
X62820Y-47500D01*
X63117Y-47797D01*
X63210Y-47772D01*
X63279Y-47575D01*
X63279Y-48575D01*
X63268Y-48367D01*
X63210Y-48227D01*
X63117Y-48202D01*
X63047Y-48273D01*
X63047Y-48132D01*
X63022Y-48039D01*
X62919Y-48003D01*
X63022Y-47960D01*
X63047Y-47867D01*
X62750Y-47570D01*
X62679Y-47641D01*
X62679Y-47500D01*
X62382Y-47202D01*
X62289Y-47227D01*
X62220Y-47424D01*
X62231Y-47632D01*
X62289Y-47772D01*
X62382Y-47797D01*
X62679Y-47500D01*
X62679Y-47641D01*
X62452Y-47867D01*
X62477Y-47960D01*
X62580Y-47996D01*
X62477Y-48039D01*
X62452Y-48132D01*
X62750Y-48429D01*
X63047Y-48132D01*
X63047Y-48273D01*
X62820Y-48500D01*
X63117Y-48797D01*
X63210Y-48772D01*
X63279Y-48575D01*
X63279Y-49575D01*
X63268Y-49367D01*
X63210Y-49227D01*
X63117Y-49202D01*
X63047Y-49273D01*
X63047Y-49132D01*
X63022Y-49039D01*
X62919Y-49003D01*
X63022Y-48960D01*
X63047Y-48867D01*
X62750Y-48570D01*
X62679Y-48641D01*
X62679Y-48500D01*
X62382Y-48202D01*
X62289Y-48227D01*
X62220Y-48424D01*
X62231Y-48632D01*
X62289Y-48772D01*
X62382Y-48797D01*
X62679Y-48500D01*
X62679Y-48641D01*
X62452Y-48867D01*
X62477Y-48960D01*
X62580Y-48996D01*
X62477Y-49039D01*
X62452Y-49132D01*
X62750Y-49429D01*
X63047Y-49132D01*
X63047Y-49273D01*
X62820Y-49500D01*
X63117Y-49797D01*
X63210Y-49772D01*
X63279Y-49575D01*
X63279Y-50263D01*
X63275Y-50274D01*
X63275Y-50175D01*
X63236Y-50083D01*
X63166Y-50013D01*
X63074Y-49975D01*
X62987Y-49975D01*
X63022Y-49960D01*
X63047Y-49867D01*
X62750Y-49570D01*
X62679Y-49641D01*
X62679Y-49500D01*
X62382Y-49202D01*
X62289Y-49227D01*
X62220Y-49424D01*
X62231Y-49632D01*
X62289Y-49772D01*
X62382Y-49797D01*
X62679Y-49500D01*
X62679Y-49641D01*
X62452Y-49867D01*
X62477Y-49960D01*
X62518Y-49975D01*
X62425Y-49975D01*
X62333Y-50013D01*
X62263Y-50083D01*
X62225Y-50175D01*
X62225Y-50387D01*
X62287Y-50450D01*
X62700Y-50450D01*
X62700Y-50442D01*
X62800Y-50442D01*
X62800Y-50450D01*
X62807Y-50450D01*
X62807Y-50550D01*
X62800Y-50550D01*
X62800Y-50962D01*
X62862Y-51025D01*
X62975Y-51025D01*
X63074Y-51025D01*
X63166Y-50986D01*
X63236Y-50916D01*
X63275Y-50824D01*
X63275Y-50725D01*
X63304Y-50797D01*
X63452Y-50944D01*
X63645Y-51024D01*
X63853Y-51025D01*
X64047Y-50945D01*
X64194Y-50797D01*
X64225Y-50725D01*
X64225Y-50824D01*
X64263Y-50916D01*
X64333Y-50986D01*
X64425Y-51025D01*
X64524Y-51025D01*
X65074Y-51025D01*
X65166Y-50986D01*
X65236Y-50916D01*
X65275Y-50824D01*
X65275Y-50725D01*
X65275Y-50725D01*
X65304Y-50797D01*
X65452Y-50944D01*
X65645Y-51024D01*
X65853Y-51025D01*
X66047Y-50945D01*
X66194Y-50797D01*
X66225Y-50725D01*
X66225Y-50824D01*
X66263Y-50916D01*
X66333Y-50986D01*
X66425Y-51025D01*
X66524Y-51025D01*
X67074Y-51025D01*
X67166Y-50986D01*
X67236Y-50916D01*
X67275Y-50824D01*
X67275Y-50725D01*
X67275Y-50175D01*
X67236Y-50083D01*
X67166Y-50013D01*
X67074Y-49975D01*
X67050Y-49975D01*
X67050Y-47442D01*
X67194Y-47297D01*
X67274Y-47104D01*
X67275Y-46896D01*
X67275Y-52980D01*
X63775Y-52980D01*
X63775Y-52324D01*
X63775Y-52225D01*
X63775Y-51675D01*
X63736Y-51583D01*
X63666Y-51513D01*
X63574Y-51475D01*
X63475Y-51475D01*
X62925Y-51475D01*
X62833Y-51513D01*
X62763Y-51583D01*
X62725Y-51675D01*
X62725Y-51774D01*
X62725Y-51774D01*
X62700Y-51714D01*
X62700Y-50962D01*
X62700Y-50550D01*
X62287Y-50550D01*
X62225Y-50612D01*
X62225Y-50824D01*
X62263Y-50916D01*
X62333Y-50986D01*
X62425Y-51025D01*
X62524Y-51025D01*
X62637Y-51025D01*
X62700Y-50962D01*
X62700Y-51714D01*
X62695Y-51703D01*
X62547Y-51555D01*
X62354Y-51475D01*
X62146Y-51474D01*
X61953Y-51554D01*
X61805Y-51702D01*
X61779Y-51763D01*
X61779Y-49575D01*
X61779Y-48075D01*
X61779Y-46575D01*
X61768Y-46367D01*
X61710Y-46227D01*
X61617Y-46202D01*
X61547Y-46273D01*
X61547Y-46132D01*
X61522Y-46039D01*
X61325Y-45970D01*
X61117Y-45981D01*
X60977Y-46039D01*
X60952Y-46132D01*
X61250Y-46429D01*
X61547Y-46132D01*
X61547Y-46273D01*
X61320Y-46500D01*
X61617Y-46797D01*
X61710Y-46772D01*
X61779Y-46575D01*
X61779Y-48075D01*
X61768Y-47867D01*
X61710Y-47727D01*
X61617Y-47702D01*
X61547Y-47773D01*
X61547Y-47632D01*
X61547Y-46867D01*
X61250Y-46570D01*
X60952Y-46867D01*
X60977Y-46960D01*
X61174Y-47029D01*
X61382Y-47018D01*
X61522Y-46960D01*
X61547Y-46867D01*
X61547Y-47632D01*
X61522Y-47539D01*
X61325Y-47470D01*
X61117Y-47481D01*
X60977Y-47539D01*
X60952Y-47632D01*
X61250Y-47929D01*
X61547Y-47632D01*
X61547Y-47773D01*
X61320Y-48000D01*
X61617Y-48297D01*
X61710Y-48272D01*
X61779Y-48075D01*
X61779Y-49575D01*
X61768Y-49367D01*
X61710Y-49227D01*
X61617Y-49202D01*
X61547Y-49273D01*
X61547Y-49132D01*
X61547Y-48367D01*
X61250Y-48070D01*
X60952Y-48367D01*
X60977Y-48460D01*
X61174Y-48529D01*
X61382Y-48518D01*
X61522Y-48460D01*
X61547Y-48367D01*
X61547Y-49132D01*
X61522Y-49039D01*
X61325Y-48970D01*
X61117Y-48981D01*
X60977Y-49039D01*
X60952Y-49132D01*
X61250Y-49429D01*
X61547Y-49132D01*
X61547Y-49273D01*
X61320Y-49500D01*
X61617Y-49797D01*
X61710Y-49772D01*
X61779Y-49575D01*
X61779Y-51763D01*
X61752Y-51828D01*
X61710Y-51727D01*
X61617Y-51702D01*
X61547Y-51773D01*
X61547Y-51632D01*
X61547Y-49867D01*
X61250Y-49570D01*
X60952Y-49867D01*
X60977Y-49960D01*
X61174Y-50029D01*
X61382Y-50018D01*
X61522Y-49960D01*
X61547Y-49867D01*
X61547Y-51632D01*
X61522Y-51539D01*
X61325Y-51470D01*
X61117Y-51481D01*
X60977Y-51539D01*
X60952Y-51632D01*
X61250Y-51929D01*
X61547Y-51632D01*
X61547Y-51773D01*
X61320Y-52000D01*
X61617Y-52297D01*
X61710Y-52272D01*
X61749Y-52162D01*
X61804Y-52297D01*
X61952Y-52444D01*
X62145Y-52524D01*
X62353Y-52525D01*
X62547Y-52445D01*
X62694Y-52297D01*
X62725Y-52225D01*
X62725Y-52324D01*
X62763Y-52416D01*
X62833Y-52486D01*
X62925Y-52525D01*
X63024Y-52525D01*
X63574Y-52525D01*
X63666Y-52486D01*
X63736Y-52416D01*
X63775Y-52324D01*
X63775Y-52980D01*
X61547Y-52980D01*
X61547Y-52367D01*
X61250Y-52070D01*
X60952Y-52367D01*
X60977Y-52460D01*
X61174Y-52529D01*
X61382Y-52518D01*
X61522Y-52460D01*
X61547Y-52367D01*
X61547Y-52980D01*
X60284Y-52980D01*
X60507Y-52757D01*
X60507Y-52757D01*
X60507Y-52757D01*
X60586Y-52639D01*
X60614Y-52500D01*
X60614Y-52500D01*
X60614Y-52499D01*
X60614Y-52378D01*
X60694Y-52297D01*
X60747Y-52171D01*
X60789Y-52272D01*
X60882Y-52297D01*
X61179Y-52000D01*
X60882Y-51702D01*
X60789Y-51727D01*
X60750Y-51837D01*
X60695Y-51703D01*
X60614Y-51621D01*
X60614Y-49878D01*
X60694Y-49797D01*
X60747Y-49671D01*
X60789Y-49772D01*
X60882Y-49797D01*
X61179Y-49500D01*
X60882Y-49202D01*
X60789Y-49227D01*
X60750Y-49337D01*
X60695Y-49203D01*
X60614Y-49121D01*
X60614Y-48378D01*
X60694Y-48297D01*
X60747Y-48171D01*
X60789Y-48272D01*
X60882Y-48297D01*
X61179Y-48000D01*
X60882Y-47702D01*
X60789Y-47727D01*
X60750Y-47837D01*
X60695Y-47703D01*
X60614Y-47621D01*
X60614Y-46878D01*
X60694Y-46797D01*
X60747Y-46671D01*
X60789Y-46772D01*
X60882Y-46797D01*
X61179Y-46500D01*
X60882Y-46202D01*
X60789Y-46227D01*
X60750Y-46337D01*
X60695Y-46203D01*
X60614Y-46121D01*
X60614Y-45650D01*
X60900Y-45364D01*
X62250Y-45364D01*
X62389Y-45336D01*
X62389Y-45336D01*
X62507Y-45257D01*
X63007Y-44757D01*
X63086Y-44639D01*
X63086Y-44639D01*
X63114Y-44500D01*
X63114Y-43864D01*
X63371Y-43864D01*
X63452Y-43944D01*
X63645Y-44024D01*
X63853Y-44025D01*
X64047Y-43945D01*
X64128Y-43864D01*
X64371Y-43864D01*
X64452Y-43944D01*
X64645Y-44024D01*
X64853Y-44025D01*
X65047Y-43945D01*
X65128Y-43864D01*
X65371Y-43864D01*
X65452Y-43944D01*
X65645Y-44024D01*
X65853Y-44025D01*
X66047Y-43945D01*
X66128Y-43864D01*
X66371Y-43864D01*
X66452Y-43944D01*
X66645Y-44024D01*
X66853Y-44025D01*
X67047Y-43945D01*
X67194Y-43797D01*
X67274Y-43604D01*
X67275Y-43396D01*
X67195Y-43203D01*
X67047Y-43055D01*
X66854Y-42975D01*
X66646Y-42974D01*
X66453Y-43054D01*
X66371Y-43135D01*
X66128Y-43135D01*
X66047Y-43055D01*
X65854Y-42975D01*
X65646Y-42974D01*
X65453Y-43054D01*
X65371Y-43135D01*
X65128Y-43135D01*
X65047Y-43055D01*
X64854Y-42975D01*
X64646Y-42974D01*
X64547Y-43015D01*
X64547Y-41617D01*
X64250Y-41320D01*
X64179Y-41391D01*
X64179Y-41250D01*
X63882Y-40952D01*
X63789Y-40977D01*
X63720Y-41174D01*
X63731Y-41382D01*
X63789Y-41522D01*
X63882Y-41547D01*
X64179Y-41250D01*
X64179Y-41391D01*
X63952Y-41617D01*
X63977Y-41710D01*
X64174Y-41779D01*
X64382Y-41768D01*
X64522Y-41710D01*
X64547Y-41617D01*
X64547Y-43015D01*
X64453Y-43054D01*
X64371Y-43135D01*
X64128Y-43135D01*
X64047Y-43055D01*
X63854Y-42975D01*
X63646Y-42974D01*
X63453Y-43054D01*
X63371Y-43135D01*
X63279Y-43135D01*
X63279Y-39325D01*
X63279Y-38325D01*
X63279Y-37325D01*
X63279Y-36325D01*
X63268Y-36117D01*
X63210Y-35977D01*
X63117Y-35952D01*
X63047Y-36023D01*
X63047Y-35882D01*
X63022Y-35789D01*
X62825Y-35720D01*
X62617Y-35731D01*
X62477Y-35789D01*
X62452Y-35882D01*
X62750Y-36179D01*
X63047Y-35882D01*
X63047Y-36023D01*
X62820Y-36250D01*
X63117Y-36547D01*
X63210Y-36522D01*
X63279Y-36325D01*
X63279Y-37325D01*
X63268Y-37117D01*
X63210Y-36977D01*
X63117Y-36952D01*
X63047Y-37023D01*
X63047Y-36882D01*
X63022Y-36789D01*
X62919Y-36753D01*
X63022Y-36710D01*
X63047Y-36617D01*
X62750Y-36320D01*
X62679Y-36391D01*
X62679Y-36250D01*
X62382Y-35952D01*
X62289Y-35977D01*
X62220Y-36174D01*
X62231Y-36382D01*
X62289Y-36522D01*
X62382Y-36547D01*
X62679Y-36250D01*
X62679Y-36391D01*
X62452Y-36617D01*
X62477Y-36710D01*
X62580Y-36746D01*
X62477Y-36789D01*
X62452Y-36882D01*
X62750Y-37179D01*
X63047Y-36882D01*
X63047Y-37023D01*
X62820Y-37250D01*
X63117Y-37547D01*
X63210Y-37522D01*
X63279Y-37325D01*
X63279Y-38325D01*
X63268Y-38117D01*
X63210Y-37977D01*
X63117Y-37952D01*
X63047Y-38023D01*
X63047Y-37882D01*
X63022Y-37789D01*
X62919Y-37753D01*
X63022Y-37710D01*
X63047Y-37617D01*
X62750Y-37320D01*
X62452Y-37617D01*
X62477Y-37710D01*
X62580Y-37746D01*
X62477Y-37789D01*
X62452Y-37882D01*
X62750Y-38179D01*
X63047Y-37882D01*
X63047Y-38023D01*
X62820Y-38250D01*
X63117Y-38547D01*
X63210Y-38522D01*
X63279Y-38325D01*
X63279Y-39325D01*
X63268Y-39117D01*
X63210Y-38977D01*
X63117Y-38952D01*
X63047Y-39023D01*
X63047Y-38882D01*
X63022Y-38789D01*
X62919Y-38753D01*
X63022Y-38710D01*
X63047Y-38617D01*
X62750Y-38320D01*
X62452Y-38617D01*
X62477Y-38710D01*
X62580Y-38746D01*
X62477Y-38789D01*
X62452Y-38882D01*
X62750Y-39179D01*
X63047Y-38882D01*
X63047Y-39023D01*
X62820Y-39250D01*
X63117Y-39547D01*
X63210Y-39522D01*
X63279Y-39325D01*
X63279Y-43135D01*
X63275Y-43135D01*
X63275Y-42925D01*
X63236Y-42833D01*
X63166Y-42763D01*
X63074Y-42725D01*
X62975Y-42725D01*
X62975Y-42725D01*
X63047Y-42695D01*
X63194Y-42547D01*
X63274Y-42354D01*
X63275Y-42146D01*
X63195Y-41953D01*
X63047Y-41805D01*
X62914Y-41749D01*
X63047Y-41695D01*
X63194Y-41547D01*
X63274Y-41354D01*
X63275Y-41146D01*
X63195Y-40953D01*
X63047Y-40805D01*
X62914Y-40749D01*
X63047Y-40695D01*
X63194Y-40547D01*
X63274Y-40354D01*
X63275Y-40146D01*
X63195Y-39953D01*
X63047Y-39805D01*
X62921Y-39752D01*
X63022Y-39710D01*
X63047Y-39617D01*
X62750Y-39320D01*
X62452Y-39617D01*
X62477Y-39710D01*
X62587Y-39749D01*
X62453Y-39804D01*
X62340Y-39916D01*
X62300Y-39875D01*
X62300Y-39525D01*
X62382Y-39547D01*
X62679Y-39250D01*
X62382Y-38952D01*
X62300Y-38974D01*
X62300Y-38525D01*
X62382Y-38547D01*
X62679Y-38250D01*
X62382Y-37952D01*
X62300Y-37974D01*
X62300Y-37525D01*
X62382Y-37547D01*
X62679Y-37250D01*
X62382Y-36952D01*
X62289Y-36977D01*
X62220Y-37174D01*
X62227Y-37310D01*
X62212Y-37287D01*
X61962Y-37037D01*
X61864Y-36972D01*
X61804Y-36960D01*
X61804Y-36331D01*
X61793Y-36113D01*
X61731Y-35962D01*
X61635Y-35934D01*
X61565Y-36005D01*
X61565Y-35864D01*
X61537Y-35768D01*
X61331Y-35695D01*
X61113Y-35706D01*
X60962Y-35768D01*
X60934Y-35864D01*
X61250Y-36179D01*
X61565Y-35864D01*
X61565Y-36005D01*
X61320Y-36250D01*
X61635Y-36565D01*
X61731Y-36537D01*
X61804Y-36331D01*
X61804Y-36960D01*
X61750Y-36950D01*
X61721Y-36950D01*
X61716Y-36938D01*
X61561Y-36784D01*
X61486Y-36752D01*
X61537Y-36731D01*
X61565Y-36635D01*
X61250Y-36320D01*
X61244Y-36326D01*
X61173Y-36255D01*
X61179Y-36250D01*
X60864Y-35934D01*
X60768Y-35962D01*
X60749Y-36017D01*
X60716Y-35938D01*
X60561Y-35784D01*
X60359Y-35700D01*
X60141Y-35699D01*
X59938Y-35783D01*
X59784Y-35938D01*
X59750Y-36019D01*
X59716Y-35938D01*
X59561Y-35784D01*
X59359Y-35700D01*
X59141Y-35699D01*
X58938Y-35783D01*
X58784Y-35938D01*
X58700Y-36140D01*
X58699Y-36358D01*
X58737Y-36450D01*
X57000Y-36450D01*
X56124Y-36450D01*
X55550Y-35875D01*
X55550Y-35815D01*
X55742Y-36007D01*
X55742Y-36007D01*
X55742Y-36007D01*
X55860Y-36086D01*
X56000Y-36114D01*
X56000Y-36114D01*
X56000Y-36114D01*
X58000Y-36114D01*
X58139Y-36086D01*
X58139Y-36086D01*
X58257Y-36007D01*
X58490Y-35774D01*
X58603Y-35775D01*
X58797Y-35695D01*
X58942Y-35550D01*
X59000Y-35550D01*
X59000Y-35549D01*
X59114Y-35527D01*
X59114Y-35527D01*
X59212Y-35462D01*
X59462Y-35212D01*
X59462Y-35212D01*
X59501Y-35153D01*
X59527Y-35114D01*
X59527Y-35114D01*
X59550Y-35000D01*
X59550Y-31500D01*
X59527Y-31385D01*
X59527Y-31385D01*
X59501Y-31346D01*
X59462Y-31287D01*
X59216Y-31042D01*
X59231Y-31037D01*
X59304Y-30831D01*
X59293Y-30613D01*
X59231Y-30462D01*
X59135Y-30434D01*
X58820Y-30750D01*
X58826Y-30755D01*
X58755Y-30826D01*
X58750Y-30820D01*
X58744Y-30826D01*
X58673Y-30755D01*
X58679Y-30750D01*
X58673Y-30744D01*
X58744Y-30673D01*
X58750Y-30679D01*
X59065Y-30364D01*
X59037Y-30268D01*
X58982Y-30249D01*
X59061Y-30216D01*
X59215Y-30061D01*
X59299Y-29859D01*
X59300Y-29641D01*
X59216Y-29438D01*
X59061Y-29284D01*
X58859Y-29200D01*
X58641Y-29199D01*
X58438Y-29283D01*
X58284Y-29438D01*
X58250Y-29519D01*
X58216Y-29438D01*
X58061Y-29284D01*
X57859Y-29200D01*
X57641Y-29199D01*
X57438Y-29283D01*
X57284Y-29438D01*
X57250Y-29519D01*
X57216Y-29438D01*
X57061Y-29284D01*
X57050Y-29279D01*
X57050Y-29250D01*
X57027Y-29135D01*
X57027Y-29135D01*
X57001Y-29096D01*
X56962Y-29037D01*
X56712Y-28787D01*
X56614Y-28722D01*
X56500Y-28700D01*
X56250Y-28700D01*
X56000Y-28700D01*
X52500Y-28700D01*
X52385Y-28722D01*
X52346Y-28748D01*
X52287Y-28787D01*
X52037Y-29037D01*
X51972Y-29135D01*
X51952Y-29238D01*
X51859Y-29200D01*
X51641Y-29199D01*
X51438Y-29283D01*
X51284Y-29438D01*
X51250Y-29519D01*
X51216Y-29438D01*
X51061Y-29284D01*
X50859Y-29200D01*
X50641Y-29199D01*
X50438Y-29283D01*
X50284Y-29438D01*
X50250Y-29519D01*
X50216Y-29438D01*
X50061Y-29284D01*
X49859Y-29200D01*
X49641Y-29199D01*
X49438Y-29283D01*
X49284Y-29438D01*
X49250Y-29519D01*
X49216Y-29438D01*
X49061Y-29284D01*
X48859Y-29200D01*
X48641Y-29199D01*
X48438Y-29283D01*
X48284Y-29438D01*
X48250Y-29519D01*
X48216Y-29438D01*
X48061Y-29284D01*
X47859Y-29200D01*
X47641Y-29199D01*
X47438Y-29283D01*
X47284Y-29438D01*
X47250Y-29519D01*
X47216Y-29438D01*
X47061Y-29284D01*
X46859Y-29200D01*
X46641Y-29199D01*
X46438Y-29283D01*
X46284Y-29438D01*
X46200Y-29640D01*
X46199Y-29858D01*
X46283Y-30061D01*
X46422Y-30200D01*
X46400Y-30200D01*
X46308Y-30238D01*
X46238Y-30308D01*
X46200Y-30400D01*
X46200Y-30499D01*
X46200Y-31099D01*
X46238Y-31191D01*
X46308Y-31261D01*
X46400Y-31300D01*
X46499Y-31300D01*
X47099Y-31300D01*
X47191Y-31261D01*
X47261Y-31191D01*
X47300Y-31099D01*
X47300Y-31077D01*
X47438Y-31215D01*
X47640Y-31299D01*
X47858Y-31300D01*
X48061Y-31216D01*
X48215Y-31061D01*
X48249Y-30980D01*
X48283Y-31061D01*
X48438Y-31215D01*
X48640Y-31299D01*
X48858Y-31300D01*
X49061Y-31216D01*
X49215Y-31061D01*
X49249Y-30980D01*
X49283Y-31061D01*
X49438Y-31215D01*
X49640Y-31299D01*
X49858Y-31300D01*
X50061Y-31216D01*
X50215Y-31061D01*
X50249Y-30980D01*
X50283Y-31061D01*
X50438Y-31215D01*
X50640Y-31299D01*
X50858Y-31300D01*
X51061Y-31216D01*
X51215Y-31061D01*
X51249Y-30980D01*
X51283Y-31061D01*
X51438Y-31215D01*
X51640Y-31299D01*
X51775Y-31300D01*
X51568Y-31506D01*
X51453Y-31554D01*
X51305Y-31702D01*
X51252Y-31828D01*
X51210Y-31727D01*
X51117Y-31702D01*
X51047Y-31773D01*
X51047Y-31632D01*
X51022Y-31539D01*
X50825Y-31470D01*
X50617Y-31481D01*
X50477Y-31539D01*
X50452Y-31632D01*
X50750Y-31929D01*
X51047Y-31632D01*
X51047Y-31773D01*
X50820Y-32000D01*
X51117Y-32297D01*
X51210Y-32272D01*
X51249Y-32162D01*
X51304Y-32297D01*
X51452Y-32444D01*
X51645Y-32524D01*
X51853Y-32525D01*
X51950Y-32485D01*
X51950Y-32625D01*
X51537Y-33037D01*
X51472Y-33135D01*
X51450Y-33250D01*
X51450Y-34557D01*
X51305Y-34702D01*
X51249Y-34835D01*
X51195Y-34703D01*
X51047Y-34555D01*
X51047Y-34554D01*
X51047Y-32367D01*
X50750Y-32070D01*
X50679Y-32141D01*
X50679Y-32000D01*
X50382Y-31702D01*
X50289Y-31727D01*
X50253Y-31830D01*
X50210Y-31727D01*
X50117Y-31702D01*
X50047Y-31773D01*
X50047Y-31632D01*
X50022Y-31539D01*
X49825Y-31470D01*
X49617Y-31481D01*
X49477Y-31539D01*
X49452Y-31632D01*
X49750Y-31929D01*
X50047Y-31632D01*
X50047Y-31773D01*
X49820Y-32000D01*
X50117Y-32297D01*
X50210Y-32272D01*
X50246Y-32169D01*
X50289Y-32272D01*
X50382Y-32297D01*
X50679Y-32000D01*
X50679Y-32141D01*
X50452Y-32367D01*
X50477Y-32460D01*
X50674Y-32529D01*
X50882Y-32518D01*
X51022Y-32460D01*
X51047Y-32367D01*
X51047Y-34554D01*
X50854Y-34475D01*
X50646Y-34474D01*
X50453Y-34554D01*
X50305Y-34702D01*
X50249Y-34835D01*
X50195Y-34703D01*
X50047Y-34555D01*
X50047Y-34554D01*
X50047Y-32367D01*
X49750Y-32070D01*
X49679Y-32141D01*
X49679Y-32000D01*
X49382Y-31702D01*
X49289Y-31727D01*
X49253Y-31830D01*
X49210Y-31727D01*
X49117Y-31702D01*
X49047Y-31773D01*
X49047Y-31632D01*
X49022Y-31539D01*
X48825Y-31470D01*
X48617Y-31481D01*
X48477Y-31539D01*
X48452Y-31632D01*
X48750Y-31929D01*
X49047Y-31632D01*
X49047Y-31773D01*
X48820Y-32000D01*
X49117Y-32297D01*
X49210Y-32272D01*
X49246Y-32169D01*
X49289Y-32272D01*
X49382Y-32297D01*
X49679Y-32000D01*
X49679Y-32141D01*
X49452Y-32367D01*
X49477Y-32460D01*
X49674Y-32529D01*
X49882Y-32518D01*
X50022Y-32460D01*
X50047Y-32367D01*
X50047Y-34554D01*
X49854Y-34475D01*
X49646Y-34474D01*
X49453Y-34554D01*
X49305Y-34702D01*
X49249Y-34835D01*
X49195Y-34703D01*
X49047Y-34555D01*
X49047Y-34554D01*
X49047Y-32367D01*
X48750Y-32070D01*
X48679Y-32141D01*
X48679Y-32000D01*
X48382Y-31702D01*
X48289Y-31727D01*
X48253Y-31830D01*
X48210Y-31727D01*
X48117Y-31702D01*
X48047Y-31773D01*
X48047Y-31632D01*
X48022Y-31539D01*
X47825Y-31470D01*
X47617Y-31481D01*
X47477Y-31539D01*
X47452Y-31632D01*
X47750Y-31929D01*
X48047Y-31632D01*
X48047Y-31773D01*
X47820Y-32000D01*
X48117Y-32297D01*
X48210Y-32272D01*
X48246Y-32169D01*
X48289Y-32272D01*
X48382Y-32297D01*
X48679Y-32000D01*
X48679Y-32141D01*
X48452Y-32367D01*
X48477Y-32460D01*
X48674Y-32529D01*
X48882Y-32518D01*
X49022Y-32460D01*
X49047Y-32367D01*
X49047Y-34554D01*
X48854Y-34475D01*
X48646Y-34474D01*
X48453Y-34554D01*
X48305Y-34702D01*
X48249Y-34835D01*
X48195Y-34703D01*
X48047Y-34555D01*
X48047Y-34554D01*
X48047Y-32367D01*
X47750Y-32070D01*
X47679Y-32141D01*
X47679Y-32000D01*
X47382Y-31702D01*
X47289Y-31727D01*
X47220Y-31924D01*
X47231Y-32132D01*
X47289Y-32272D01*
X47382Y-32297D01*
X47679Y-32000D01*
X47679Y-32141D01*
X47452Y-32367D01*
X47477Y-32460D01*
X47674Y-32529D01*
X47882Y-32518D01*
X48022Y-32460D01*
X48047Y-32367D01*
X48047Y-34554D01*
X47854Y-34475D01*
X47646Y-34474D01*
X47453Y-34554D01*
X47305Y-34702D01*
X47225Y-34895D01*
X47224Y-35103D01*
X47304Y-35297D01*
X47452Y-35444D01*
X47645Y-35524D01*
X47853Y-35525D01*
X48047Y-35445D01*
X48194Y-35297D01*
X48250Y-35164D01*
X48304Y-35297D01*
X48452Y-35444D01*
X48645Y-35524D01*
X48853Y-35525D01*
X49047Y-35445D01*
X49194Y-35297D01*
X49250Y-35164D01*
X49304Y-35297D01*
X49452Y-35444D01*
X49645Y-35524D01*
X49853Y-35525D01*
X50047Y-35445D01*
X50194Y-35297D01*
X50250Y-35164D01*
X50304Y-35297D01*
X50450Y-35442D01*
X50450Y-35557D01*
X50305Y-35702D01*
X50225Y-35895D01*
X50224Y-36103D01*
X50304Y-36297D01*
X50452Y-36444D01*
X50578Y-36497D01*
X50537Y-36537D01*
X50472Y-36635D01*
X50450Y-36750D01*
X50450Y-36764D01*
X50354Y-36725D01*
X50146Y-36724D01*
X49953Y-36804D01*
X49805Y-36952D01*
X49749Y-37085D01*
X49695Y-36953D01*
X49547Y-36805D01*
X49354Y-36725D01*
X49146Y-36724D01*
X48953Y-36804D01*
X48805Y-36952D01*
X48749Y-37085D01*
X48695Y-36953D01*
X48547Y-36805D01*
X48354Y-36725D01*
X48146Y-36724D01*
X47953Y-36804D01*
X47805Y-36952D01*
X47775Y-37024D01*
X47775Y-35896D01*
X47695Y-35703D01*
X47547Y-35555D01*
X47354Y-35475D01*
X47146Y-35474D01*
X46953Y-35554D01*
X46805Y-35702D01*
X46725Y-35895D01*
X46724Y-36103D01*
X46804Y-36297D01*
X46952Y-36444D01*
X47145Y-36524D01*
X47353Y-36525D01*
X47547Y-36445D01*
X47694Y-36297D01*
X47774Y-36104D01*
X47775Y-35896D01*
X47775Y-37024D01*
X47749Y-37085D01*
X47695Y-36953D01*
X47547Y-36805D01*
X47354Y-36725D01*
X47146Y-36724D01*
X46953Y-36804D01*
X46805Y-36952D01*
X46725Y-37145D01*
X46724Y-37353D01*
X46804Y-37547D01*
X46952Y-37694D01*
X47145Y-37774D01*
X47353Y-37775D01*
X47547Y-37695D01*
X47694Y-37547D01*
X47750Y-37414D01*
X47804Y-37547D01*
X47950Y-37692D01*
X47950Y-38464D01*
X47945Y-38453D01*
X47797Y-38305D01*
X47604Y-38225D01*
X47396Y-38224D01*
X47203Y-38304D01*
X47055Y-38452D01*
X46975Y-38645D01*
X46974Y-38853D01*
X47054Y-39047D01*
X47200Y-39192D01*
X47200Y-39500D01*
X47222Y-39614D01*
X47287Y-39712D01*
X47300Y-39725D01*
X47146Y-39724D01*
X46953Y-39804D01*
X46805Y-39952D01*
X46725Y-40145D01*
X46724Y-40353D01*
X46804Y-40547D01*
X46952Y-40694D01*
X47145Y-40774D01*
X47353Y-40775D01*
X47450Y-40735D01*
X47450Y-42725D01*
X46925Y-42725D01*
X46833Y-42763D01*
X46763Y-42833D01*
X46725Y-42925D01*
X46725Y-42950D01*
X46000Y-42950D01*
X45885Y-42972D01*
X45787Y-43037D01*
X45318Y-43506D01*
X45203Y-43554D01*
X45055Y-43702D01*
X44975Y-43895D01*
X44974Y-44103D01*
X45054Y-44297D01*
X45202Y-44444D01*
X45395Y-44524D01*
X45603Y-44525D01*
X45700Y-44485D01*
X45700Y-47014D01*
X45604Y-46975D01*
X45396Y-46974D01*
X45203Y-47054D01*
X45055Y-47202D01*
X44975Y-47395D01*
X44974Y-47603D01*
X45054Y-47797D01*
X45135Y-47878D01*
X45135Y-50000D01*
X45163Y-50139D01*
X45242Y-50257D01*
X45492Y-50507D01*
X45492Y-50507D01*
X45492Y-50507D01*
X45610Y-50586D01*
X45750Y-50614D01*
X45750Y-50614D01*
X45750Y-50614D01*
X47099Y-50614D01*
X47385Y-50900D01*
X47385Y-51621D01*
X47305Y-51702D01*
X47249Y-51835D01*
X47195Y-51703D01*
X47047Y-51555D01*
X46854Y-51475D01*
X46646Y-51474D01*
X46453Y-51554D01*
X46305Y-51702D01*
X46225Y-51895D01*
X46224Y-52103D01*
X46304Y-52297D01*
X46452Y-52444D01*
X46645Y-52524D01*
X46853Y-52525D01*
X47047Y-52445D01*
X47194Y-52297D01*
X47250Y-52164D01*
X47304Y-52297D01*
X47447Y-52439D01*
X47447Y-52439D01*
X47492Y-52507D01*
X47965Y-52980D01*
X44519Y-52980D01*
X44519Y-28019D01*
X60480Y-28019D01*
X60480Y-34750D01*
X60500Y-34853D01*
X60559Y-34940D01*
X60646Y-34999D01*
X60750Y-35019D01*
X61750Y-35019D01*
X62250Y-35019D01*
X66250Y-35019D01*
X66279Y-35013D01*
X66225Y-35145D01*
X66224Y-35353D01*
X66304Y-35547D01*
X66452Y-35694D01*
X66585Y-35750D01*
X66453Y-35804D01*
X66305Y-35952D01*
X66225Y-36145D01*
X66224Y-36353D01*
X66304Y-36547D01*
X66452Y-36694D01*
X66585Y-36750D01*
X66453Y-36804D01*
X66305Y-36952D01*
X66225Y-37145D01*
X66224Y-37353D01*
X66304Y-37547D01*
X66452Y-37694D01*
X66524Y-37725D01*
X66425Y-37725D01*
X66333Y-37763D01*
X66263Y-37833D01*
X66225Y-37925D01*
X66225Y-38024D01*
X66225Y-38574D01*
X66263Y-38666D01*
X66290Y-38694D01*
X66099Y-38885D01*
X65775Y-38885D01*
X65775Y-37896D01*
X65695Y-37703D01*
X65547Y-37555D01*
X65354Y-37475D01*
X65146Y-37474D01*
X64953Y-37554D01*
X64805Y-37702D01*
X64752Y-37828D01*
X64710Y-37727D01*
X64617Y-37702D01*
X64547Y-37773D01*
X64547Y-37632D01*
X64522Y-37539D01*
X64325Y-37470D01*
X64117Y-37481D01*
X63977Y-37539D01*
X63952Y-37632D01*
X64250Y-37929D01*
X64547Y-37632D01*
X64547Y-37773D01*
X64320Y-38000D01*
X64617Y-38297D01*
X64710Y-38272D01*
X64749Y-38162D01*
X64804Y-38297D01*
X64952Y-38444D01*
X65145Y-38524D01*
X65353Y-38525D01*
X65547Y-38445D01*
X65694Y-38297D01*
X65774Y-38104D01*
X65775Y-37896D01*
X65775Y-38885D01*
X65758Y-38885D01*
X65736Y-38833D01*
X65666Y-38763D01*
X65574Y-38725D01*
X65475Y-38725D01*
X64925Y-38725D01*
X64833Y-38763D01*
X64763Y-38833D01*
X64725Y-38925D01*
X64725Y-39012D01*
X64710Y-38977D01*
X64617Y-38952D01*
X64547Y-39023D01*
X64547Y-38882D01*
X64547Y-38367D01*
X64250Y-38070D01*
X64179Y-38141D01*
X64179Y-38000D01*
X63882Y-37702D01*
X63789Y-37727D01*
X63720Y-37924D01*
X63731Y-38132D01*
X63789Y-38272D01*
X63882Y-38297D01*
X64179Y-38000D01*
X64179Y-38141D01*
X63952Y-38367D01*
X63977Y-38460D01*
X64174Y-38529D01*
X64382Y-38518D01*
X64522Y-38460D01*
X64547Y-38367D01*
X64547Y-38882D01*
X64522Y-38789D01*
X64325Y-38720D01*
X64117Y-38731D01*
X63977Y-38789D01*
X63952Y-38882D01*
X64250Y-39179D01*
X64547Y-38882D01*
X64547Y-39023D01*
X64320Y-39250D01*
X64617Y-39547D01*
X64710Y-39522D01*
X64725Y-39481D01*
X64725Y-39574D01*
X64763Y-39666D01*
X64833Y-39736D01*
X64885Y-39758D01*
X64885Y-40871D01*
X64805Y-40952D01*
X64752Y-41078D01*
X64710Y-40977D01*
X64617Y-40952D01*
X64547Y-41023D01*
X64547Y-40882D01*
X64547Y-39617D01*
X64250Y-39320D01*
X64179Y-39391D01*
X64179Y-39250D01*
X63882Y-38952D01*
X63789Y-38977D01*
X63720Y-39174D01*
X63731Y-39382D01*
X63789Y-39522D01*
X63882Y-39547D01*
X64179Y-39250D01*
X64179Y-39391D01*
X63952Y-39617D01*
X63977Y-39710D01*
X64174Y-39779D01*
X64382Y-39768D01*
X64522Y-39710D01*
X64547Y-39617D01*
X64547Y-40882D01*
X64522Y-40789D01*
X64325Y-40720D01*
X64117Y-40731D01*
X63977Y-40789D01*
X63952Y-40882D01*
X64250Y-41179D01*
X64547Y-40882D01*
X64547Y-41023D01*
X64320Y-41250D01*
X64617Y-41547D01*
X64710Y-41522D01*
X64749Y-41412D01*
X64804Y-41547D01*
X64952Y-41694D01*
X65145Y-41774D01*
X65353Y-41775D01*
X65547Y-41695D01*
X65694Y-41547D01*
X65774Y-41354D01*
X65775Y-41146D01*
X65695Y-40953D01*
X65614Y-40871D01*
X65614Y-39758D01*
X65666Y-39736D01*
X65736Y-39666D01*
X65758Y-39614D01*
X66250Y-39614D01*
X66389Y-39586D01*
X66389Y-39586D01*
X66507Y-39507D01*
X66900Y-39114D01*
X67250Y-39114D01*
X67389Y-39086D01*
X67389Y-39086D01*
X67507Y-39007D01*
X67757Y-38757D01*
X67757Y-38757D01*
X67757Y-38757D01*
X67836Y-38639D01*
X67864Y-38500D01*
X67864Y-38500D01*
X67864Y-38499D01*
X67864Y-32020D01*
X68047Y-31945D01*
X68128Y-31864D01*
X68500Y-31864D01*
X68639Y-31836D01*
X68639Y-31836D01*
X68757Y-31757D01*
X69400Y-31114D01*
X70871Y-31114D01*
X70952Y-31194D01*
X71145Y-31274D01*
X71353Y-31275D01*
X71547Y-31195D01*
X71694Y-31047D01*
X71750Y-30914D01*
X71804Y-31047D01*
X71952Y-31194D01*
X72145Y-31274D01*
X72353Y-31275D01*
X72547Y-31195D01*
X72694Y-31047D01*
X72750Y-30914D01*
X72804Y-31047D01*
X72952Y-31194D01*
X73145Y-31274D01*
X73353Y-31275D01*
X73547Y-31195D01*
X73694Y-31047D01*
X73747Y-30921D01*
X73789Y-31022D01*
X73882Y-31047D01*
X74179Y-30750D01*
X74173Y-30744D01*
X74244Y-30673D01*
X74250Y-30679D01*
X74547Y-30382D01*
X74522Y-30289D01*
X74325Y-30220D01*
X74117Y-30231D01*
X74001Y-30279D01*
X74337Y-29775D01*
X74353Y-29775D01*
X74547Y-29695D01*
X74694Y-29547D01*
X74725Y-29475D01*
X74725Y-29574D01*
X74763Y-29666D01*
X74833Y-29736D01*
X74925Y-29775D01*
X75024Y-29775D01*
X75574Y-29775D01*
X75666Y-29736D01*
X75736Y-29666D01*
X75775Y-29574D01*
X75775Y-29475D01*
X75775Y-28925D01*
X75736Y-28833D01*
X75666Y-28763D01*
X75574Y-28725D01*
X75475Y-28725D01*
X74925Y-28725D01*
X74833Y-28763D01*
X74763Y-28833D01*
X74725Y-28925D01*
X74725Y-29024D01*
X74725Y-29024D01*
X74695Y-28953D01*
X74547Y-28805D01*
X74475Y-28774D01*
X74603Y-28775D01*
X74797Y-28695D01*
X74944Y-28547D01*
X75024Y-28354D01*
X75025Y-28146D01*
X74972Y-28019D01*
X76287Y-28019D01*
X76203Y-28054D01*
X76055Y-28202D01*
X75975Y-28395D01*
X75974Y-28603D01*
X76054Y-28797D01*
X76202Y-28944D01*
X76395Y-29024D01*
X76603Y-29025D01*
X76797Y-28945D01*
X76944Y-28797D01*
X77024Y-28604D01*
X77025Y-28396D01*
X76945Y-28203D01*
X76797Y-28055D01*
X76712Y-28019D01*
X79774Y-28019D01*
X79727Y-28039D01*
X79702Y-28132D01*
X80000Y-28429D01*
X80297Y-28132D01*
X80272Y-28039D01*
X80216Y-28019D01*
X80480Y-28019D01*
X80480Y-28274D01*
X80460Y-28227D01*
X80367Y-28202D01*
X80070Y-28500D01*
X80367Y-28797D01*
X80460Y-28772D01*
X80480Y-28716D01*
X80480Y-34980D01*
X80480Y-34980D01*
G37*
G54D15*
X80480Y-34980D02*
X80297Y-34980D01*
X80297Y-28867D01*
X80000Y-28570D01*
X79929Y-28641D01*
X79929Y-28500D01*
X79632Y-28202D01*
X79539Y-28227D01*
X79470Y-28424D01*
X79481Y-28632D01*
X79539Y-28772D01*
X79632Y-28797D01*
X79929Y-28500D01*
X79929Y-28641D01*
X79702Y-28867D01*
X79727Y-28960D01*
X79924Y-29029D01*
X80132Y-29018D01*
X80272Y-28960D01*
X80297Y-28867D01*
X80297Y-34980D01*
X80279Y-34980D01*
X80279Y-29825D01*
X80268Y-29617D01*
X80210Y-29477D01*
X80117Y-29452D01*
X80047Y-29523D01*
X80047Y-29382D01*
X80022Y-29289D01*
X79825Y-29220D01*
X79617Y-29231D01*
X79477Y-29289D01*
X79452Y-29382D01*
X79750Y-29679D01*
X80047Y-29382D01*
X80047Y-29523D01*
X79820Y-29750D01*
X80117Y-30047D01*
X80210Y-30022D01*
X80279Y-29825D01*
X80279Y-34980D01*
X80275Y-34980D01*
X80275Y-31074D01*
X80275Y-30975D01*
X80275Y-30425D01*
X80236Y-30333D01*
X80166Y-30263D01*
X80074Y-30225D01*
X79987Y-30225D01*
X80022Y-30210D01*
X80047Y-30117D01*
X79750Y-29820D01*
X79679Y-29891D01*
X79679Y-29750D01*
X79382Y-29452D01*
X79289Y-29477D01*
X79220Y-29674D01*
X79231Y-29882D01*
X79289Y-30022D01*
X79382Y-30047D01*
X79679Y-29750D01*
X79679Y-29891D01*
X79452Y-30117D01*
X79477Y-30210D01*
X79518Y-30225D01*
X79425Y-30225D01*
X79333Y-30263D01*
X79263Y-30333D01*
X79225Y-30425D01*
X79225Y-30524D01*
X79225Y-31074D01*
X79263Y-31166D01*
X79333Y-31236D01*
X79425Y-31275D01*
X79524Y-31275D01*
X80074Y-31275D01*
X80166Y-31236D01*
X80236Y-31166D01*
X80275Y-31074D01*
X80275Y-34980D01*
X78775Y-34980D01*
X78775Y-33646D01*
X78775Y-30646D01*
X78695Y-30453D01*
X78547Y-30305D01*
X78354Y-30225D01*
X78146Y-30224D01*
X77953Y-30304D01*
X77805Y-30452D01*
X77749Y-30585D01*
X77695Y-30453D01*
X77547Y-30305D01*
X77354Y-30225D01*
X77146Y-30224D01*
X76953Y-30304D01*
X76805Y-30452D01*
X76749Y-30585D01*
X76695Y-30453D01*
X76547Y-30305D01*
X76354Y-30225D01*
X76146Y-30224D01*
X75953Y-30304D01*
X75805Y-30452D01*
X75752Y-30578D01*
X75710Y-30477D01*
X75617Y-30452D01*
X75547Y-30523D01*
X75547Y-30382D01*
X75522Y-30289D01*
X75325Y-30220D01*
X75117Y-30231D01*
X74977Y-30289D01*
X74952Y-30382D01*
X75250Y-30679D01*
X75547Y-30382D01*
X75547Y-30523D01*
X75320Y-30750D01*
X75617Y-31047D01*
X75710Y-31022D01*
X75749Y-30912D01*
X75804Y-31047D01*
X75952Y-31194D01*
X76145Y-31274D01*
X76353Y-31275D01*
X76547Y-31195D01*
X76694Y-31047D01*
X76750Y-30914D01*
X76804Y-31047D01*
X76952Y-31194D01*
X77145Y-31274D01*
X77353Y-31275D01*
X77547Y-31195D01*
X77694Y-31047D01*
X77750Y-30914D01*
X77804Y-31047D01*
X77952Y-31194D01*
X78145Y-31274D01*
X78353Y-31275D01*
X78547Y-31195D01*
X78694Y-31047D01*
X78774Y-30854D01*
X78775Y-30646D01*
X78775Y-33646D01*
X78695Y-33453D01*
X78547Y-33305D01*
X78354Y-33225D01*
X78146Y-33224D01*
X77953Y-33304D01*
X77805Y-33452D01*
X77749Y-33585D01*
X77695Y-33453D01*
X77547Y-33305D01*
X77354Y-33225D01*
X77146Y-33224D01*
X76953Y-33304D01*
X76805Y-33452D01*
X76749Y-33585D01*
X76695Y-33453D01*
X76547Y-33305D01*
X76354Y-33225D01*
X76146Y-33224D01*
X75953Y-33304D01*
X75805Y-33452D01*
X75752Y-33578D01*
X75710Y-33477D01*
X75617Y-33452D01*
X75547Y-33523D01*
X75547Y-33382D01*
X75547Y-31117D01*
X75250Y-30820D01*
X75179Y-30891D01*
X75179Y-30750D01*
X74882Y-30452D01*
X74789Y-30477D01*
X74753Y-30580D01*
X74710Y-30477D01*
X74617Y-30452D01*
X74320Y-30750D01*
X74617Y-31047D01*
X74710Y-31022D01*
X74746Y-30919D01*
X74789Y-31022D01*
X74882Y-31047D01*
X75179Y-30750D01*
X75179Y-30891D01*
X74952Y-31117D01*
X74977Y-31210D01*
X75174Y-31279D01*
X75382Y-31268D01*
X75522Y-31210D01*
X75547Y-31117D01*
X75547Y-33382D01*
X75522Y-33289D01*
X75325Y-33220D01*
X75117Y-33231D01*
X74977Y-33289D01*
X74952Y-33382D01*
X75250Y-33679D01*
X75547Y-33382D01*
X75547Y-33523D01*
X75320Y-33750D01*
X75326Y-33755D01*
X75255Y-33826D01*
X75250Y-33820D01*
X75244Y-33826D01*
X75173Y-33755D01*
X75179Y-33750D01*
X74882Y-33452D01*
X74789Y-33477D01*
X74753Y-33580D01*
X74710Y-33477D01*
X74617Y-33452D01*
X74547Y-33523D01*
X74547Y-33382D01*
X74547Y-31117D01*
X74250Y-30820D01*
X73952Y-31117D01*
X73977Y-31210D01*
X74174Y-31279D01*
X74382Y-31268D01*
X74522Y-31210D01*
X74547Y-31117D01*
X74547Y-33382D01*
X74522Y-33289D01*
X74325Y-33220D01*
X74117Y-33231D01*
X73977Y-33289D01*
X73952Y-33382D01*
X74250Y-33679D01*
X74547Y-33382D01*
X74547Y-33523D01*
X74320Y-33750D01*
X74326Y-33755D01*
X74255Y-33826D01*
X74250Y-33820D01*
X73952Y-34117D01*
X73977Y-34210D01*
X74174Y-34279D01*
X74206Y-34278D01*
X74113Y-34371D01*
X74047Y-34305D01*
X73854Y-34225D01*
X73646Y-34224D01*
X73453Y-34304D01*
X73305Y-34452D01*
X73275Y-34524D01*
X73275Y-34425D01*
X73236Y-34333D01*
X73209Y-34305D01*
X73240Y-34274D01*
X73353Y-34275D01*
X73547Y-34195D01*
X73694Y-34047D01*
X73747Y-33921D01*
X73789Y-34022D01*
X73882Y-34047D01*
X74179Y-33750D01*
X73882Y-33452D01*
X73789Y-33477D01*
X73750Y-33587D01*
X73695Y-33453D01*
X73547Y-33305D01*
X73354Y-33225D01*
X73146Y-33224D01*
X72953Y-33304D01*
X72805Y-33452D01*
X72749Y-33585D01*
X72695Y-33453D01*
X72547Y-33305D01*
X72354Y-33225D01*
X72146Y-33224D01*
X71953Y-33304D01*
X71805Y-33452D01*
X71775Y-33524D01*
X71775Y-33425D01*
X71736Y-33333D01*
X71666Y-33263D01*
X71574Y-33225D01*
X71475Y-33225D01*
X70925Y-33225D01*
X70833Y-33263D01*
X70763Y-33333D01*
X70725Y-33425D01*
X70725Y-33450D01*
X70692Y-33450D01*
X70547Y-33305D01*
X70354Y-33225D01*
X70146Y-33224D01*
X69953Y-33304D01*
X69805Y-33452D01*
X69725Y-33645D01*
X69724Y-33853D01*
X69804Y-34047D01*
X69952Y-34194D01*
X70145Y-34274D01*
X70353Y-34275D01*
X70547Y-34195D01*
X70692Y-34050D01*
X70725Y-34050D01*
X70725Y-34074D01*
X70763Y-34166D01*
X70833Y-34236D01*
X70925Y-34275D01*
X71024Y-34275D01*
X71450Y-34275D01*
X71450Y-36475D01*
X71425Y-36475D01*
X71333Y-36513D01*
X71263Y-36583D01*
X71225Y-36675D01*
X71225Y-36774D01*
X71225Y-37324D01*
X71263Y-37416D01*
X71333Y-37486D01*
X71425Y-37525D01*
X71524Y-37525D01*
X71524Y-37525D01*
X71453Y-37554D01*
X71305Y-37702D01*
X71225Y-37895D01*
X71224Y-38103D01*
X71304Y-38297D01*
X71452Y-38444D01*
X71645Y-38524D01*
X71853Y-38525D01*
X72047Y-38445D01*
X72194Y-38297D01*
X72247Y-38171D01*
X72289Y-38272D01*
X72382Y-38297D01*
X72679Y-38000D01*
X72382Y-37702D01*
X72289Y-37727D01*
X72250Y-37837D01*
X72195Y-37703D01*
X72047Y-37555D01*
X71975Y-37525D01*
X72074Y-37525D01*
X72166Y-37486D01*
X72236Y-37416D01*
X72275Y-37324D01*
X72275Y-37225D01*
X72275Y-36675D01*
X72236Y-36583D01*
X72166Y-36513D01*
X72074Y-36475D01*
X72050Y-36475D01*
X72050Y-34374D01*
X72149Y-34274D01*
X72321Y-34275D01*
X72263Y-34333D01*
X72225Y-34425D01*
X72225Y-34524D01*
X72225Y-35074D01*
X72263Y-35166D01*
X72333Y-35236D01*
X72425Y-35275D01*
X72524Y-35275D01*
X73074Y-35275D01*
X73166Y-35236D01*
X73236Y-35166D01*
X73275Y-35074D01*
X73275Y-34975D01*
X73275Y-34975D01*
X73304Y-35047D01*
X73452Y-35194D01*
X73645Y-35274D01*
X73853Y-35275D01*
X74047Y-35195D01*
X74128Y-35114D01*
X74250Y-35114D01*
X74389Y-35086D01*
X74389Y-35086D01*
X74507Y-35007D01*
X74900Y-34614D01*
X75750Y-34614D01*
X75889Y-34586D01*
X75889Y-34586D01*
X76007Y-34507D01*
X76240Y-34274D01*
X76353Y-34275D01*
X76547Y-34195D01*
X76694Y-34047D01*
X76750Y-33914D01*
X76804Y-34047D01*
X76952Y-34194D01*
X77145Y-34274D01*
X77353Y-34275D01*
X77547Y-34195D01*
X77694Y-34047D01*
X77750Y-33914D01*
X77804Y-34047D01*
X77952Y-34194D01*
X78145Y-34274D01*
X78353Y-34275D01*
X78547Y-34195D01*
X78694Y-34047D01*
X78774Y-33854D01*
X78775Y-33646D01*
X78775Y-34980D01*
X77250Y-34980D01*
X74750Y-34980D01*
X74646Y-35000D01*
X74559Y-35059D01*
X74500Y-35146D01*
X74480Y-35250D01*
X74480Y-35750D01*
X74480Y-39980D01*
X74222Y-39980D01*
X74274Y-39854D01*
X74275Y-39646D01*
X74275Y-36146D01*
X74195Y-35953D01*
X74047Y-35805D01*
X73854Y-35725D01*
X73646Y-35724D01*
X73453Y-35804D01*
X73305Y-35952D01*
X73225Y-36145D01*
X73224Y-36353D01*
X73304Y-36547D01*
X73452Y-36694D01*
X73645Y-36774D01*
X73853Y-36775D01*
X74047Y-36695D01*
X74194Y-36547D01*
X74274Y-36354D01*
X74275Y-36146D01*
X74275Y-39646D01*
X74195Y-39453D01*
X74047Y-39305D01*
X73854Y-39225D01*
X73646Y-39224D01*
X73453Y-39304D01*
X73305Y-39452D01*
X73279Y-39513D01*
X73279Y-38075D01*
X73268Y-37867D01*
X73210Y-37727D01*
X73117Y-37702D01*
X73047Y-37773D01*
X73047Y-37632D01*
X73022Y-37539D01*
X72825Y-37470D01*
X72617Y-37481D01*
X72477Y-37539D01*
X72452Y-37632D01*
X72750Y-37929D01*
X73047Y-37632D01*
X73047Y-37773D01*
X72820Y-38000D01*
X73117Y-38297D01*
X73210Y-38272D01*
X73279Y-38075D01*
X73279Y-39513D01*
X73225Y-39645D01*
X73224Y-39853D01*
X73277Y-39980D01*
X73047Y-39980D01*
X73047Y-38367D01*
X72750Y-38070D01*
X72452Y-38367D01*
X72477Y-38460D01*
X72674Y-38529D01*
X72882Y-38518D01*
X73022Y-38460D01*
X73047Y-38367D01*
X73047Y-39980D01*
X70779Y-39980D01*
X70779Y-37325D01*
X70768Y-37117D01*
X70710Y-36977D01*
X70617Y-36952D01*
X70547Y-37023D01*
X70547Y-36882D01*
X70522Y-36789D01*
X70325Y-36720D01*
X70117Y-36731D01*
X69977Y-36789D01*
X69952Y-36882D01*
X70250Y-37179D01*
X70547Y-36882D01*
X70547Y-37023D01*
X70320Y-37250D01*
X70617Y-37547D01*
X70710Y-37522D01*
X70779Y-37325D01*
X70779Y-39980D01*
X70750Y-39980D01*
X70547Y-39980D01*
X70547Y-37617D01*
X70250Y-37320D01*
X70179Y-37391D01*
X70179Y-37250D01*
X69882Y-36952D01*
X69789Y-36977D01*
X69720Y-37174D01*
X69731Y-37382D01*
X69789Y-37522D01*
X69882Y-37547D01*
X70179Y-37250D01*
X70179Y-37391D01*
X69952Y-37617D01*
X69977Y-37710D01*
X70174Y-37779D01*
X70382Y-37768D01*
X70522Y-37710D01*
X70547Y-37617D01*
X70547Y-39980D01*
X67750Y-39980D01*
X67646Y-40000D01*
X67559Y-40059D01*
X67500Y-40146D01*
X67480Y-40250D01*
X67480Y-52980D01*
X67275Y-52980D01*
X67275Y-46896D01*
X67195Y-46703D01*
X67047Y-46555D01*
X66854Y-46475D01*
X66646Y-46474D01*
X66453Y-46554D01*
X66305Y-46702D01*
X66249Y-46835D01*
X66195Y-46703D01*
X66047Y-46555D01*
X65854Y-46475D01*
X65646Y-46474D01*
X65453Y-46554D01*
X65305Y-46702D01*
X65249Y-46835D01*
X65195Y-46703D01*
X65047Y-46555D01*
X64854Y-46475D01*
X64646Y-46474D01*
X64453Y-46554D01*
X64305Y-46702D01*
X64249Y-46835D01*
X64195Y-46703D01*
X64047Y-46555D01*
X63854Y-46475D01*
X63646Y-46474D01*
X63453Y-46554D01*
X63305Y-46702D01*
X63279Y-46763D01*
X63279Y-46575D01*
X63268Y-46367D01*
X63210Y-46227D01*
X63117Y-46202D01*
X63047Y-46273D01*
X63047Y-46132D01*
X63022Y-46039D01*
X62825Y-45970D01*
X62617Y-45981D01*
X62477Y-46039D01*
X62452Y-46132D01*
X62750Y-46429D01*
X63047Y-46132D01*
X63047Y-46273D01*
X62820Y-46500D01*
X63117Y-46797D01*
X63210Y-46772D01*
X63279Y-46575D01*
X63279Y-46763D01*
X63225Y-46895D01*
X63224Y-47103D01*
X63304Y-47297D01*
X63450Y-47442D01*
X63450Y-50057D01*
X63305Y-50202D01*
X63279Y-50263D01*
X63279Y-49575D01*
X63279Y-48575D01*
X63279Y-47575D01*
X63268Y-47367D01*
X63210Y-47227D01*
X63117Y-47202D01*
X63047Y-47273D01*
X63047Y-47132D01*
X63022Y-47039D01*
X62919Y-47003D01*
X63022Y-46960D01*
X63047Y-46867D01*
X62750Y-46570D01*
X62679Y-46641D01*
X62679Y-46500D01*
X62382Y-46202D01*
X62289Y-46227D01*
X62220Y-46424D01*
X62231Y-46632D01*
X62289Y-46772D01*
X62382Y-46797D01*
X62679Y-46500D01*
X62679Y-46641D01*
X62452Y-46867D01*
X62477Y-46960D01*
X62580Y-46996D01*
X62477Y-47039D01*
X62452Y-47132D01*
X62750Y-47429D01*
X63047Y-47132D01*
X63047Y-47273D01*
X62820Y-47500D01*
X63117Y-47797D01*
X63210Y-47772D01*
X63279Y-47575D01*
X63279Y-48575D01*
X63268Y-48367D01*
X63210Y-48227D01*
X63117Y-48202D01*
X63047Y-48273D01*
X63047Y-48132D01*
X63022Y-48039D01*
X62919Y-48003D01*
X63022Y-47960D01*
X63047Y-47867D01*
X62750Y-47570D01*
X62679Y-47641D01*
X62679Y-47500D01*
X62382Y-47202D01*
X62289Y-47227D01*
X62220Y-47424D01*
X62231Y-47632D01*
X62289Y-47772D01*
X62382Y-47797D01*
X62679Y-47500D01*
X62679Y-47641D01*
X62452Y-47867D01*
X62477Y-47960D01*
X62580Y-47996D01*
X62477Y-48039D01*
X62452Y-48132D01*
X62750Y-48429D01*
X63047Y-48132D01*
X63047Y-48273D01*
X62820Y-48500D01*
X63117Y-48797D01*
X63210Y-48772D01*
X63279Y-48575D01*
X63279Y-49575D01*
X63268Y-49367D01*
X63210Y-49227D01*
X63117Y-49202D01*
X63047Y-49273D01*
X63047Y-49132D01*
X63022Y-49039D01*
X62919Y-49003D01*
X63022Y-48960D01*
X63047Y-48867D01*
X62750Y-48570D01*
X62679Y-48641D01*
X62679Y-48500D01*
X62382Y-48202D01*
X62289Y-48227D01*
X62220Y-48424D01*
X62231Y-48632D01*
X62289Y-48772D01*
X62382Y-48797D01*
X62679Y-48500D01*
X62679Y-48641D01*
X62452Y-48867D01*
X62477Y-48960D01*
X62580Y-48996D01*
X62477Y-49039D01*
X62452Y-49132D01*
X62750Y-49429D01*
X63047Y-49132D01*
X63047Y-49273D01*
X62820Y-49500D01*
X63117Y-49797D01*
X63210Y-49772D01*
X63279Y-49575D01*
X63279Y-50263D01*
X63275Y-50274D01*
X63275Y-50175D01*
X63236Y-50083D01*
X63166Y-50013D01*
X63074Y-49975D01*
X62987Y-49975D01*
X63022Y-49960D01*
X63047Y-49867D01*
X62750Y-49570D01*
X62679Y-49641D01*
X62679Y-49500D01*
X62382Y-49202D01*
X62289Y-49227D01*
X62220Y-49424D01*
X62231Y-49632D01*
X62289Y-49772D01*
X62382Y-49797D01*
X62679Y-49500D01*
X62679Y-49641D01*
X62452Y-49867D01*
X62477Y-49960D01*
X62518Y-49975D01*
X62425Y-49975D01*
X62333Y-50013D01*
X62263Y-50083D01*
X62225Y-50175D01*
X62225Y-50387D01*
X62287Y-50450D01*
X62700Y-50450D01*
X62700Y-50442D01*
X62800Y-50442D01*
X62800Y-50450D01*
X62807Y-50450D01*
X62807Y-50550D01*
X62800Y-50550D01*
X62800Y-50962D01*
X62862Y-51025D01*
X62975Y-51025D01*
X63074Y-51025D01*
X63166Y-50986D01*
X63236Y-50916D01*
X63275Y-50824D01*
X63275Y-50725D01*
X63304Y-50797D01*
X63452Y-50944D01*
X63645Y-51024D01*
X63853Y-51025D01*
X64047Y-50945D01*
X64194Y-50797D01*
X64225Y-50725D01*
X64225Y-50824D01*
X64263Y-50916D01*
X64333Y-50986D01*
X64425Y-51025D01*
X64524Y-51025D01*
X65074Y-51025D01*
X65166Y-50986D01*
X65236Y-50916D01*
X65275Y-50824D01*
X65275Y-50725D01*
X65275Y-50725D01*
X65304Y-50797D01*
X65452Y-50944D01*
X65645Y-51024D01*
X65853Y-51025D01*
X66047Y-50945D01*
X66194Y-50797D01*
X66225Y-50725D01*
X66225Y-50824D01*
X66263Y-50916D01*
X66333Y-50986D01*
X66425Y-51025D01*
X66524Y-51025D01*
X67074Y-51025D01*
X67166Y-50986D01*
X67236Y-50916D01*
X67275Y-50824D01*
X67275Y-50725D01*
X67275Y-50175D01*
X67236Y-50083D01*
X67166Y-50013D01*
X67074Y-49975D01*
X67050Y-49975D01*
X67050Y-47442D01*
X67194Y-47297D01*
X67274Y-47104D01*
X67275Y-46896D01*
X67275Y-52980D01*
X63775Y-52980D01*
X63775Y-52324D01*
X63775Y-52225D01*
X63775Y-51675D01*
X63736Y-51583D01*
X63666Y-51513D01*
X63574Y-51475D01*
X63475Y-51475D01*
X62925Y-51475D01*
X62833Y-51513D01*
X62763Y-51583D01*
X62725Y-51675D01*
X62725Y-51774D01*
X62725Y-51774D01*
X62700Y-51714D01*
X62700Y-50962D01*
X62700Y-50550D01*
X62287Y-50550D01*
X62225Y-50612D01*
X62225Y-50824D01*
X62263Y-50916D01*
X62333Y-50986D01*
X62425Y-51025D01*
X62524Y-51025D01*
X62637Y-51025D01*
X62700Y-50962D01*
X62700Y-51714D01*
X62695Y-51703D01*
X62547Y-51555D01*
X62354Y-51475D01*
X62146Y-51474D01*
X61953Y-51554D01*
X61805Y-51702D01*
X61779Y-51763D01*
X61779Y-49575D01*
X61779Y-48075D01*
X61779Y-46575D01*
X61768Y-46367D01*
X61710Y-46227D01*
X61617Y-46202D01*
X61547Y-46273D01*
X61547Y-46132D01*
X61522Y-46039D01*
X61325Y-45970D01*
X61117Y-45981D01*
X60977Y-46039D01*
X60952Y-46132D01*
X61250Y-46429D01*
X61547Y-46132D01*
X61547Y-46273D01*
X61320Y-46500D01*
X61617Y-46797D01*
X61710Y-46772D01*
X61779Y-46575D01*
X61779Y-48075D01*
X61768Y-47867D01*
X61710Y-47727D01*
X61617Y-47702D01*
X61547Y-47773D01*
X61547Y-47632D01*
X61547Y-46867D01*
X61250Y-46570D01*
X60952Y-46867D01*
X60977Y-46960D01*
X61174Y-47029D01*
X61382Y-47018D01*
X61522Y-46960D01*
X61547Y-46867D01*
X61547Y-47632D01*
X61522Y-47539D01*
X61325Y-47470D01*
X61117Y-47481D01*
X60977Y-47539D01*
X60952Y-47632D01*
X61250Y-47929D01*
X61547Y-47632D01*
X61547Y-47773D01*
X61320Y-48000D01*
X61617Y-48297D01*
X61710Y-48272D01*
X61779Y-48075D01*
X61779Y-49575D01*
X61768Y-49367D01*
X61710Y-49227D01*
X61617Y-49202D01*
X61547Y-49273D01*
X61547Y-49132D01*
X61547Y-48367D01*
X61250Y-48070D01*
X60952Y-48367D01*
X60977Y-48460D01*
X61174Y-48529D01*
X61382Y-48518D01*
X61522Y-48460D01*
X61547Y-48367D01*
X61547Y-49132D01*
X61522Y-49039D01*
X61325Y-48970D01*
X61117Y-48981D01*
X60977Y-49039D01*
X60952Y-49132D01*
X61250Y-49429D01*
X61547Y-49132D01*
X61547Y-49273D01*
X61320Y-49500D01*
X61617Y-49797D01*
X61710Y-49772D01*
X61779Y-49575D01*
X61779Y-51763D01*
X61752Y-51828D01*
X61710Y-51727D01*
X61617Y-51702D01*
X61547Y-51773D01*
X61547Y-51632D01*
X61547Y-49867D01*
X61250Y-49570D01*
X60952Y-49867D01*
X60977Y-49960D01*
X61174Y-50029D01*
X61382Y-50018D01*
X61522Y-49960D01*
X61547Y-49867D01*
X61547Y-51632D01*
X61522Y-51539D01*
X61325Y-51470D01*
X61117Y-51481D01*
X60977Y-51539D01*
X60952Y-51632D01*
X61250Y-51929D01*
X61547Y-51632D01*
X61547Y-51773D01*
X61320Y-52000D01*
X61617Y-52297D01*
X61710Y-52272D01*
X61749Y-52162D01*
X61804Y-52297D01*
X61952Y-52444D01*
X62145Y-52524D01*
X62353Y-52525D01*
X62547Y-52445D01*
X62694Y-52297D01*
X62725Y-52225D01*
X62725Y-52324D01*
X62763Y-52416D01*
X62833Y-52486D01*
X62925Y-52525D01*
X63024Y-52525D01*
X63574Y-52525D01*
X63666Y-52486D01*
X63736Y-52416D01*
X63775Y-52324D01*
X63775Y-52980D01*
X61547Y-52980D01*
X61547Y-52367D01*
X61250Y-52070D01*
X60952Y-52367D01*
X60977Y-52460D01*
X61174Y-52529D01*
X61382Y-52518D01*
X61522Y-52460D01*
X61547Y-52367D01*
X61547Y-52980D01*
X60284Y-52980D01*
X60507Y-52757D01*
X60507Y-52757D01*
X60507Y-52757D01*
X60586Y-52639D01*
X60614Y-52500D01*
X60614Y-52500D01*
X60614Y-52499D01*
X60614Y-52378D01*
X60694Y-52297D01*
X60747Y-52171D01*
X60789Y-52272D01*
X60882Y-52297D01*
X61179Y-52000D01*
X60882Y-51702D01*
X60789Y-51727D01*
X60750Y-51837D01*
X60695Y-51703D01*
X60614Y-51621D01*
X60614Y-49878D01*
X60694Y-49797D01*
X60747Y-49671D01*
X60789Y-49772D01*
X60882Y-49797D01*
X61179Y-49500D01*
X60882Y-49202D01*
X60789Y-49227D01*
X60750Y-49337D01*
X60695Y-49203D01*
X60614Y-49121D01*
X60614Y-48378D01*
X60694Y-48297D01*
X60747Y-48171D01*
X60789Y-48272D01*
X60882Y-48297D01*
X61179Y-48000D01*
X60882Y-47702D01*
X60789Y-47727D01*
X60750Y-47837D01*
X60695Y-47703D01*
X60614Y-47621D01*
X60614Y-46878D01*
X60694Y-46797D01*
X60747Y-46671D01*
X60789Y-46772D01*
X60882Y-46797D01*
X61179Y-46500D01*
X60882Y-46202D01*
X60789Y-46227D01*
X60750Y-46337D01*
X60695Y-46203D01*
X60614Y-46121D01*
X60614Y-45650D01*
X60900Y-45364D01*
X62250Y-45364D01*
X62389Y-45336D01*
X62389Y-45336D01*
X62507Y-45257D01*
X63007Y-44757D01*
X63086Y-44639D01*
X63086Y-44639D01*
X63114Y-44500D01*
X63114Y-43864D01*
X63371Y-43864D01*
X63452Y-43944D01*
X63645Y-44024D01*
X63853Y-44025D01*
X64047Y-43945D01*
X64128Y-43864D01*
X64371Y-43864D01*
X64452Y-43944D01*
X64645Y-44024D01*
X64853Y-44025D01*
X65047Y-43945D01*
X65128Y-43864D01*
X65371Y-43864D01*
X65452Y-43944D01*
X65645Y-44024D01*
X65853Y-44025D01*
X66047Y-43945D01*
X66128Y-43864D01*
X66371Y-43864D01*
X66452Y-43944D01*
X66645Y-44024D01*
X66853Y-44025D01*
X67047Y-43945D01*
X67194Y-43797D01*
X67274Y-43604D01*
X67275Y-43396D01*
X67195Y-43203D01*
X67047Y-43055D01*
X66854Y-42975D01*
X66646Y-42974D01*
X66453Y-43054D01*
X66371Y-43135D01*
X66128Y-43135D01*
X66047Y-43055D01*
X65854Y-42975D01*
X65646Y-42974D01*
X65453Y-43054D01*
X65371Y-43135D01*
X65128Y-43135D01*
X65047Y-43055D01*
X64854Y-42975D01*
X64646Y-42974D01*
X64547Y-43015D01*
X64547Y-41617D01*
X64250Y-41320D01*
X64179Y-41391D01*
X64179Y-41250D01*
X63882Y-40952D01*
X63789Y-40977D01*
X63720Y-41174D01*
X63731Y-41382D01*
X63789Y-41522D01*
X63882Y-41547D01*
X64179Y-41250D01*
X64179Y-41391D01*
X63952Y-41617D01*
X63977Y-41710D01*
X64174Y-41779D01*
X64382Y-41768D01*
X64522Y-41710D01*
X64547Y-41617D01*
X64547Y-43015D01*
X64453Y-43054D01*
X64371Y-43135D01*
X64128Y-43135D01*
X64047Y-43055D01*
X63854Y-42975D01*
X63646Y-42974D01*
X63453Y-43054D01*
X63371Y-43135D01*
X63279Y-43135D01*
X63279Y-39325D01*
X63279Y-38325D01*
X63279Y-37325D01*
X63279Y-36325D01*
X63268Y-36117D01*
X63210Y-35977D01*
X63117Y-35952D01*
X63047Y-36023D01*
X63047Y-35882D01*
X63022Y-35789D01*
X62825Y-35720D01*
X62617Y-35731D01*
X62477Y-35789D01*
X62452Y-35882D01*
X62750Y-36179D01*
X63047Y-35882D01*
X63047Y-36023D01*
X62820Y-36250D01*
X63117Y-36547D01*
X63210Y-36522D01*
X63279Y-36325D01*
X63279Y-37325D01*
X63268Y-37117D01*
X63210Y-36977D01*
X63117Y-36952D01*
X63047Y-37023D01*
X63047Y-36882D01*
X63022Y-36789D01*
X62919Y-36753D01*
X63022Y-36710D01*
X63047Y-36617D01*
X62750Y-36320D01*
X62679Y-36391D01*
X62679Y-36250D01*
X62382Y-35952D01*
X62289Y-35977D01*
X62220Y-36174D01*
X62231Y-36382D01*
X62289Y-36522D01*
X62382Y-36547D01*
X62679Y-36250D01*
X62679Y-36391D01*
X62452Y-36617D01*
X62477Y-36710D01*
X62580Y-36746D01*
X62477Y-36789D01*
X62452Y-36882D01*
X62750Y-37179D01*
X63047Y-36882D01*
X63047Y-37023D01*
X62820Y-37250D01*
X63117Y-37547D01*
X63210Y-37522D01*
X63279Y-37325D01*
X63279Y-38325D01*
X63268Y-38117D01*
X63210Y-37977D01*
X63117Y-37952D01*
X63047Y-38023D01*
X63047Y-37882D01*
X63022Y-37789D01*
X62919Y-37753D01*
X63022Y-37710D01*
X63047Y-37617D01*
X62750Y-37320D01*
X62452Y-37617D01*
X62477Y-37710D01*
X62580Y-37746D01*
X62477Y-37789D01*
X62452Y-37882D01*
X62750Y-38179D01*
X63047Y-37882D01*
X63047Y-38023D01*
X62820Y-38250D01*
X63117Y-38547D01*
X63210Y-38522D01*
X63279Y-38325D01*
X63279Y-39325D01*
X63268Y-39117D01*
X63210Y-38977D01*
X63117Y-38952D01*
X63047Y-39023D01*
X63047Y-38882D01*
X63022Y-38789D01*
X62919Y-38753D01*
X63022Y-38710D01*
X63047Y-38617D01*
X62750Y-38320D01*
X62452Y-38617D01*
X62477Y-38710D01*
X62580Y-38746D01*
X62477Y-38789D01*
X62452Y-38882D01*
X62750Y-39179D01*
X63047Y-38882D01*
X63047Y-39023D01*
X62820Y-39250D01*
X63117Y-39547D01*
X63210Y-39522D01*
X63279Y-39325D01*
X63279Y-43135D01*
X63275Y-43135D01*
X63275Y-42925D01*
X63236Y-42833D01*
X63166Y-42763D01*
X63074Y-42725D01*
X62975Y-42725D01*
X62975Y-42725D01*
X63047Y-42695D01*
X63194Y-42547D01*
X63274Y-42354D01*
X63275Y-42146D01*
X63195Y-41953D01*
X63047Y-41805D01*
X62914Y-41749D01*
X63047Y-41695D01*
X63194Y-41547D01*
X63274Y-41354D01*
X63275Y-41146D01*
X63195Y-40953D01*
X63047Y-40805D01*
X62914Y-40749D01*
X63047Y-40695D01*
X63194Y-40547D01*
X63274Y-40354D01*
X63275Y-40146D01*
X63195Y-39953D01*
X63047Y-39805D01*
X62921Y-39752D01*
X63022Y-39710D01*
X63047Y-39617D01*
X62750Y-39320D01*
X62452Y-39617D01*
X62477Y-39710D01*
X62587Y-39749D01*
X62453Y-39804D01*
X62340Y-39916D01*
X62300Y-39875D01*
X62300Y-39525D01*
X62382Y-39547D01*
X62679Y-39250D01*
X62382Y-38952D01*
X62300Y-38974D01*
X62300Y-38525D01*
X62382Y-38547D01*
X62679Y-38250D01*
X62382Y-37952D01*
X62300Y-37974D01*
X62300Y-37525D01*
X62382Y-37547D01*
X62679Y-37250D01*
X62382Y-36952D01*
X62289Y-36977D01*
X62220Y-37174D01*
X62227Y-37310D01*
X62212Y-37287D01*
X61962Y-37037D01*
X61864Y-36972D01*
X61804Y-36960D01*
X61804Y-36331D01*
X61793Y-36113D01*
X61731Y-35962D01*
X61635Y-35934D01*
X61565Y-36005D01*
X61565Y-35864D01*
X61537Y-35768D01*
X61331Y-35695D01*
X61113Y-35706D01*
X60962Y-35768D01*
X60934Y-35864D01*
X61250Y-36179D01*
X61565Y-35864D01*
X61565Y-36005D01*
X61320Y-36250D01*
X61635Y-36565D01*
X61731Y-36537D01*
X61804Y-36331D01*
X61804Y-36960D01*
X61750Y-36950D01*
X61721Y-36950D01*
X61716Y-36938D01*
X61561Y-36784D01*
X61486Y-36752D01*
X61537Y-36731D01*
X61565Y-36635D01*
X61250Y-36320D01*
X61244Y-36326D01*
X61173Y-36255D01*
X61179Y-36250D01*
X60864Y-35934D01*
X60768Y-35962D01*
X60749Y-36017D01*
X60716Y-35938D01*
X60561Y-35784D01*
X60359Y-35700D01*
X60141Y-35699D01*
X59938Y-35783D01*
X59784Y-35938D01*
X59750Y-36019D01*
X59716Y-35938D01*
X59561Y-35784D01*
X59359Y-35700D01*
X59141Y-35699D01*
X58938Y-35783D01*
X58784Y-35938D01*
X58700Y-36140D01*
X58699Y-36358D01*
X58737Y-36450D01*
X57000Y-36450D01*
X56124Y-36450D01*
X55550Y-35875D01*
X55550Y-35815D01*
X55742Y-36007D01*
X55742Y-36007D01*
X55742Y-36007D01*
X55860Y-36086D01*
X56000Y-36114D01*
X56000Y-36114D01*
X56000Y-36114D01*
X58000Y-36114D01*
X58139Y-36086D01*
X58139Y-36086D01*
X58257Y-36007D01*
X58490Y-35774D01*
X58603Y-35775D01*
X58797Y-35695D01*
X58942Y-35550D01*
X59000Y-35550D01*
X59000Y-35549D01*
X59114Y-35527D01*
X59114Y-35527D01*
X59212Y-35462D01*
X59462Y-35212D01*
X59462Y-35212D01*
X59501Y-35153D01*
X59527Y-35114D01*
X59527Y-35114D01*
X59550Y-35000D01*
X59550Y-31500D01*
X59527Y-31385D01*
X59527Y-31385D01*
X59501Y-31346D01*
X59462Y-31287D01*
X59216Y-31042D01*
X59231Y-31037D01*
X59304Y-30831D01*
X59293Y-30613D01*
X59231Y-30462D01*
X59135Y-30434D01*
X58820Y-30750D01*
X58826Y-30755D01*
X58755Y-30826D01*
X58750Y-30820D01*
X58744Y-30826D01*
X58673Y-30755D01*
X58679Y-30750D01*
X58673Y-30744D01*
X58744Y-30673D01*
X58750Y-30679D01*
X59065Y-30364D01*
X59037Y-30268D01*
X58982Y-30249D01*
X59061Y-30216D01*
X59215Y-30061D01*
X59299Y-29859D01*
X59300Y-29641D01*
X59216Y-29438D01*
X59061Y-29284D01*
X58859Y-29200D01*
X58641Y-29199D01*
X58438Y-29283D01*
X58284Y-29438D01*
X58250Y-29519D01*
X58216Y-29438D01*
X58061Y-29284D01*
X57859Y-29200D01*
X57641Y-29199D01*
X57438Y-29283D01*
X57284Y-29438D01*
X57250Y-29519D01*
X57216Y-29438D01*
X57061Y-29284D01*
X57050Y-29279D01*
X57050Y-29250D01*
X57027Y-29135D01*
X57027Y-29135D01*
X57001Y-29096D01*
X56962Y-29037D01*
X56712Y-28787D01*
X56614Y-28722D01*
X56500Y-28700D01*
X56250Y-28700D01*
X56000Y-28700D01*
X52500Y-28700D01*
X52385Y-28722D01*
X52346Y-28748D01*
X52287Y-28787D01*
X52037Y-29037D01*
X51972Y-29135D01*
X51952Y-29238D01*
X51859Y-29200D01*
X51641Y-29199D01*
X51438Y-29283D01*
X51284Y-29438D01*
X51250Y-29519D01*
X51216Y-29438D01*
X51061Y-29284D01*
X50859Y-29200D01*
X50641Y-29199D01*
X50438Y-29283D01*
X50284Y-29438D01*
X50250Y-29519D01*
X50216Y-29438D01*
X50061Y-29284D01*
X49859Y-29200D01*
X49641Y-29199D01*
X49438Y-29283D01*
X49284Y-29438D01*
X49250Y-29519D01*
X49216Y-29438D01*
X49061Y-29284D01*
X48859Y-29200D01*
X48641Y-29199D01*
X48438Y-29283D01*
X48284Y-29438D01*
X48250Y-29519D01*
X48216Y-29438D01*
X48061Y-29284D01*
X47859Y-29200D01*
X47641Y-29199D01*
X47438Y-29283D01*
X47284Y-29438D01*
X47250Y-29519D01*
X47216Y-29438D01*
X47061Y-29284D01*
X46859Y-29200D01*
X46641Y-29199D01*
X46438Y-29283D01*
X46284Y-29438D01*
X46200Y-29640D01*
X46199Y-29858D01*
X46283Y-30061D01*
X46422Y-30200D01*
X46400Y-30200D01*
X46308Y-30238D01*
X46238Y-30308D01*
X46200Y-30400D01*
X46200Y-30499D01*
X46200Y-31099D01*
X46238Y-31191D01*
X46308Y-31261D01*
X46400Y-31300D01*
X46499Y-31300D01*
X47099Y-31300D01*
X47191Y-31261D01*
X47261Y-31191D01*
X47300Y-31099D01*
X47300Y-31077D01*
X47438Y-31215D01*
X47640Y-31299D01*
X47858Y-31300D01*
X48061Y-31216D01*
X48215Y-31061D01*
X48249Y-30980D01*
X48283Y-31061D01*
X48438Y-31215D01*
X48640Y-31299D01*
X48858Y-31300D01*
X49061Y-31216D01*
X49215Y-31061D01*
X49249Y-30980D01*
X49283Y-31061D01*
X49438Y-31215D01*
X49640Y-31299D01*
X49858Y-31300D01*
X50061Y-31216D01*
X50215Y-31061D01*
X50249Y-30980D01*
X50283Y-31061D01*
X50438Y-31215D01*
X50640Y-31299D01*
X50858Y-31300D01*
X51061Y-31216D01*
X51215Y-31061D01*
X51249Y-30980D01*
X51283Y-31061D01*
X51438Y-31215D01*
X51640Y-31299D01*
X51775Y-31300D01*
X51568Y-31506D01*
X51453Y-31554D01*
X51305Y-31702D01*
X51252Y-31828D01*
X51210Y-31727D01*
X51117Y-31702D01*
X51047Y-31773D01*
X51047Y-31632D01*
X51022Y-31539D01*
X50825Y-31470D01*
X50617Y-31481D01*
X50477Y-31539D01*
X50452Y-31632D01*
X50750Y-31929D01*
X51047Y-31632D01*
X51047Y-31773D01*
X50820Y-32000D01*
X51117Y-32297D01*
X51210Y-32272D01*
X51249Y-32162D01*
X51304Y-32297D01*
X51452Y-32444D01*
X51645Y-32524D01*
X51853Y-32525D01*
X51950Y-32485D01*
X51950Y-32625D01*
X51537Y-33037D01*
X51472Y-33135D01*
X51450Y-33250D01*
X51450Y-34557D01*
X51305Y-34702D01*
X51249Y-34835D01*
X51195Y-34703D01*
X51047Y-34555D01*
X51047Y-34554D01*
X51047Y-32367D01*
X50750Y-32070D01*
X50679Y-32141D01*
X50679Y-32000D01*
X50382Y-31702D01*
X50289Y-31727D01*
X50253Y-31830D01*
X50210Y-31727D01*
X50117Y-31702D01*
X50047Y-31773D01*
X50047Y-31632D01*
X50022Y-31539D01*
X49825Y-31470D01*
X49617Y-31481D01*
X49477Y-31539D01*
X49452Y-31632D01*
X49750Y-31929D01*
X50047Y-31632D01*
X50047Y-31773D01*
X49820Y-32000D01*
X50117Y-32297D01*
X50210Y-32272D01*
X50246Y-32169D01*
X50289Y-32272D01*
X50382Y-32297D01*
X50679Y-32000D01*
X50679Y-32141D01*
X50452Y-32367D01*
X50477Y-32460D01*
X50674Y-32529D01*
X50882Y-32518D01*
X51022Y-32460D01*
X51047Y-32367D01*
X51047Y-34554D01*
X50854Y-34475D01*
X50646Y-34474D01*
X50453Y-34554D01*
X50305Y-34702D01*
X50249Y-34835D01*
X50195Y-34703D01*
X50047Y-34555D01*
X50047Y-34554D01*
X50047Y-32367D01*
X49750Y-32070D01*
X49679Y-32141D01*
X49679Y-32000D01*
X49382Y-31702D01*
X49289Y-31727D01*
X49253Y-31830D01*
X49210Y-31727D01*
X49117Y-31702D01*
X49047Y-31773D01*
X49047Y-31632D01*
X49022Y-31539D01*
X48825Y-31470D01*
X48617Y-31481D01*
X48477Y-31539D01*
X48452Y-31632D01*
X48750Y-31929D01*
X49047Y-31632D01*
X49047Y-31773D01*
X48820Y-32000D01*
X49117Y-32297D01*
X49210Y-32272D01*
X49246Y-32169D01*
X49289Y-32272D01*
X49382Y-32297D01*
X49679Y-32000D01*
X49679Y-32141D01*
X49452Y-32367D01*
X49477Y-32460D01*
X49674Y-32529D01*
X49882Y-32518D01*
X50022Y-32460D01*
X50047Y-32367D01*
X50047Y-34554D01*
X49854Y-34475D01*
X49646Y-34474D01*
X49453Y-34554D01*
X49305Y-34702D01*
X49249Y-34835D01*
X49195Y-34703D01*
X49047Y-34555D01*
X49047Y-34554D01*
X49047Y-32367D01*
X48750Y-32070D01*
X48679Y-32141D01*
X48679Y-32000D01*
X48382Y-31702D01*
X48289Y-31727D01*
X48253Y-31830D01*
X48210Y-31727D01*
X48117Y-31702D01*
X48047Y-31773D01*
X48047Y-31632D01*
X48022Y-31539D01*
X47825Y-31470D01*
X47617Y-31481D01*
X47477Y-31539D01*
X47452Y-31632D01*
X47750Y-31929D01*
X48047Y-31632D01*
X48047Y-31773D01*
X47820Y-32000D01*
X48117Y-32297D01*
X48210Y-32272D01*
X48246Y-32169D01*
X48289Y-32272D01*
X48382Y-32297D01*
X48679Y-32000D01*
X48679Y-32141D01*
X48452Y-32367D01*
X48477Y-32460D01*
X48674Y-32529D01*
X48882Y-32518D01*
X49022Y-32460D01*
X49047Y-32367D01*
X49047Y-34554D01*
X48854Y-34475D01*
X48646Y-34474D01*
X48453Y-34554D01*
X48305Y-34702D01*
X48249Y-34835D01*
X48195Y-34703D01*
X48047Y-34555D01*
X48047Y-34554D01*
X48047Y-32367D01*
X47750Y-32070D01*
X47679Y-32141D01*
X47679Y-32000D01*
X47382Y-31702D01*
X47289Y-31727D01*
X47220Y-31924D01*
X47231Y-32132D01*
X47289Y-32272D01*
X47382Y-32297D01*
X47679Y-32000D01*
X47679Y-32141D01*
X47452Y-32367D01*
X47477Y-32460D01*
X47674Y-32529D01*
X47882Y-32518D01*
X48022Y-32460D01*
X48047Y-32367D01*
X48047Y-34554D01*
X47854Y-34475D01*
X47646Y-34474D01*
X47453Y-34554D01*
X47305Y-34702D01*
X47225Y-34895D01*
X47224Y-35103D01*
X47304Y-35297D01*
X47452Y-35444D01*
X47645Y-35524D01*
X47853Y-35525D01*
X48047Y-35445D01*
X48194Y-35297D01*
X48250Y-35164D01*
X48304Y-35297D01*
X48452Y-35444D01*
X48645Y-35524D01*
X48853Y-35525D01*
X49047Y-35445D01*
X49194Y-35297D01*
X49250Y-35164D01*
X49304Y-35297D01*
X49452Y-35444D01*
X49645Y-35524D01*
X49853Y-35525D01*
X50047Y-35445D01*
X50194Y-35297D01*
X50250Y-35164D01*
X50304Y-35297D01*
X50450Y-35442D01*
X50450Y-35557D01*
X50305Y-35702D01*
X50225Y-35895D01*
X50224Y-36103D01*
X50304Y-36297D01*
X50452Y-36444D01*
X50578Y-36497D01*
X50537Y-36537D01*
X50472Y-36635D01*
X50450Y-36750D01*
X50450Y-36764D01*
X50354Y-36725D01*
X50146Y-36724D01*
X49953Y-36804D01*
X49805Y-36952D01*
X49749Y-37085D01*
X49695Y-36953D01*
X49547Y-36805D01*
X49354Y-36725D01*
X49146Y-36724D01*
X48953Y-36804D01*
X48805Y-36952D01*
X48749Y-37085D01*
X48695Y-36953D01*
X48547Y-36805D01*
X48354Y-36725D01*
X48146Y-36724D01*
X47953Y-36804D01*
X47805Y-36952D01*
X47775Y-37024D01*
X47775Y-35896D01*
X47695Y-35703D01*
X47547Y-35555D01*
X47354Y-35475D01*
X47146Y-35474D01*
X46953Y-35554D01*
X46805Y-35702D01*
X46725Y-35895D01*
X46724Y-36103D01*
X46804Y-36297D01*
X46952Y-36444D01*
X47145Y-36524D01*
X47353Y-36525D01*
X47547Y-36445D01*
X47694Y-36297D01*
X47774Y-36104D01*
X47775Y-35896D01*
X47775Y-37024D01*
X47749Y-37085D01*
X47695Y-36953D01*
X47547Y-36805D01*
X47354Y-36725D01*
X47146Y-36724D01*
X46953Y-36804D01*
X46805Y-36952D01*
X46725Y-37145D01*
X46724Y-37353D01*
X46804Y-37547D01*
X46952Y-37694D01*
X47145Y-37774D01*
X47353Y-37775D01*
X47547Y-37695D01*
X47694Y-37547D01*
X47750Y-37414D01*
X47804Y-37547D01*
X47950Y-37692D01*
X47950Y-38464D01*
X47945Y-38453D01*
X47797Y-38305D01*
X47604Y-38225D01*
X47396Y-38224D01*
X47203Y-38304D01*
X47055Y-38452D01*
X46975Y-38645D01*
X46974Y-38853D01*
X47054Y-39047D01*
X47200Y-39192D01*
X47200Y-39500D01*
X47222Y-39614D01*
X47287Y-39712D01*
X47300Y-39725D01*
X47146Y-39724D01*
X46953Y-39804D01*
X46805Y-39952D01*
X46725Y-40145D01*
X46724Y-40353D01*
X46804Y-40547D01*
X46952Y-40694D01*
X47145Y-40774D01*
X47353Y-40775D01*
X47450Y-40735D01*
X47450Y-42725D01*
X46925Y-42725D01*
X46833Y-42763D01*
X46763Y-42833D01*
X46725Y-42925D01*
X46725Y-42950D01*
X46000Y-42950D01*
X45885Y-42972D01*
X45787Y-43037D01*
X45318Y-43506D01*
X45203Y-43554D01*
X45055Y-43702D01*
X44975Y-43895D01*
X44974Y-44103D01*
X45054Y-44297D01*
X45202Y-44444D01*
X45395Y-44524D01*
X45603Y-44525D01*
X45700Y-44485D01*
X45700Y-47014D01*
X45604Y-46975D01*
X45396Y-46974D01*
X45203Y-47054D01*
X45055Y-47202D01*
X44975Y-47395D01*
X44974Y-47603D01*
X45054Y-47797D01*
X45135Y-47878D01*
X45135Y-50000D01*
X45163Y-50139D01*
X45242Y-50257D01*
X45492Y-50507D01*
X45492Y-50507D01*
X45492Y-50507D01*
X45610Y-50586D01*
X45750Y-50614D01*
X45750Y-50614D01*
X45750Y-50614D01*
X47099Y-50614D01*
X47385Y-50900D01*
X47385Y-51621D01*
X47305Y-51702D01*
X47249Y-51835D01*
X47195Y-51703D01*
X47047Y-51555D01*
X46854Y-51475D01*
X46646Y-51474D01*
X46453Y-51554D01*
X46305Y-51702D01*
X46225Y-51895D01*
X46224Y-52103D01*
X46304Y-52297D01*
X46452Y-52444D01*
X46645Y-52524D01*
X46853Y-52525D01*
X47047Y-52445D01*
X47194Y-52297D01*
X47250Y-52164D01*
X47304Y-52297D01*
X47447Y-52439D01*
X47447Y-52439D01*
X47492Y-52507D01*
X47965Y-52980D01*
X44519Y-52980D01*
X44519Y-28019D01*
X60480Y-28019D01*
X60480Y-34750D01*
X60500Y-34853D01*
X60559Y-34940D01*
X60646Y-34999D01*
X60750Y-35019D01*
X61750Y-35019D01*
X62250Y-35019D01*
X66250Y-35019D01*
X66279Y-35013D01*
X66225Y-35145D01*
X66224Y-35353D01*
X66304Y-35547D01*
X66452Y-35694D01*
X66585Y-35750D01*
X66453Y-35804D01*
X66305Y-35952D01*
X66225Y-36145D01*
X66224Y-36353D01*
X66304Y-36547D01*
X66452Y-36694D01*
X66585Y-36750D01*
X66453Y-36804D01*
X66305Y-36952D01*
X66225Y-37145D01*
X66224Y-37353D01*
X66304Y-37547D01*
X66452Y-37694D01*
X66524Y-37725D01*
X66425Y-37725D01*
X66333Y-37763D01*
X66263Y-37833D01*
X66225Y-37925D01*
X66225Y-38024D01*
X66225Y-38574D01*
X66263Y-38666D01*
X66290Y-38694D01*
X66099Y-38885D01*
X65775Y-38885D01*
X65775Y-37896D01*
X65695Y-37703D01*
X65547Y-37555D01*
X65354Y-37475D01*
X65146Y-37474D01*
X64953Y-37554D01*
X64805Y-37702D01*
X64752Y-37828D01*
X64710Y-37727D01*
X64617Y-37702D01*
X64547Y-37773D01*
X64547Y-37632D01*
X64522Y-37539D01*
X64325Y-37470D01*
X64117Y-37481D01*
X63977Y-37539D01*
X63952Y-37632D01*
X64250Y-37929D01*
X64547Y-37632D01*
X64547Y-37773D01*
X64320Y-38000D01*
X64617Y-38297D01*
X64710Y-38272D01*
X64749Y-38162D01*
X64804Y-38297D01*
X64952Y-38444D01*
X65145Y-38524D01*
X65353Y-38525D01*
X65547Y-38445D01*
X65694Y-38297D01*
X65774Y-38104D01*
X65775Y-37896D01*
X65775Y-38885D01*
X65758Y-38885D01*
X65736Y-38833D01*
X65666Y-38763D01*
X65574Y-38725D01*
X65475Y-38725D01*
X64925Y-38725D01*
X64833Y-38763D01*
X64763Y-38833D01*
X64725Y-38925D01*
X64725Y-39012D01*
X64710Y-38977D01*
X64617Y-38952D01*
X64547Y-39023D01*
X64547Y-38882D01*
X64547Y-38367D01*
X64250Y-38070D01*
X64179Y-38141D01*
X64179Y-38000D01*
X63882Y-37702D01*
X63789Y-37727D01*
X63720Y-37924D01*
X63731Y-38132D01*
X63789Y-38272D01*
X63882Y-38297D01*
X64179Y-38000D01*
X64179Y-38141D01*
X63952Y-38367D01*
X63977Y-38460D01*
X64174Y-38529D01*
X64382Y-38518D01*
X64522Y-38460D01*
X64547Y-38367D01*
X64547Y-38882D01*
X64522Y-38789D01*
X64325Y-38720D01*
X64117Y-38731D01*
X63977Y-38789D01*
X63952Y-38882D01*
X64250Y-39179D01*
X64547Y-38882D01*
X64547Y-39023D01*
X64320Y-39250D01*
X64617Y-39547D01*
X64710Y-39522D01*
X64725Y-39481D01*
X64725Y-39574D01*
X64763Y-39666D01*
X64833Y-39736D01*
X64885Y-39758D01*
X64885Y-40871D01*
X64805Y-40952D01*
X64752Y-41078D01*
X64710Y-40977D01*
X64617Y-40952D01*
X64547Y-41023D01*
X64547Y-40882D01*
X64547Y-39617D01*
X64250Y-39320D01*
X64179Y-39391D01*
X64179Y-39250D01*
X63882Y-38952D01*
X63789Y-38977D01*
X63720Y-39174D01*
X63731Y-39382D01*
X63789Y-39522D01*
X63882Y-39547D01*
X64179Y-39250D01*
X64179Y-39391D01*
X63952Y-39617D01*
X63977Y-39710D01*
X64174Y-39779D01*
X64382Y-39768D01*
X64522Y-39710D01*
X64547Y-39617D01*
X64547Y-40882D01*
X64522Y-40789D01*
X64325Y-40720D01*
X64117Y-40731D01*
X63977Y-40789D01*
X63952Y-40882D01*
X64250Y-41179D01*
X64547Y-40882D01*
X64547Y-41023D01*
X64320Y-41250D01*
X64617Y-41547D01*
X64710Y-41522D01*
X64749Y-41412D01*
X64804Y-41547D01*
X64952Y-41694D01*
X65145Y-41774D01*
X65353Y-41775D01*
X65547Y-41695D01*
X65694Y-41547D01*
X65774Y-41354D01*
X65775Y-41146D01*
X65695Y-40953D01*
X65614Y-40871D01*
X65614Y-39758D01*
X65666Y-39736D01*
X65736Y-39666D01*
X65758Y-39614D01*
X66250Y-39614D01*
X66389Y-39586D01*
X66389Y-39586D01*
X66507Y-39507D01*
X66900Y-39114D01*
X67250Y-39114D01*
X67389Y-39086D01*
X67389Y-39086D01*
X67507Y-39007D01*
X67757Y-38757D01*
X67757Y-38757D01*
X67757Y-38757D01*
X67836Y-38639D01*
X67864Y-38500D01*
X67864Y-38500D01*
X67864Y-38499D01*
X67864Y-32020D01*
X68047Y-31945D01*
X68128Y-31864D01*
X68500Y-31864D01*
X68639Y-31836D01*
X68639Y-31836D01*
X68757Y-31757D01*
X69400Y-31114D01*
X70871Y-31114D01*
X70952Y-31194D01*
X71145Y-31274D01*
X71353Y-31275D01*
X71547Y-31195D01*
X71694Y-31047D01*
X71750Y-30914D01*
X71804Y-31047D01*
X71952Y-31194D01*
X72145Y-31274D01*
X72353Y-31275D01*
X72547Y-31195D01*
X72694Y-31047D01*
X72750Y-30914D01*
X72804Y-31047D01*
X72952Y-31194D01*
X73145Y-31274D01*
X73353Y-31275D01*
X73547Y-31195D01*
X73694Y-31047D01*
X73747Y-30921D01*
X73789Y-31022D01*
X73882Y-31047D01*
X74179Y-30750D01*
X74173Y-30744D01*
X74244Y-30673D01*
X74250Y-30679D01*
X74547Y-30382D01*
X74522Y-30289D01*
X74325Y-30220D01*
X74117Y-30231D01*
X74001Y-30279D01*
X74337Y-29775D01*
X74353Y-29775D01*
X74547Y-29695D01*
X74694Y-29547D01*
X74725Y-29475D01*
X74725Y-29574D01*
X74763Y-29666D01*
X74833Y-29736D01*
X74925Y-29775D01*
X75024Y-29775D01*
X75574Y-29775D01*
X75666Y-29736D01*
X75736Y-29666D01*
X75775Y-29574D01*
X75775Y-29475D01*
X75775Y-28925D01*
X75736Y-28833D01*
X75666Y-28763D01*
X75574Y-28725D01*
X75475Y-28725D01*
X74925Y-28725D01*
X74833Y-28763D01*
X74763Y-28833D01*
X74725Y-28925D01*
X74725Y-29024D01*
X74725Y-29024D01*
X74695Y-28953D01*
X74547Y-28805D01*
X74475Y-28774D01*
X74603Y-28775D01*
X74797Y-28695D01*
X74944Y-28547D01*
X75024Y-28354D01*
X75025Y-28146D01*
X74972Y-28019D01*
X76287Y-28019D01*
X76203Y-28054D01*
X76055Y-28202D01*
X75975Y-28395D01*
X75974Y-28603D01*
X76054Y-28797D01*
X76202Y-28944D01*
X76395Y-29024D01*
X76603Y-29025D01*
X76797Y-28945D01*
X76944Y-28797D01*
X77024Y-28604D01*
X77025Y-28396D01*
X76945Y-28203D01*
X76797Y-28055D01*
X76712Y-28019D01*
X79774Y-28019D01*
X79727Y-28039D01*
X79702Y-28132D01*
X80000Y-28429D01*
X80297Y-28132D01*
X80272Y-28039D01*
X80216Y-28019D01*
X80480Y-28019D01*
X80480Y-28274D01*
X80460Y-28227D01*
X80367Y-28202D01*
X80070Y-28500D01*
X80367Y-28797D01*
X80460Y-28772D01*
X80480Y-28716D01*
X80480Y-34980D01*
M02*
