G04 (created by PCBNEW (2013-mar-13)-testing) date Tue 25 Feb 2014 10:26:10 PM GET*
%MOIN*%
G04 Gerber Fmt 3.4, Leading zero omitted, Abs format*
%FSLAX34Y34*%
G01*
G70*
G90*
G04 APERTURE LIST*
%ADD10C,0.005906*%
%ADD11R,0.060000X0.060000*%
%ADD12C,0.060000*%
%ADD13R,0.055000X0.055000*%
%ADD14C,0.055000*%
%ADD15C,0.010000*%
%ADD16C,0.022835*%
G04 APERTURE END LIST*
G54D10*
G54D11*
X46750Y-30750D03*
G54D12*
X46750Y-29750D03*
X47750Y-30750D03*
X47750Y-29750D03*
X48750Y-30750D03*
X48750Y-29750D03*
X49750Y-30750D03*
X49750Y-29750D03*
X50750Y-30750D03*
X50750Y-29750D03*
X51750Y-30750D03*
X51750Y-29750D03*
X52750Y-30750D03*
X52750Y-29750D03*
X53750Y-30750D03*
X53750Y-29750D03*
X54750Y-30750D03*
X54750Y-29750D03*
X55750Y-30750D03*
X55750Y-29750D03*
X56750Y-30750D03*
X56750Y-29750D03*
X57750Y-30750D03*
X57750Y-29750D03*
X58750Y-30750D03*
X58750Y-29750D03*
G54D13*
X55250Y-46250D03*
G54D14*
X56250Y-46250D03*
G54D13*
X50750Y-52000D03*
G54D14*
X49750Y-52000D03*
X48750Y-52000D03*
X47750Y-52000D03*
X46750Y-52000D03*
X65250Y-41250D03*
X64250Y-41250D03*
G54D13*
X65250Y-39250D03*
G54D14*
X64250Y-39250D03*
X65250Y-38000D03*
X64250Y-38000D03*
X54250Y-37250D03*
X55250Y-37250D03*
X56500Y-48500D03*
X56500Y-49500D03*
X55250Y-48500D03*
X55250Y-49500D03*
X48250Y-43250D03*
X49250Y-43250D03*
X50250Y-43250D03*
X51250Y-43250D03*
X52250Y-43250D03*
X53250Y-43250D03*
X54250Y-43250D03*
X55250Y-43250D03*
X56250Y-43250D03*
X57250Y-43250D03*
X58250Y-43250D03*
X59250Y-43250D03*
X60250Y-43250D03*
G54D13*
X47250Y-43250D03*
G54D14*
X60250Y-40250D03*
X59250Y-40250D03*
X58250Y-40250D03*
X57250Y-40250D03*
X56250Y-40250D03*
X55250Y-40250D03*
X54250Y-40250D03*
X53250Y-40250D03*
X52250Y-40250D03*
X51250Y-40250D03*
X50250Y-40250D03*
X49250Y-40250D03*
X48250Y-40250D03*
X47250Y-40250D03*
G54D13*
X48250Y-46250D03*
G54D14*
X49250Y-46250D03*
X50250Y-46250D03*
G54D13*
X59250Y-49500D03*
G54D14*
X60250Y-49500D03*
X61250Y-49500D03*
G54D13*
X59250Y-48000D03*
G54D14*
X60250Y-48000D03*
X61250Y-48000D03*
G54D13*
X59250Y-46500D03*
G54D14*
X60250Y-46500D03*
X61250Y-46500D03*
G54D13*
X66750Y-50500D03*
G54D14*
X65750Y-50500D03*
G54D13*
X64750Y-50500D03*
G54D14*
X63750Y-50500D03*
G54D13*
X62750Y-50500D03*
G54D14*
X62750Y-49500D03*
X62750Y-48500D03*
X62750Y-47500D03*
X62750Y-46500D03*
G54D13*
X62750Y-43250D03*
G54D14*
X62750Y-42250D03*
X62750Y-41250D03*
X62750Y-40250D03*
X62750Y-39250D03*
X62750Y-38250D03*
X62750Y-37250D03*
X62750Y-36250D03*
G54D13*
X61250Y-38750D03*
G54D14*
X60250Y-38750D03*
X59250Y-38750D03*
X58250Y-38750D03*
X57250Y-38750D03*
X56250Y-38750D03*
X55250Y-38750D03*
X54250Y-38750D03*
X53250Y-38750D03*
X52250Y-38750D03*
G54D13*
X52250Y-37250D03*
G54D14*
X51250Y-37250D03*
X50250Y-37250D03*
X49250Y-37250D03*
X48250Y-37250D03*
X47250Y-37250D03*
G54D13*
X48250Y-44750D03*
G54D14*
X49250Y-44750D03*
X50250Y-44750D03*
X51250Y-44750D03*
X52250Y-44750D03*
X53250Y-44750D03*
X54250Y-44750D03*
X55250Y-44750D03*
G54D11*
X59250Y-37250D03*
G54D12*
X59250Y-36250D03*
X60250Y-37250D03*
X60250Y-36250D03*
X61250Y-37250D03*
X61250Y-36250D03*
G54D13*
X57250Y-52000D03*
G54D14*
X56250Y-52000D03*
X55250Y-52000D03*
X54250Y-52000D03*
X53250Y-52000D03*
G54D13*
X72750Y-34750D03*
G54D14*
X73750Y-34750D03*
G54D13*
X75250Y-29250D03*
G54D14*
X74250Y-29250D03*
G54D13*
X79750Y-30750D03*
G54D14*
X79750Y-29750D03*
G54D13*
X66750Y-38250D03*
G54D14*
X66750Y-37250D03*
X66750Y-36250D03*
X66750Y-35250D03*
X66750Y-34250D03*
X66750Y-33250D03*
X66750Y-32250D03*
G54D13*
X63250Y-52000D03*
G54D14*
X62250Y-52000D03*
X61250Y-52000D03*
X60250Y-52000D03*
X59250Y-52000D03*
G54D13*
X46500Y-48000D03*
G54D14*
X46500Y-49000D03*
X47500Y-49000D03*
G54D13*
X51250Y-48500D03*
G54D14*
X52250Y-48500D03*
X52250Y-47500D03*
G54D13*
X71750Y-37000D03*
G54D14*
X71750Y-38000D03*
X72750Y-38000D03*
G54D13*
X69250Y-28250D03*
G54D14*
X69250Y-29250D03*
X70250Y-29250D03*
X58500Y-31750D03*
X58500Y-35250D03*
X66750Y-43500D03*
X66750Y-47000D03*
X65750Y-43500D03*
X65750Y-47000D03*
X64750Y-43500D03*
X64750Y-47000D03*
X63750Y-43500D03*
X63750Y-47000D03*
X45500Y-47500D03*
X45500Y-44000D03*
X51000Y-38750D03*
X47500Y-38750D03*
X50750Y-36000D03*
X47250Y-36000D03*
X73750Y-36250D03*
X73750Y-39750D03*
X66750Y-28000D03*
X66750Y-31500D03*
X70250Y-33750D03*
X70250Y-37250D03*
X76500Y-28500D03*
X80000Y-28500D03*
X67750Y-31500D03*
X67750Y-28000D03*
X71000Y-28250D03*
X74500Y-28250D03*
G54D13*
X56750Y-32000D03*
G54D14*
X55750Y-32000D03*
X54750Y-32000D03*
X53750Y-32000D03*
X52750Y-32000D03*
X51750Y-32000D03*
X50750Y-32000D03*
X49750Y-32000D03*
X48750Y-32000D03*
X47750Y-32000D03*
X47750Y-35000D03*
X48750Y-35000D03*
X49750Y-35000D03*
X50750Y-35000D03*
X51750Y-35000D03*
X52750Y-35000D03*
X53750Y-35000D03*
X54750Y-35000D03*
X55750Y-35000D03*
X56750Y-35000D03*
G54D13*
X71250Y-33750D03*
G54D14*
X72250Y-33750D03*
X73250Y-33750D03*
X74250Y-33750D03*
X75250Y-33750D03*
X76250Y-33750D03*
X77250Y-33750D03*
X78250Y-33750D03*
X78250Y-30750D03*
X77250Y-30750D03*
X76250Y-30750D03*
X75250Y-30750D03*
X74250Y-30750D03*
X73250Y-30750D03*
X72250Y-30750D03*
X71250Y-30750D03*
G54D15*
X50750Y-52000D02*
X50750Y-51500D01*
X57000Y-51250D02*
X57250Y-51500D01*
X51000Y-51250D02*
X57000Y-51250D01*
X50750Y-51500D02*
X51000Y-51250D01*
X57250Y-51500D02*
X57250Y-52000D01*
X57250Y-52000D02*
X57250Y-51500D01*
X63250Y-51750D02*
X63250Y-52000D01*
X57250Y-51500D02*
X57500Y-51250D01*
X57500Y-51250D02*
X62750Y-51250D01*
X62750Y-51250D02*
X63250Y-51750D01*
X48250Y-40250D02*
X48250Y-41000D01*
X50750Y-50500D02*
X50750Y-52000D01*
X50500Y-50250D02*
X50750Y-50500D01*
X46750Y-46500D02*
X50500Y-50250D01*
X46750Y-43750D02*
X46750Y-46500D01*
X46000Y-43000D02*
X46750Y-43750D01*
X46000Y-41500D02*
X46000Y-43000D01*
X46250Y-41250D02*
X46000Y-41500D01*
X48000Y-41250D02*
X46250Y-41250D01*
X48250Y-41000D02*
X48000Y-41250D01*
X48250Y-40250D02*
X48500Y-40250D01*
X53250Y-39250D02*
X53250Y-38750D01*
X52750Y-39750D02*
X53250Y-39250D01*
X49000Y-39750D02*
X52750Y-39750D01*
X48500Y-40250D02*
X49000Y-39750D01*
X56250Y-52000D02*
X56250Y-52500D01*
X56250Y-52500D02*
X56000Y-52750D01*
X49750Y-52000D02*
X49750Y-52500D01*
X62250Y-52500D02*
X62250Y-52000D01*
X62000Y-52750D02*
X62250Y-52500D01*
X50000Y-52750D02*
X56000Y-52750D01*
X56000Y-52750D02*
X62000Y-52750D01*
X49750Y-52500D02*
X50000Y-52750D01*
X47250Y-37250D02*
X47250Y-38250D01*
X47250Y-39500D02*
X47250Y-40250D01*
X47000Y-39250D02*
X47250Y-39500D01*
X47000Y-38500D02*
X47000Y-39250D01*
X47250Y-38250D02*
X47000Y-38500D01*
X47250Y-40250D02*
X45750Y-40250D01*
X45750Y-40250D02*
X45500Y-40500D01*
X45500Y-40500D02*
X45500Y-43250D01*
X45500Y-43250D02*
X46250Y-44000D01*
X46250Y-44000D02*
X46250Y-46750D01*
X46250Y-46750D02*
X49750Y-50250D01*
X49750Y-50250D02*
X49750Y-52000D01*
X49750Y-52000D02*
X49750Y-52000D01*
X47250Y-40250D02*
X47500Y-40250D01*
X52250Y-39250D02*
X52250Y-38750D01*
X52000Y-39500D02*
X52250Y-39250D01*
X48750Y-39500D02*
X52000Y-39500D01*
X48500Y-39750D02*
X48750Y-39500D01*
X48000Y-39750D02*
X48500Y-39750D01*
X47500Y-40250D02*
X48000Y-39750D01*
X55750Y-40750D02*
X56000Y-41000D01*
X62250Y-41250D02*
X62750Y-41250D01*
X62000Y-41000D02*
X62250Y-41250D01*
X56000Y-41000D02*
X62000Y-41000D01*
X55750Y-40750D02*
X55750Y-40000D01*
X54250Y-40000D02*
X54250Y-40250D01*
X54500Y-39750D02*
X54250Y-40000D01*
X55500Y-39750D02*
X54500Y-39750D01*
X55750Y-40000D02*
X55500Y-39750D01*
X54250Y-40250D02*
X54250Y-38750D01*
X52750Y-36000D02*
X53000Y-36250D01*
X53000Y-36250D02*
X53250Y-36250D01*
X52750Y-32000D02*
X52750Y-33250D01*
X57250Y-37250D02*
X57250Y-38750D01*
X56750Y-36750D02*
X57250Y-37250D01*
X56250Y-36250D02*
X56750Y-36750D01*
X53000Y-36250D02*
X53250Y-36250D01*
X53250Y-36250D02*
X56250Y-36250D01*
X52250Y-35500D02*
X52750Y-36000D01*
X52250Y-33750D02*
X52250Y-35500D01*
X52750Y-33250D02*
X52250Y-33750D01*
X52750Y-35000D02*
X52750Y-35250D01*
X60250Y-35750D02*
X60250Y-36250D01*
X59750Y-35250D02*
X60250Y-35750D01*
X59000Y-34500D02*
X59750Y-35250D01*
X58000Y-34500D02*
X59000Y-34500D01*
X57750Y-34750D02*
X58000Y-34500D01*
X57750Y-35250D02*
X57750Y-34750D01*
X57250Y-35750D02*
X57750Y-35250D01*
X53250Y-35750D02*
X57250Y-35750D01*
X52750Y-35250D02*
X53250Y-35750D01*
X76250Y-30750D02*
X76250Y-30250D01*
X76250Y-30250D02*
X75250Y-29250D01*
X67250Y-40000D02*
X67625Y-39625D01*
X68000Y-39625D02*
X69400Y-38225D01*
X69400Y-36400D02*
X69550Y-36250D01*
X69550Y-36250D02*
X73750Y-36250D01*
X67625Y-39625D02*
X68000Y-39625D01*
X69400Y-38225D02*
X69400Y-36400D01*
X67250Y-40250D02*
X67250Y-40000D01*
X60500Y-45250D02*
X60250Y-45000D01*
X60250Y-45000D02*
X60250Y-43250D01*
X67000Y-45250D02*
X67250Y-45000D01*
X67250Y-45000D02*
X67250Y-40250D01*
X60500Y-45250D02*
X67000Y-45250D01*
X75750Y-34750D02*
X76250Y-34750D01*
X76800Y-34200D02*
X77250Y-33750D01*
X76250Y-34750D02*
X76800Y-34200D01*
X75500Y-34750D02*
X75750Y-34750D01*
X74500Y-34750D02*
X75500Y-34750D01*
X74250Y-35000D02*
X74500Y-34750D01*
X73750Y-36250D02*
X73750Y-35500D01*
X73750Y-35500D02*
X74250Y-35000D01*
G54D16*
X78250Y-33750D02*
X79250Y-33750D01*
X79750Y-33250D02*
X79750Y-30750D01*
X79250Y-33750D02*
X79750Y-33250D01*
G54D15*
X63750Y-47000D02*
X63250Y-47000D01*
X50500Y-44500D02*
X50250Y-44750D01*
X50500Y-44250D02*
X50500Y-44500D01*
X50750Y-44000D02*
X50500Y-44250D01*
X51500Y-44000D02*
X50750Y-44000D01*
X51750Y-44250D02*
X51500Y-44000D01*
X51750Y-45750D02*
X51750Y-44250D01*
X52500Y-46500D02*
X51750Y-45750D01*
X54000Y-46500D02*
X52500Y-46500D01*
X54500Y-47000D02*
X54000Y-46500D01*
X57500Y-47000D02*
X54500Y-47000D01*
X57750Y-47250D02*
X57500Y-47000D01*
X62000Y-47250D02*
X57750Y-47250D01*
X62250Y-47000D02*
X62000Y-47250D01*
X63250Y-47000D02*
X62250Y-47000D01*
X59250Y-48000D02*
X57600Y-48000D01*
X51200Y-44799D02*
X51250Y-44750D01*
X51200Y-45800D02*
X51200Y-44799D01*
X52200Y-46799D02*
X51200Y-45800D01*
X53199Y-46799D02*
X52200Y-46799D01*
X53800Y-47400D02*
X53199Y-46799D01*
X57000Y-47400D02*
X53800Y-47400D01*
X57600Y-48000D02*
X57000Y-47400D01*
X63350Y-45850D02*
X57450Y-45850D01*
X57000Y-45400D02*
X52400Y-45400D01*
X57450Y-45850D02*
X57000Y-45400D01*
X63500Y-46000D02*
X64400Y-46000D01*
X64750Y-46350D02*
X64750Y-47000D01*
X64400Y-46000D02*
X64750Y-46350D01*
X52250Y-45250D02*
X52250Y-44750D01*
X52400Y-45400D02*
X52250Y-45250D01*
X63500Y-46000D02*
X63350Y-45850D01*
X61250Y-42800D02*
X61250Y-42250D01*
X61000Y-42000D02*
X60400Y-42000D01*
X61250Y-42250D02*
X61000Y-42000D01*
X66800Y-39000D02*
X67250Y-39000D01*
X67250Y-39000D02*
X67800Y-38450D01*
X67800Y-38450D02*
X67800Y-38400D01*
X67800Y-38400D02*
X67800Y-35200D01*
X70000Y-34500D02*
X70250Y-34250D01*
X68500Y-34500D02*
X70000Y-34500D01*
X68250Y-34750D02*
X68500Y-34500D01*
X70250Y-34250D02*
X70250Y-33750D01*
X67800Y-35200D02*
X68250Y-34750D01*
X66750Y-39000D02*
X66800Y-39000D01*
X57250Y-43250D02*
X57250Y-42750D01*
X57250Y-42750D02*
X58000Y-42000D01*
X58000Y-42000D02*
X60400Y-42000D01*
X66500Y-39250D02*
X66750Y-39000D01*
X65750Y-40000D02*
X66500Y-39250D01*
X65750Y-42750D02*
X65750Y-40000D01*
X65250Y-43250D02*
X65750Y-42750D01*
X65250Y-44250D02*
X65250Y-43250D01*
X65000Y-44500D02*
X65250Y-44250D01*
X61500Y-44500D02*
X65000Y-44500D01*
X61250Y-44250D02*
X61500Y-44500D01*
X61250Y-42800D02*
X61250Y-44250D01*
X53250Y-44750D02*
X53250Y-44250D01*
X57250Y-43500D02*
X57250Y-43250D01*
X57000Y-43750D02*
X57250Y-43500D01*
X53750Y-43750D02*
X57000Y-43750D01*
X53250Y-44250D02*
X53750Y-43750D01*
X60800Y-44200D02*
X60800Y-44600D01*
X60800Y-44600D02*
X61200Y-45000D01*
X60800Y-44200D02*
X60800Y-42800D01*
X58250Y-42550D02*
X58250Y-43250D01*
X58400Y-42400D02*
X58250Y-42550D01*
X60400Y-42400D02*
X58400Y-42400D01*
X60800Y-42800D02*
X60400Y-42400D01*
X67300Y-39500D02*
X68600Y-38200D01*
X68600Y-36200D02*
X69400Y-35400D01*
X70350Y-35400D02*
X71500Y-34250D01*
X69400Y-35400D02*
X70350Y-35400D01*
X68600Y-38200D02*
X68600Y-36200D01*
X71500Y-34250D02*
X71600Y-34250D01*
X71600Y-34250D02*
X72250Y-34250D01*
X75500Y-34250D02*
X72250Y-34250D01*
X77750Y-32000D02*
X76250Y-32000D01*
X76250Y-32000D02*
X76000Y-32250D01*
X76000Y-32250D02*
X75750Y-32500D01*
X75750Y-32500D02*
X75750Y-34000D01*
X78250Y-30750D02*
X78250Y-31500D01*
X78250Y-31500D02*
X77750Y-32000D01*
X75500Y-34250D02*
X75750Y-34000D01*
X66750Y-39750D02*
X67000Y-39500D01*
X67000Y-39500D02*
X67200Y-39500D01*
X65750Y-45000D02*
X61200Y-45000D01*
X66250Y-44500D02*
X65750Y-45000D01*
X66250Y-40250D02*
X66250Y-44500D01*
X66250Y-40250D02*
X66750Y-39750D01*
X67200Y-39500D02*
X67300Y-39500D01*
X77500Y-29500D02*
X78250Y-30250D01*
X77500Y-29500D02*
X76500Y-28500D01*
X54250Y-44750D02*
X54250Y-44500D01*
X54250Y-44500D02*
X54750Y-44000D01*
X54750Y-44000D02*
X57750Y-44000D01*
X57750Y-44000D02*
X58250Y-43500D01*
X58250Y-43500D02*
X58250Y-43250D01*
X78250Y-30250D02*
X78250Y-30750D01*
X69800Y-40000D02*
X70000Y-40000D01*
X70000Y-40000D02*
X71000Y-39000D01*
X74625Y-35125D02*
X77125Y-35125D01*
X77125Y-35125D02*
X77250Y-35000D01*
X74250Y-36750D02*
X74500Y-36500D01*
X74500Y-36250D02*
X74500Y-36500D01*
X77250Y-35000D02*
X77750Y-34500D01*
X74750Y-28000D02*
X74500Y-28250D01*
X78250Y-28000D02*
X74750Y-28000D01*
X78750Y-28500D02*
X78250Y-28000D01*
X78750Y-31750D02*
X78750Y-28500D01*
X77750Y-32750D02*
X78750Y-31750D01*
X77750Y-34500D02*
X77750Y-32750D01*
X74500Y-35250D02*
X74625Y-35125D01*
X74500Y-36250D02*
X74500Y-35250D01*
X67750Y-40000D02*
X69800Y-40000D01*
X71000Y-39000D02*
X71000Y-37750D01*
X71000Y-37750D02*
X71250Y-37500D01*
X71250Y-37500D02*
X72250Y-37500D01*
X72250Y-37500D02*
X72500Y-37250D01*
X72500Y-37250D02*
X73000Y-36750D01*
X73000Y-36750D02*
X74250Y-36750D01*
X67500Y-40500D02*
X67500Y-40250D01*
X67250Y-45500D02*
X67500Y-45250D01*
X67500Y-45250D02*
X67500Y-40500D01*
X59250Y-43250D02*
X59250Y-45000D01*
X59750Y-45500D02*
X67000Y-45500D01*
X59250Y-45000D02*
X59750Y-45500D01*
X67000Y-45500D02*
X67250Y-45500D01*
X67500Y-40250D02*
X67750Y-40000D01*
X55250Y-44750D02*
X58000Y-44750D01*
X59000Y-43500D02*
X59250Y-43250D01*
X59000Y-43750D02*
X59000Y-43500D01*
X58000Y-44750D02*
X59000Y-43750D01*
X77250Y-30750D02*
X77250Y-30000D01*
X75500Y-28250D02*
X74500Y-28250D01*
X77250Y-30000D02*
X75500Y-28250D01*
G54D16*
X62750Y-50250D02*
X55250Y-50250D01*
X55250Y-49500D02*
X55250Y-50250D01*
X62750Y-50500D02*
X62750Y-50250D01*
X54250Y-43250D02*
X54250Y-42250D01*
X53250Y-41250D02*
X53250Y-40250D01*
X54250Y-42250D02*
X53250Y-41250D01*
G54D15*
X74250Y-30750D02*
X73250Y-29750D01*
X73000Y-29250D02*
X70250Y-29250D01*
X73250Y-29500D02*
X73000Y-29250D01*
X73250Y-29750D02*
X73250Y-29500D01*
X73750Y-39750D02*
X73500Y-39750D01*
X71750Y-38750D02*
X71750Y-38000D01*
X72000Y-39000D02*
X71750Y-38750D01*
X73250Y-39000D02*
X72000Y-39000D01*
X73500Y-39750D02*
X73250Y-39000D01*
X47250Y-36000D02*
X45250Y-36000D01*
X45250Y-36000D02*
X44750Y-36500D01*
X45000Y-49000D02*
X46500Y-49000D01*
X44750Y-48750D02*
X45000Y-49000D01*
X44750Y-36500D02*
X44750Y-48750D01*
X55750Y-32000D02*
X55750Y-31750D01*
X55750Y-31750D02*
X54750Y-30750D01*
X66750Y-31500D02*
X67250Y-32000D01*
X72250Y-32750D02*
X72250Y-33750D01*
X71500Y-32000D02*
X72250Y-32750D01*
X67250Y-32000D02*
X71500Y-32000D01*
X69250Y-28250D02*
X68750Y-28250D01*
X72250Y-30500D02*
X72250Y-30750D01*
X71750Y-30000D02*
X72250Y-30500D01*
X71500Y-30000D02*
X71750Y-30000D01*
X68750Y-30000D02*
X71500Y-30000D01*
X68500Y-29750D02*
X68750Y-30000D01*
X68500Y-28500D02*
X68500Y-29750D01*
X68750Y-28250D02*
X68500Y-28500D01*
G54D16*
X56750Y-35000D02*
X56750Y-34000D01*
X57000Y-33750D02*
X60000Y-33750D01*
X56750Y-34000D02*
X57000Y-33750D01*
X55250Y-40250D02*
X55250Y-41250D01*
X62500Y-43250D02*
X62000Y-42750D01*
X62750Y-43250D02*
X62500Y-43250D01*
X55500Y-41500D02*
X61750Y-41500D01*
X61750Y-41500D02*
X62000Y-41750D01*
X62000Y-41750D02*
X62000Y-42750D01*
X55250Y-41250D02*
X55500Y-41500D01*
X65250Y-39250D02*
X65250Y-38000D01*
X46750Y-29750D02*
X46750Y-29500D01*
X46750Y-29500D02*
X47500Y-28750D01*
X47500Y-28750D02*
X59500Y-28750D01*
X59500Y-28750D02*
X60000Y-29250D01*
X60000Y-29250D02*
X60000Y-33750D01*
X65250Y-36000D02*
X65250Y-39250D01*
X64750Y-35500D02*
X65250Y-36000D01*
X60750Y-35500D02*
X64750Y-35500D01*
X60000Y-34750D02*
X60750Y-35500D01*
X60000Y-33750D02*
X60000Y-34500D01*
X60000Y-34500D02*
X60000Y-34750D01*
X65250Y-41250D02*
X64750Y-43500D01*
G54D15*
X59250Y-36250D02*
X59500Y-36250D01*
X65250Y-37500D02*
X65250Y-39250D01*
X64500Y-36750D02*
X65250Y-37500D01*
X60000Y-36750D02*
X64500Y-36750D01*
X59500Y-36250D02*
X60000Y-36750D01*
M02*
